<?xml version="1.0" encoding="iso-8859-1"?>
<!-- Generator: Adobe Illustrator 19.0.0, SVG Export Plug-In . SVG Version: 6.00 Build 0)  -->
<svg version="1.1" id="Capa_1" xmlns="http://www.w3.org/2000/svg" xmlns:xlink="http://www.w3.org/1999/xlink" x="0px" y="0px"
	 viewBox="0 0 512 512" style="enable-background:new 0 0 512 512;" xml:space="preserve">
<path style="fill:#FFD3AE;" d="M119.96,163.669c11.406-6.767,22.022-17.644,26.889-26.628c3.665-6.766,6.789-11.833,7.258-31.946
	c-18.725-8.61-50.422-47.255-54.518-52.417c-4.096,5.162-35.793,43.808-54.518,52.417c0.468,20.113,3.592,25.18,7.257,31.946
	c4.866,8.984,15.482,19.861,26.89,26.628c0,29.184-30.685,23.944-30.685,23.944l0,0c0,16.596,13.454,30.05,30.05,30.05h41.611
	c16.596,0,30.05-13.454,30.05-30.05l0,0C150.243,187.614,119.96,192.772,119.96,163.669z"/>
<path style="fill:#FE5E47;" d="M165.348,184.458h-35.076c8.777,5.05,19.972,3.156,19.972,3.156c0,16.596-13.454,30.05-30.05,30.05
	H78.582c-16.596,0-30.05-13.454-30.05-30.05c0,0,11.395,1.933,20.298-3.156H33.829C20.668,184.458,10,195.126,10,208.287v65.503
	h179.177v-65.503C189.177,195.126,178.509,184.458,165.348,184.458z"/>
<path style="fill:#DC9E5E;" d="M33.829,184.458h35.002c5.703-3.26,10.387-9.393,10.387-20.788
	c-11.408-6.767-22.024-17.644-26.89-26.628c-3.664-6.766-6.788-11.833-7.257-31.946c18.725-8.61,50.422-47.255,54.518-52.417
	c4.096,5.162,35.793,43.807,54.518,52.417c-0.469,20.113-3.593,25.181-7.258,31.946c-4.867,8.984-15.483,19.861-26.889,26.628
	c0,11.405,4.656,17.535,10.312,20.789h35.076c8.068,0,15.195,4.013,19.505,10.148V95.265c0-47.09-38.174-85.265-85.265-85.265l0,0
	c-47.09,0-85.265,38.174-85.265,85.265v99.341C18.635,188.471,25.761,184.458,33.829,184.458z"/>
<path d="M194.854,191.769V95.265C194.854,42.735,152.118,0,99.589,0S4.323,42.735,4.323,95.265v96.504
	C1.575,196.658,0,202.29,0,208.287v65.503c0,5.522,4.477,10,10,10h179.177c5.522,0,10-4.478,10-10v-65.503
	C199.177,202.29,197.602,196.658,194.854,191.769z M24.323,95.265C24.323,53.764,58.087,20,99.589,20
	c41.501,0,75.265,33.764,75.265,75.265v80.562c-0.009-0.003-0.019-0.005-0.028-0.007c-0.74-0.216-1.49-0.41-2.251-0.576
	c-0.018-0.004-0.036-0.009-0.055-0.013c-0.756-0.164-1.521-0.304-2.295-0.416c-0.062-0.009-0.124-0.015-0.186-0.024
	c-0.652-0.091-1.311-0.161-1.974-0.214c-0.172-0.014-0.344-0.028-0.517-0.04c-0.728-0.047-1.46-0.079-2.199-0.079h-31.908
	c-1.2-1.131-2.349-2.858-2.979-5.685c10.538-7.407,20.066-17.527,25.182-26.969l0.365-0.673c4.583-8.431,7.623-15.478,8.097-35.803
	c0.093-3.989-2.194-7.652-5.819-9.319c-13.729-6.313-40.196-36.107-50.862-49.548c-1.896-2.39-4.781-3.783-7.833-3.783
	s-5.937,1.394-7.833,3.783C81.09,59.901,54.623,89.696,40.893,96.009c-3.625,1.667-5.912,5.33-5.819,9.319
	c0.474,20.323,3.513,27.37,8.095,35.801l0.366,0.675c5.113,9.439,14.639,19.558,25.178,26.965c-0.641,2.832-1.807,4.559-3.024,5.689
	h-31.86c-0.74,0-1.471,0.032-2.2,0.079c-0.173,0.011-0.345,0.026-0.517,0.04c-0.663,0.053-1.322,0.123-1.974,0.214
	c-0.062,0.009-0.124,0.015-0.186,0.024c-0.774,0.112-1.539,0.252-2.295,0.416c-0.018,0.004-0.037,0.009-0.055,0.013
	c-0.76,0.166-1.51,0.359-2.251,0.576c-0.009,0.003-0.019,0.005-0.028,0.007C24.323,175.827,24.323,95.265,24.323,95.265z
	 M73.793,193.141c0.014-0.008,0.027-0.018,0.041-0.026c7.029-4.031,15.384-12.408,15.384-29.446c0-3.53-1.862-6.8-4.898-8.6
	c-9.417-5.586-18.957-14.957-23.199-22.789l-0.38-0.701c-2.67-4.912-4.693-8.637-5.432-20.771
	c15.294-9.806,33.935-30.342,44.28-42.458c10.346,12.116,28.985,32.652,44.279,42.458c-0.738,12.136-2.763,15.86-5.433,20.771
	l-0.38,0.699c-4.243,7.834-13.783,17.206-23.198,22.791c-3.036,1.802-4.897,5.07-4.897,8.6c0,17.045,8.321,25.421,15.309,29.447
	c0.006,0.003,0.011,0.007,0.016,0.01c4.094,2.355,8.439,3.619,12.412,4.259c-3.435,6.128-9.994,10.279-17.504,10.279H78.582
	c-7.493,0-14.039-4.132-17.479-10.236C65.159,196.798,69.608,195.531,73.793,193.141z M179.177,263.79H20v-55.503
	c0-3.077,1.022-5.912,2.729-8.212c0.213-0.287,0.433-0.567,0.665-0.834c0.12-0.138,0.244-0.272,0.369-0.406
	c0.24-0.255,0.49-0.5,0.747-0.736c0.117-0.107,0.231-0.217,0.352-0.32c0.369-0.315,0.75-0.614,1.148-0.887
	c0.013-0.009,0.026-0.02,0.039-0.029c0.437-0.298,0.891-0.567,1.358-0.813c0.068-0.036,0.139-0.065,0.207-0.1
	c0.391-0.197,0.79-0.377,1.198-0.536c0.117-0.046,0.236-0.087,0.354-0.13c0.37-0.133,0.746-0.25,1.127-0.351
	c0.136-0.036,0.271-0.073,0.409-0.105c0.382-0.089,0.77-0.157,1.161-0.214c0.133-0.019,0.263-0.045,0.396-0.061
	c0.519-0.06,1.043-0.096,1.571-0.096h5.288c3.257,18.835,19.715,33.206,39.465,33.206h41.611c19.75,0,36.208-14.371,39.465-33.206
	h5.689c0.528,0,1.052,0.036,1.57,0.096c0.135,0.015,0.266,0.042,0.4,0.061c0.389,0.057,0.776,0.124,1.157,0.213
	c0.139,0.032,0.277,0.07,0.415,0.107c0.378,0.101,0.75,0.216,1.117,0.348c0.122,0.044,0.244,0.087,0.365,0.134
	c0.4,0.157,0.792,0.333,1.176,0.527c0.076,0.038,0.154,0.071,0.229,0.11c0.463,0.244,0.914,0.511,1.347,0.806
	c0.027,0.018,0.051,0.04,0.078,0.058c0.383,0.265,0.752,0.553,1.108,0.856c0.127,0.108,0.247,0.223,0.37,0.336
	c0.251,0.23,0.496,0.47,0.731,0.719c0.128,0.136,0.254,0.273,0.376,0.414c0.232,0.267,0.452,0.547,0.664,0.833
	c1.705,2.299,2.727,5.134,2.727,8.21v55.505H179.177z"/>
<path style="fill:#DC9E5E;" d="M467.748,33.733c-10.654-13.577-21.921-16.474-30.287-12.403C430.828,15.661,420.89,10,404.293,10
	c-37.49,0-58.004,28.762-58.004,54.326c0,27.281,5.099,44.666,5.099,44.666s9.964-28.696,38.054-28.696
	c18.779,0,30.095-7.456,37.993-16.604c3.356,8.745,19.608,12.416,25.992,18.059c12.636,11.167,17,19.908,17,19.908
	S490.34,62.516,467.748,33.733z"/>
<path style="fill:#FFD3AE;" d="M470.427,101.659c0,0-4.364-8.741-17-19.908c-6.384-5.644-22.635-9.315-25.992-18.059
	c-7.897,9.149-19.213,16.604-37.992,16.604c-28.091,0-38.055,28.696-38.055,28.696v8.65c0,25.835,16.063,47.904,38.74,56.807
	l-0.054,19.416h1.97l20.367,30.195l20.367-30.195h1.97l-0.054-19.415c22.677-8.903,38.74-30.972,38.74-56.807V94.405
	C471.811,98.938,470.427,101.659,470.427,101.659z"/>
<path style="fill:#2C4D77;" d="M478.171,193.864h-43.422h-1.97l-20.367,30.195l-20.367-30.195h-1.97h-43.422
	c-13.161,0-23.829,10.668-23.829,23.829v56.096H502v-56.096C502,204.533,491.332,193.864,478.171,193.864z"/>
<path d="M478.171,183.864h-33.45l-0.008-2.964c23.733-12.058,38.722-36.193,38.722-63.259V96.128
	c5.139-15.131,11.115-44.445-7.82-68.569h0.001C464.727,13.685,451.57,7.501,439.337,10.16C429.496,3.332,417.973,0,404.293,0
	c-42.567,0-68.004,32.706-68.004,64.326c0,24.163,3.822,41.026,5.1,45.987v7.329c0,27.065,14.988,51.201,38.722,63.259l-0.008,2.964
	h-33.45c-18.653,0-33.829,15.176-33.829,33.829v56.097c0,5.522,4.478,10,10,10H502c5.522,0,10-4.478,10-10v-56.097
	C512,199.04,496.824,183.864,478.171,183.864z M404.293,20c14.539,0,22.185,5.098,26.671,8.932c3.024,2.586,7.294,3.133,10.874,1.39
	c4.69-2.287,11.61,1.386,18.043,9.585c0.001,0,0.001,0,0.001,0c10.167,12.954,9.586,29.087,7.035,40.917
	c-0.108-0.112-0.226-0.229-0.336-0.342c-0.318-0.327-0.64-0.656-0.972-0.989c-0.193-0.193-0.389-0.388-0.587-0.583
	c-0.309-0.305-0.624-0.613-0.944-0.923c-0.212-0.205-0.423-0.409-0.64-0.616c-0.341-0.325-0.691-0.652-1.045-0.981
	c-0.204-0.189-0.403-0.377-0.611-0.568c-0.551-0.506-1.115-1.015-1.697-1.53c-0.012-0.011-0.024-0.021-0.036-0.032
	c-0.285-0.252-0.585-0.489-0.883-0.729c-0.147-0.119-0.287-0.245-0.437-0.361c-0.017-0.013-0.036-0.026-0.054-0.039
	c-1.893-1.455-4.017-2.703-6.274-3.888c-1.518-0.797-3.093-1.568-4.703-2.352c-2.629-1.281-6.957-3.389-9.335-5.163
	c-0.793-0.591-1.369-1.146-1.593-1.62c-1.26-3.283-4.152-5.663-7.616-6.268c-3.464-0.606-6.991,0.654-9.29,3.316
	c-0.49,0.568-0.986,1.116-1.489,1.645c-1.005,1.058-2.037,2.038-3.1,2.942c-1.063,0.904-2.156,1.733-3.284,2.487
	c-6.206,4.15-13.477,6.065-22.55,6.065c-1.006,0-1.988,0.035-2.956,0.09c-0.308,0.018-0.607,0.047-0.911,0.07
	c-0.659,0.05-1.313,0.107-1.954,0.181c-0.337,0.039-0.671,0.083-1.003,0.129c-0.608,0.083-1.208,0.177-1.8,0.281
	c-0.314,0.055-0.628,0.109-0.937,0.17c-0.646,0.127-1.279,0.27-1.905,0.421c-0.23,0.055-0.465,0.104-0.692,0.163
	c-0.847,0.218-1.677,0.455-2.489,0.715c-0.128,0.041-0.25,0.088-0.376,0.13c-0.68,0.224-1.348,0.46-2.003,0.711
	c-0.255,0.098-0.504,0.202-0.756,0.304c-0.521,0.21-1.035,0.427-1.54,0.653c-0.265,0.119-0.527,0.24-0.788,0.362
	c-0.493,0.232-0.976,0.472-1.454,0.719c-0.236,0.122-0.474,0.242-0.707,0.367c-0.554,0.299-1.096,0.607-1.63,0.923
	c-0.135,0.08-0.275,0.155-0.408,0.236c-0.664,0.402-1.31,0.817-1.941,1.243c-0.158,0.106-0.308,0.217-0.464,0.325
	c-0.468,0.324-0.929,0.652-1.379,0.987c-0.21,0.156-0.414,0.315-0.62,0.474c-0.39,0.3-0.773,0.603-1.149,0.911
	c-0.205,0.167-0.408,0.335-0.609,0.505c-0.379,0.32-0.748,0.643-1.112,0.969c-0.173,0.155-0.349,0.308-0.519,0.465
	c-0.062,0.057-0.129,0.113-0.191,0.171c-0.509-5.446-0.858-11.711-0.858-18.644C356.289,45.921,371.183,20,404.293,20z
	 M361.389,117.642v-6.721c0.032-0.074,0.065-0.148,0.1-0.227c0.025-0.055,0.048-0.109,0.074-0.167
	c0.065-0.144,0.136-0.298,0.21-0.456c0.022-0.047,0.042-0.091,0.065-0.139c0.199-0.42,0.428-0.883,0.687-1.382
	c0.035-0.066,0.073-0.137,0.108-0.204c0.096-0.182,0.194-0.366,0.298-0.556c0.051-0.093,0.105-0.189,0.158-0.284
	c0.096-0.173,0.195-0.348,0.298-0.527c0.06-0.104,0.121-0.21,0.184-0.316c0.106-0.18,0.216-0.364,0.328-0.549
	c0.065-0.107,0.129-0.213,0.196-0.322c0.123-0.198,0.251-0.401,0.382-0.603c0.063-0.098,0.124-0.195,0.188-0.293
	c0.18-0.276,0.368-0.555,0.562-0.837c0.019-0.027,0.036-0.053,0.054-0.08c0.213-0.308,0.436-0.619,0.666-0.933
	c0.069-0.094,0.142-0.188,0.213-0.282c0.164-0.219,0.33-0.438,0.502-0.659c0.093-0.119,0.189-0.238,0.285-0.357
	c0.159-0.198,0.32-0.397,0.486-0.595c0.106-0.127,0.213-0.253,0.322-0.379c0.165-0.193,0.334-0.385,0.506-0.577
	c0.113-0.126,0.226-0.253,0.342-0.379c0.183-0.199,0.371-0.396,0.561-0.594c0.111-0.115,0.22-0.231,0.334-0.346
	c0.23-0.232,0.467-0.461,0.707-0.69c0.081-0.077,0.159-0.156,0.241-0.232c0.322-0.301,0.654-0.598,0.994-0.89
	c0.094-0.081,0.193-0.159,0.288-0.239c0.252-0.211,0.506-0.421,0.767-0.627c0.135-0.106,0.274-0.209,0.411-0.313
	c0.231-0.175,0.464-0.349,0.703-0.52c0.153-0.109,0.308-0.216,0.464-0.323c0.235-0.161,0.474-0.319,0.716-0.474
	c0.162-0.104,0.325-0.208,0.491-0.309c0.251-0.154,0.508-0.303,0.767-0.451c0.162-0.093,0.323-0.187,0.488-0.276
	c0.295-0.16,0.597-0.313,0.901-0.464c0.137-0.068,0.27-0.139,0.409-0.205c0.443-0.211,0.895-0.412,1.358-0.601
	c0.093-0.038,0.19-0.07,0.283-0.107c0.376-0.148,0.756-0.292,1.144-0.424c0.173-0.059,0.351-0.112,0.527-0.168
	c0.318-0.101,0.639-0.2,0.966-0.291c0.199-0.055,0.403-0.105,0.605-0.157c0.316-0.079,0.635-0.154,0.958-0.222
	c0.212-0.045,0.426-0.088,0.642-0.128c0.331-0.062,0.668-0.116,1.007-0.166c0.213-0.031,0.425-0.064,0.641-0.091
	c0.374-0.046,0.755-0.08,1.138-0.111c0.189-0.015,0.375-0.036,0.566-0.048c0.576-0.035,1.161-0.057,1.758-0.057
	c0.002,0,0.005,0,0.007,0c14.858,0,27.213-4.016,37.467-12.224c0.954,0.699,1.94,1.356,2.945,1.977
	c3.013,1.864,6.182,3.408,9.086,4.822c0.747,0.364,1.519,0.74,2.279,1.118c0.014,0.007,0.029,0.014,0.043,0.021
	c0.008,0.004,0.016,0.008,0.025,0.012c2.31,1.151,4.496,2.318,5.518,3.222c0.667,0.589,1.307,1.17,1.922,1.742
	c0.188,0.175,0.358,0.342,0.541,0.515c0.417,0.394,0.836,0.788,1.229,1.172c0.214,0.209,0.409,0.41,0.616,0.616
	c0.337,0.336,0.682,0.675,1,1.003c0.242,0.248,0.462,0.485,0.693,0.728c0.26,0.273,0.529,0.551,0.776,0.817
	c0.257,0.277,0.493,0.542,0.736,0.811c0.197,0.218,0.404,0.441,0.591,0.653c0.278,0.314,0.534,0.614,0.792,0.915
	c0.13,0.151,0.269,0.309,0.394,0.456c0.297,0.352,0.573,0.689,0.844,1.021c0.068,0.083,0.143,0.172,0.209,0.255
	c0.32,0.397,0.62,0.779,0.902,1.144c0.006,0.008,0.013,0.017,0.02,0.025c2.335,3.031,3.368,4.932,3.448,5.082
	c0.037,0.073,0.089,0.135,0.128,0.208c0.2,0.37,0.416,0.728,0.657,1.065c0.104,0.145,0.22,0.277,0.331,0.416
	c0.205,0.257,0.416,0.507,0.644,0.741c0.056,0.057,0.101,0.125,0.158,0.181v8.833c0,21.129-12.716,39.773-32.395,47.498
	c-3.838,1.507-6.357,5.214-6.346,9.337l0.038,13.449c-0.084,0.113-0.165,0.23-0.244,0.347l-12.077,17.904l-12.077-17.904
	c-0.079-0.117-0.16-0.233-0.243-0.346l0.037-13.451c0.012-4.122-2.509-7.829-6.346-9.336
	C374.103,157.415,361.389,138.77,361.389,117.642z M492,263.79H332.823v-46.097c0-7.625,6.204-13.829,13.829-13.829h40.074
	l17.395,25.787c1.858,2.756,4.966,4.408,8.29,4.408s6.432-1.652,8.29-4.408l17.395-25.787h40.075
	c7.625,0,13.829,6.204,13.829,13.829L492,263.79L492,263.79z"/>
<path d="M426.149,512c-0.649,0-1.3-0.07-1.949-0.2c-0.641-0.12-1.271-0.32-1.87-0.57c-0.601-0.25-1.181-0.56-1.73-0.92
	c-0.54-0.359-1.06-0.779-1.52-1.24c-0.46-0.46-0.88-0.97-1.24-1.52c-0.36-0.54-0.67-1.12-0.92-1.73c-0.25-0.6-0.44-1.229-0.57-1.869
	c-0.13-0.641-0.2-1.301-0.2-1.95c0-0.65,0.07-1.31,0.2-1.95s0.32-1.27,0.57-1.88c0.25-0.601,0.56-1.18,0.92-1.72
	c0.36-0.551,0.78-1.061,1.24-1.521s0.979-0.88,1.52-1.25c0.55-0.36,1.13-0.66,1.73-0.91s1.229-0.45,1.87-0.569
	c1.29-0.261,2.619-0.261,3.909,0c0.641,0.119,1.271,0.319,1.87,0.569c0.601,0.25,1.181,0.55,1.721,0.91
	c0.55,0.37,1.06,0.79,1.529,1.25c0.46,0.46,0.87,0.97,1.24,1.521c0.36,0.54,0.67,1.119,0.92,1.72c0.25,0.61,0.441,1.24,0.57,1.88
	c0.13,0.64,0.189,1.3,0.189,1.95c0,0.649-0.06,1.31-0.189,1.95c-0.13,0.64-0.32,1.27-0.57,1.869c-0.25,0.61-0.559,1.19-0.92,1.73
	c-0.37,0.55-0.78,1.06-1.24,1.52c-0.47,0.461-0.979,0.881-1.529,1.24c-0.54,0.36-1.12,0.67-1.721,0.92
	c-0.6,0.25-1.229,0.45-1.87,0.57C427.46,511.93,426.81,512,426.149,512z"/>
<polygon style="fill:#FAD06A;" points="327.705,502 184.295,502 221.354,367 290.646,367 "/>
<rect x="11.199" y="316.65" style="fill:#DC9E5E;" width="489.6" height="50.35"/>
<path d="M256,409.359c-0.65,0-1.311-0.06-1.95-0.19c-0.64-0.13-1.27-0.32-1.87-0.57c-0.61-0.25-1.189-0.56-1.73-0.92
	c-0.551-0.36-1.061-0.78-1.52-1.24c-0.46-0.46-0.88-0.98-1.24-1.52c-0.359-0.55-0.67-1.13-0.92-1.73s-0.45-1.23-0.569-1.87
	c-0.131-0.649-0.2-1.3-0.2-1.949c0-0.66,0.069-1.31,0.2-1.96c0.119-0.641,0.319-1.271,0.569-1.87c0.25-0.6,0.55-1.181,0.92-1.73
	c0.36-0.54,0.78-1.06,1.24-1.52s0.97-0.88,1.52-1.24c0.54-0.36,1.119-0.67,1.73-0.92c0.601-0.25,1.23-0.44,1.87-0.57
	c1.29-0.26,2.61-0.26,3.9,0c0.64,0.13,1.27,0.32,1.88,0.57c0.6,0.25,1.18,0.56,1.72,0.92c0.55,0.36,1.06,0.78,1.52,1.24
	c0.461,0.46,0.881,0.979,1.24,1.52c0.36,0.55,0.67,1.13,0.92,1.73s0.45,1.229,0.58,1.87c0.13,0.649,0.19,1.3,0.19,1.96
	c0,0.649-0.06,1.3-0.2,1.949c-0.12,0.641-0.32,1.271-0.57,1.87c-0.25,0.6-0.56,1.181-0.92,1.73c-0.359,0.54-0.779,1.06-1.24,1.52
	c-0.46,0.46-0.97,0.88-1.52,1.24c-0.54,0.36-1.12,0.67-1.72,0.92c-0.61,0.25-1.24,0.44-1.88,0.57
	C257.31,409.3,256.649,409.359,256,409.359z"/>
<path d="M500.801,306.65H11.199c-5.522,0-10,4.478-10,10V367c0,5.522,4.478,10,10,10h197.039L176.67,492H85.846
	c-5.523,0-10,4.478-10,10s4.477,10,10,10h305.279c5.522,0,10-4.478,10-10s-4.478-10-10-10H335.33l-31.568-115h197.039
	c5.522,0,10-4.478,10-10v-50.35C510.801,311.128,506.323,306.65,500.801,306.65z M314.59,492H266v-57.605c0-5.522-4.478-10-10-10
	c-5.523,0-10,4.478-10,10V492h-48.59l31.568-115h54.043L314.59,492z M490.801,357H21.199v-30.35h469.602V357z"/>
<g>
</g>
<g>
</g>
<g>
</g>
<g>
</g>
<g>
</g>
<g>
</g>
<g>
</g>
<g>
</g>
<g>
</g>
<g>
</g>
<g>
</g>
<g>
</g>
<g>
</g>
<g>
</g>
<g>
</g>
</svg>
