<?xml version="1.0" encoding="iso-8859-1"?>
<!-- Generator: Adobe Illustrator 19.0.0, SVG Export Plug-In . SVG Version: 6.00 Build 0)  -->
<svg version="1.1" id="Capa_1" xmlns="http://www.w3.org/2000/svg" xmlns:xlink="http://www.w3.org/1999/xlink" x="0px" y="0px"
	 viewBox="0 0 512 512" style="enable-background:new 0 0 512 512;" xml:space="preserve">
<g>
	<path style="fill:#FEBB8E;" d="M87.578,277.597V168.855c0-10.721-8.691-19.413-19.413-19.413c-0.102,0-0.662,0.011-0.675,0.012
		c-10.408,0.356-18.738,8.905-18.738,19.401v113.348l0.053,0.024"/>
	<path style="fill:#FEBB8E;" d="M126.404,316.832V197.68c0-10.721-8.691-19.413-19.413-19.413c-0.102,0-0.662,0.011-0.675,0.012
		c-10.408,0.356-18.738,8.905-18.738,19.401v79.918"/>
	<path style="fill:#FEBB8E;" d="M165.23,334.46v-78.247c0-10.721-8.691-19.413-19.413-19.413c-0.102,0-0.662,0.011-0.675,0.012
		c-10.408,0.356-18.738,8.905-18.738,19.401v60.828"/>
</g>
<g>
	<path style="fill:#FCD5A2;" d="M10.229,179.428c0-9.522,10.084-16.425,20.048-15.956c10.442,0.491,18.475,9.485,18.475,19.939
		v98.791l158.103,70.932c14.468,6.028,23.893,20.165,23.893,35.839V502H123.976v-61.363L80.549,415.84
		c-11.593-5.174-21.219-13.931-27.463-24.985L22.68,337.028C14.322,322.234,9.953,305.531,10,288.54
		C10.09,256.183,10.229,202.303,10.229,179.428z"/>
	<path style="fill:#FCD5A2;" d="M94.442,348.081l-40.672-43.78c-4.946-5.022-6.907-11.869-5.898-18.337
		c0.67-4.295,2.648-8.423,5.931-11.74c0.065-0.065,1.716-1.558,1.722-1.562c8.461-6.889,20.935-6.336,28.747,1.594l91.356,92.317"/>
</g>
<path d="M210.831,343.96l-35.601-15.973v-71.773c0-16.219-13.195-29.413-29.413-29.413c-0.134,0-0.646,0.015-1.016,0.026v-0.009
	c-2.935,0.1-5.753,0.621-8.397,1.503V197.68c0-16.219-13.195-29.413-29.413-29.413c-0.134,0-0.647,0.015-1.017,0.026l-0.001-0.009
	c-2.935,0.101-5.752,0.622-8.396,1.504v-0.933c0-16.219-13.195-29.413-29.413-29.413c-0.1,0-0.531,0.007-0.841,0.013
	c-0.059,0.001-0.118,0.003-0.176,0.005c-11.371,0.389-20.982,7.085-25.548,16.687c-3.323-1.546-6.985-2.481-10.853-2.663
	c-8.334-0.38-16.838,2.724-22.721,8.336c-5.028,4.797-7.796,11.051-7.796,17.609c0,23.163-0.144,78.287-0.229,109.084
	c-0.052,18.685,4.779,37.162,13.972,53.435l30.407,53.828c7.161,12.676,18.378,22.952,31.625,28.985l37.973,21.683V502
	c0,5.522,4.477,10,10,10h106.771c5.523,0,10-4.478,10-10V388.974C240.748,369.247,229.01,351.594,210.831,343.96z M145.438,246.808
	l0.379-0.008c5.19,0,9.413,4.223,9.413,9.413v62.8l-18.826-8.447v-54.353C136.404,251.128,140.369,247.005,145.438,246.808z
	 M106.613,188.274l0.378-0.008c5.19,0,9.413,4.223,9.413,9.413v94.831l-18.826-19.024V197.68
	C97.578,192.594,101.542,188.471,106.613,188.274z M58.752,168.854c0-5.082,3.959-9.202,9.024-9.405l0.389-0.008
	c5.19,0,9.413,4.223,9.413,9.413v90.16c-6.143-1.75-12.721-1.585-18.826,0.546C58.752,259.56,58.752,168.854,58.752,168.854z
	 M220.748,492h-86.771v-51.363c0-3.59-1.924-6.904-5.042-8.684l-43.427-24.797c-0.287-0.164-0.581-0.314-0.883-0.448
	c-9.569-4.27-17.678-11.647-22.832-20.77L31.386,332.11C23.895,318.848,19.958,303.792,20,288.567
	c0.085-30.807,0.229-85.952,0.229-109.14c0-1.068,0.539-2.124,1.602-3.139c1.944-1.855,5.076-2.976,7.976-2.828
	c4.932,0.231,8.945,4.695,8.945,9.95v97.471c-0.319,1.158-0.573,2.339-0.761,3.54c-1.518,9.736,1.673,19.734,8.541,26.78
	l40.583,43.686c3.758,4.045,10.086,4.279,14.132,0.52s4.279-10.086,0.52-14.133c0,0-40.805-43.921-40.873-43.99
	c-2.56-2.601-3.706-6.165-3.142-9.78c0.361-2.311,1.406-4.421,3.017-6.102c0.299-0.273,0.892-0.808,1.239-1.121
	c4.568-3.581,11.039-3.169,15.155,1.01l91.356,92.317c1.956,1.977,4.531,2.966,7.108,2.966c2.541,0,5.084-0.963,7.034-2.892
	c3.925-3.885,3.958-10.217,0.074-14.142l-11.149-11.266l31.175,13.987c0.082,0.036,0.165,0.072,0.248,0.106
	c10.775,4.489,17.738,14.934,17.738,26.608V492H220.748z"/>
<path d="M118.14,383.58c-0.65,0-1.31-0.061-1.96-0.19c-0.64-0.13-1.26-0.32-1.87-0.57c-0.6-0.25-1.18-0.559-1.72-0.92
	c-0.55-0.359-1.06-0.779-1.53-1.239c-0.461-0.471-0.87-0.98-1.24-1.521c-0.36-0.55-0.67-1.13-0.92-1.729
	c-0.25-0.601-0.44-1.23-0.57-1.87c-0.13-0.641-0.19-1.3-0.19-1.95c0-0.66,0.06-1.31,0.19-1.96c0.13-0.64,0.32-1.271,0.57-1.87
	c0.25-0.6,0.56-1.18,0.92-1.73c0.37-0.539,0.78-1.05,1.24-1.52c0.47-0.46,0.98-0.87,1.53-1.24c0.54-0.359,1.12-0.67,1.72-0.92
	c0.61-0.25,1.23-0.439,1.87-0.57c1.29-0.26,2.62-0.26,3.91,0c0.64,0.131,1.27,0.32,1.87,0.57c0.6,0.25,1.19,0.561,1.73,0.92
	c0.54,0.37,1.06,0.78,1.52,1.24c0.46,0.47,0.88,0.98,1.24,1.52c0.36,0.551,0.67,1.131,0.92,1.73c0.25,0.6,0.441,1.23,0.57,1.87
	c0.13,0.649,0.2,1.3,0.2,1.96c0,0.65-0.07,1.31-0.2,1.95c-0.13,0.64-0.32,1.27-0.57,1.87s-0.559,1.18-0.92,1.729
	c-0.36,0.54-0.78,1.05-1.24,1.521c-0.46,0.46-0.98,0.88-1.52,1.239c-0.54,0.36-1.13,0.67-1.73,0.92c-0.6,0.25-1.23,0.441-1.87,0.57
	C119.45,383.519,118.79,383.58,118.14,383.58z"/>
<g>
	<path style="fill:#FEBB8E;" d="M424.422,277.597V168.855c0-10.721,8.691-19.413,19.413-19.413c0.102,0,0.662,0.011,0.675,0.012
		c10.408,0.356,18.738,8.905,18.738,19.401v113.348l-0.053,0.024"/>
	<path style="fill:#FEBB8E;" d="M385.596,316.832V197.68c0-10.721,8.691-19.413,19.413-19.413c0.102,0,0.662,0.011,0.675,0.012
		c10.408,0.356,18.738,8.905,18.738,19.401v79.918"/>
	<path style="fill:#FEBB8E;" d="M346.77,334.46v-78.247c0-10.721,8.691-19.413,19.413-19.413c0.102,0,0.662,0.011,0.675,0.012
		c10.408,0.356,18.738,8.905,18.738,19.401v60.828"/>
</g>
<g>
	<path style="fill:#FCD5A2;" d="M501.77,179.428c0-9.522-10.084-16.425-20.048-15.956c-10.442,0.491-18.475,9.485-18.475,19.939
		v98.791l-158.103,70.932c-14.468,6.028-23.893,20.165-23.893,35.839V502h106.772v-61.363l43.428-24.797
		c11.593-5.174,21.219-13.931,27.463-24.985l30.406-53.827c8.357-14.794,12.726-31.497,12.679-48.488
		C501.91,256.183,501.77,202.303,501.77,179.428z"/>
	<path style="fill:#FCD5A2;" d="M417.558,348.081l40.672-43.78c4.946-5.022,6.907-11.869,5.898-18.337
		c-0.67-4.295-2.648-8.423-5.931-11.74c-0.065-0.065-1.716-1.558-1.722-1.562c-8.461-6.889-20.935-6.336-28.747,1.594
		l-91.356,92.317"/>
</g>
<path d="M511.77,179.428c0-6.559-2.768-12.813-7.796-17.609c-5.882-5.612-14.371-8.709-22.721-8.336
	c-3.869,0.182-7.53,1.118-10.853,2.663c-4.566-9.601-14.177-16.298-25.548-16.687c-0.114-0.004-0.228-0.006-0.342-0.006h0.089
	c-0.23-0.005-0.664-0.012-0.764-0.012c-16.218,0-29.413,13.194-29.413,29.413v0.933c-2.644-0.882-5.461-1.403-8.396-1.504
	l-0.001,0.009c-0.37-0.012-0.883-0.026-1.017-0.026c-16.218,0-29.413,13.194-29.413,29.413v30.642
	c-2.644-0.882-5.462-1.403-8.397-1.503v0.009c-0.369-0.012-0.882-0.026-1.016-0.026c-16.218,0-29.413,13.194-29.413,29.413v71.773
	l-35.601,15.973c-18.179,7.634-29.916,25.287-29.916,45.015V502c0,5.522,4.477,10,10,10h106.771c5.523,0,10-4.478,10-10v-55.558
	l37.973-21.683c13.247-6.033,24.464-16.31,31.625-28.986l30.406-53.827c9.192-16.272,14.024-34.75,13.972-53.434
	C511.914,257.715,511.77,202.591,511.77,179.428z M434.422,168.854c0-5.19,4.223-9.413,9.341-9.413l0.461,0.008
	c5.065,0.203,9.023,4.323,9.023,9.405v90.707c-6.106-2.131-12.685-2.297-18.826-0.549L434.422,168.854L434.422,168.854z
	 M395.596,197.68c0-5.19,4.223-9.413,9.35-9.413l0.445,0.008c5.068,0.199,9.031,4.321,9.031,9.405v75.806l-18.826,19.024
	L395.596,197.68L395.596,197.68z M356.769,256.214c0-5.191,4.223-9.413,9.35-9.413l0.445,0.008c5.068,0.198,9.031,4.32,9.031,9.405
	v54.353l-18.826,8.447L356.769,256.214L356.769,256.214z M480.614,332.11l-30.406,53.826c-5.155,9.124-13.263,16.501-22.833,20.771
	c-0.301,0.135-0.596,0.284-0.883,0.448l-43.427,24.797c-3.117,1.779-5.042,5.094-5.042,8.684V492h-86.771V388.974
	c0-11.675,6.963-22.119,17.738-26.608c0.083-0.034,0.166-0.07,0.248-0.106l31.175-13.987l-11.149,11.266
	c-3.885,3.926-3.852,10.258,0.074,14.142c1.95,1.929,4.492,2.892,7.034,2.892c2.577,0,5.153-0.99,7.108-2.966l91.373-92.334
	c4.1-4.161,10.57-4.571,15.139-0.994c0.326,0.295,0.931,0.842,1.236,1.12c1.617,1.69,2.66,3.796,3.02,6.104
	c0.564,3.615-0.582,7.18-3.142,9.78c-0.068,0.069-40.873,43.99-40.873,43.99c-3.759,4.047-3.526,10.374,0.52,14.133
	s10.374,3.525,14.132-0.52l40.583-43.686c6.867-7.046,10.059-17.044,8.54-26.78c-0.188-1.202-0.442-2.384-0.761-3.542v-97.469
	c0-5.255,4.013-9.719,8.945-9.95c2.9-0.132,6.032,0.974,7.976,2.828c1.063,1.015,1.602,2.07,1.602,3.139
	c0,23.188,0.144,78.333,0.229,109.141C492.042,303.792,488.105,318.848,480.614,332.11z"/>
<path d="M393.86,383.58c-0.65,0-1.31-0.061-1.95-0.19c-0.64-0.13-1.27-0.32-1.87-0.57s-1.19-0.559-1.73-0.92
	c-0.55-0.359-1.06-0.779-1.52-1.239c-0.46-0.471-0.88-0.98-1.24-1.521c-0.36-0.55-0.67-1.13-0.92-1.729
	c-0.25-0.601-0.44-1.23-0.57-1.87c-0.13-0.641-0.2-1.3-0.2-1.95c0-0.66,0.07-1.31,0.2-1.96c0.13-0.64,0.32-1.271,0.57-1.87
	c0.25-0.6,0.56-1.18,0.92-1.73c0.36-0.539,0.78-1.05,1.24-1.52c0.46-0.46,0.97-0.87,1.52-1.24c0.54-0.359,1.13-0.67,1.73-0.92
	s1.23-0.439,1.87-0.57c1.29-0.26,2.62-0.26,3.91,0c0.64,0.131,1.26,0.32,1.87,0.57c0.6,0.25,1.18,0.561,1.72,0.92
	c0.55,0.37,1.06,0.78,1.52,1.24c0.47,0.47,0.88,0.98,1.25,1.52c0.36,0.551,0.67,1.131,0.92,1.73c0.25,0.6,0.44,1.23,0.57,1.87
	c0.13,0.649,0.19,1.3,0.19,1.96c0,0.65-0.06,1.31-0.19,1.95s-0.32,1.27-0.57,1.87s-0.56,1.18-0.92,1.729
	c-0.37,0.54-0.78,1.05-1.25,1.521c-0.46,0.46-0.97,0.88-1.52,1.239c-0.54,0.36-1.12,0.67-1.72,0.92c-0.61,0.25-1.23,0.441-1.87,0.57
	C395.17,383.519,394.52,383.58,393.86,383.58z"/>
<path style="fill:#07C2C9;" d="M256,10c0,0-6.08,4.4-15.15,12.38c-2.64,2.32-5.52,4.94-8.59,7.86
	c-27.62,26.19-69.5,75.3-69.5,132.32c0,43.24,29.6,79.7,69.59,90.19c2.8,0.74,5.65,1.35,8.55,1.82c4.92,0.81,9.96,1.23,15.1,1.23
	c51.41,0,93.24-41.83,93.24-93.24C349.24,78.16,256,10,256,10z"/>
<path d="M310.259,48.177c-23.808-28.18-47.366-45.525-48.357-46.25c-3.501-2.559-8.251-2.569-11.764-0.028
	c-0.264,0.191-21.808,18.279-24.735,21.063c-0.008,0.008-0.016,0.015-0.024,0.022C198.258,48.7,152.76,101.03,152.76,162.56
	c0,46.889,31.675,87.948,77.03,99.857c0.001,0,0.002,0.001,0.004,0.001c0.003,0.001,0.006,0.001,0.009,0.002
	s0.006,0.001,0.009,0.003c0.002,0,0.003,0.001,0.005,0.001c3.122,0.824,6.312,1.503,9.457,2.012
	c5.492,0.904,11.119,1.363,16.726,1.363c56.927,0,103.24-46.312,103.24-103.239C359.24,125.657,342.303,86.103,310.259,48.177z
	 M271.709,244.313c24.76-19.121,40.201-49.02,40.201-81.753c0-28.359-9.665-57.693-28.725-87.187
	c-2.998-4.638-9.188-5.97-13.827-2.971c-4.639,2.997-5.969,9.188-2.971,13.826c16.936,26.205,25.523,51.887,25.523,76.331
	c0,36.915-24.361,69.36-59.564,79.807c-35.217-10.433-59.587-42.877-59.587-79.807c0-54.05,41.59-101.557,66.381-125.063
	c0.009-0.008,0.017-0.016,0.025-0.024c2.745-2.611,14.487-12.906,16.798-14.777c19.858,16.257,83.276,73.391,83.276,139.865
	C339.24,203.092,310.125,236.948,271.709,244.313z"/>
<g>
</g>
<g>
</g>
<g>
</g>
<g>
</g>
<g>
</g>
<g>
</g>
<g>
</g>
<g>
</g>
<g>
</g>
<g>
</g>
<g>
</g>
<g>
</g>
<g>
</g>
<g>
</g>
<g>
</g>
</svg>
