<?xml version="1.0" encoding="utf-8"?>
<!-- Generator: Adobe Illustrator 23.0.1, SVG Export Plug-In . SVG Version: 6.00 Build 0)  -->
<svg version="1.1" id="Layer_1" xmlns="http://www.w3.org/2000/svg" xmlns:xlink="http://www.w3.org/1999/xlink" x="0px" y="0px"
	 viewBox="0 0 1122 1122" style="enable-background:new 0 0 1122 1122;" xml:space="preserve">
<style type="text/css">
	.st0{fill:#F0CCCA;}
	.st1{fill:#B74661;}
	.st2{fill:none;}
	.st3{fill:#D67086;}
	.st4{fill:#EED5D5;}
	.st5{fill:#D56B7E;}
	.st6{fill:#8CABEF;}
	.st7{fill:#D6D6D8;}
	.st8{fill:#292949;}
	.st9{fill:#9C4152;}
	.st10{fill:#C55D54;}
	.st11{fill:#EABEBC;}
	.st12{fill:#5D66D3;}
</style>
<g id="Object_1_">
	<g>
		<path class="st0" d="M503.9,383.9c-0.9-0.3-1.9-0.2-3.1,0.5c-7.5,4.5-15.7,8.1-24.1,10.6c-2.8,0.8-4-1.3-5.6-3.4
			c-3.4-4.6-6.3-8.8-8.9-13.9c-2.7-5.4-5.4-10.7-8.1-16.1c-7.1-14.2-14.3-28.3-21.6-42.4c-3.2-6.1-6.6-11.3-7.1-18.3
			c-0.6-7.4,0.8-14.7,1-22.1c0.3-8.6-6.4-13-14-14.6c-0.8-0.2-1.6-0.3-2.4,0c-0.9,0.3-1.4,1.1-2,1.8c-2.4,3.4-6,7-7.3,11
			c-1.6,4.7-0.7,11.5-0.9,16.5c-0.1,2.2-0.2,4.5,0.5,6.5c0.8,2.3,2.4,4.2,3.8,6.2c3.2,4.7,5,10.2,6.6,15.6
			c2.6,8.1,5.1,16.2,7.7,24.4c1.8,5.9,2.6,12,4.7,17.7c2.5,6.9,5,13.8,7.5,20.7c4.9,13.8,9.8,27.7,15.9,41c1.7,3.8,4.4,6.5,6.8,9.9
			c1.6,2.2,3.3,4.5,5.4,6.2c1.7,1.4,3.5,2.2,5.1,3.5c2.9,2.5,7.5,3.5,11.2,2.3c9.4-3.3,18.6-7.1,27.6-11.5c4.5-2.2,9-4.5,13.5-7
			c1.4-0.8,5-2,5.9-3.3c1.1-1.6-0.1-4.3-0.7-5.9c-2.1-6-4.8-11.6-7.7-17.2c-1.9-3.6-2.8-7.7-4.6-11.3
			C507.7,388.6,506.3,384.7,503.9,383.9z"/>
		<g>
			<path class="st1" d="M405.5,286.2c-0.5,2.1-1.1,4.4-0.4,6.4c0.8,2.5,3.2,3.6,5.3,4.5c0.7,0.3,1.5,0.6,2.1,0.2
				c0.4-0.2,0.6-0.7,0.9-1.1c6.5-11,12.4-22.5,17.8-34.4c-0.4,1-16.5-7.2-19.5-1.3c-1.3,2.5-1.5,8-2.2,10.9
				C408.1,276.3,406.8,281.3,405.5,286.2z"/>
			<path class="st2" d="M380,185.7C380,185.7,380,185.7,380,185.7C380,185.7,379.9,185.7,380,185.7C379.9,185.7,380,185.7,380,185.7
				z"/>
			<path class="st1" d="M296.9,209.3c1.2-0.3,1.9-1.2,1.7-2.2c-0.2-1.1-1-1.7-2.4-1.6c-0.2,0-0.4,0-0.6,0.1
				c-9.9,2.2-19.8,4.1-29.7,5.8c-6.3,1.1-12.6,2.3-18.9,3.4c-1.3,0.2-2.6,0.3-3.5,1.5c0,0.3,0,0.6,0,0.9c0.8,1.1,1.8,1.4,3.1,1.2
				c5.4-0.9,10.9-1.7,16.3-2.6c9.4-1.6,18.7-3.2,27.9-5.2C293,210.1,295,209.8,296.9,209.3z"/>
			<path class="st3" d="M471.5,232c-0.1-0.9,0.2-1.8-0.2-2.7l0,0l0,0c-2.6-1.8-5.2-3.7-7.9-5.5c-13.5-8.9-26.3-18.7-37.9-30.1
				c-7.7-7.5-15-15.4-21-24.3c-5.1-7.6-10.1-15.3-13.4-24c-1.3-3.4-2.5-6.9-4.6-9.9c-0.8-1.2-1.7-2.3-3.3-2.5
				c-0.3,0.3-0.2,0.6-0.1,0.9c1.4,5.1,2,10.4,2.5,15.7c0.3,3.9,0.3,7.8,0.1,11.8c-0.2,4.8-1.3,9.4-2.5,14.1
				c-0.8,3.1-1.5,6.2-2.2,9.3c-0.1,0.5-0.3,0.9-0.8,0.9c0,0,0,0,0,0.1c0.4,0.3,0.4,0.7,0.2,1.2c-1.1,3.2-2.4,6.3-3.7,9.4
				c-3.4,8.3-8.3,15.7-13.1,23.2c-1.5,2.3-3,4.5-4.7,6.6c-1.3,2.2-3,4.1-4.6,6.1c-3.1,3.9-6.4,7.6-10.1,11
				c-5.2,4.8-10.5,9.4-16.4,13.4c-0.9,0.6-1.8,1-2.8,1.5l0,0l0,0c0.9,0.8,2,0.9,3.1,0.8c7.3-0.4,14.5-0.4,21.8-0.3
				c1.1,0,2.2,0.1,3.3,0.1c7.9-0.2,15.9-0.9,23.8-0.8c5.6,0,11.2,0.2,16.8,0.7l0,0l0,0c1.4,0.1,4,0.3,6.4,0.4c0,0,0.1,0,0.1,0
				c1.8,0,3.6,0.1,5.3,0.5c0.2-0.1,0.4,0,0.7,0c4.2,0.4,5.1,1,9.3,1.9c4.9,1,9.8,2.2,14.6,3.4c0.1,0,0.3,0.1,0.4,0.2
				c2.6,0.5,5.1,1.2,7.7,2.1l0,0l0,0c0.1,0,0.2,0,0.3,0.1c4.3,1.2,8.4,2.9,12.6,4.5c1.2,0,2-0.5,2.9-1.4c2-1.9,3.9-3.8,5.6-5.9
				c3.4-4.1,6.2-8.6,8.2-13.5c1.6-3.7,2.7-7.6,3.5-11.6C471.8,237,471.9,234.5,471.5,232z"/>
			<path class="st4" d="M327.5,256.6c5.9-4,11.2-8.6,16.4-13.4c3.7-3.4,7-7.1,10.1-11c1.6-2,3.3-3.9,4.6-6.1
				c-2.6-3.7-5.5-7.1-8.6-10.3c-2.1-2.1-4.3-4-6.4-6c-0.4-0.3-0.7-0.7-1-1.1l0,0c-2-1.2-2.8-3.3-1.9-5.3c2.7-6,5.7-11.8,9.6-17
				c1.7-2.2,3.4-4.4,5.4-6.4c1.2-1.2,2.7-2,4.5-1.4c0.6,0.2,1.1,0.7,1.6,1.1l0,0l0,0c5.7,2.8,11.8,4.7,18,6l0,0c0,0,0.1,0,0.1,0
				c0.6,0,0.7-0.4,0.8-0.9c0.7-3.1,1.4-6.2,2.2-9.3c1.2-4.6,2.4-9.3,2.5-14.1c0.1-3.9,0.2-7.8-0.1-11.8c-0.4-5.3-1-10.6-2.5-15.7
				c-0.1-0.3-0.2-0.7,0.1-0.9c-0.4-0.4-0.7,0.1-1.1,0c-3.5-0.3-6.4,1.2-9.2,2.8c-6.7,3.9-12.7,8.8-18.2,14.2
				c-3.8,3.6-7.3,7.5-10.5,11.6c-7.7,10-14.3,20.6-19.8,32c-2.8,5.8-5,11.8-6.4,18.1c-1.3,5.7-1.8,11.5-2.1,17.4
				c-0.1,1.5,0.3,2.9,0.2,4.4c-0.1,2.6,0.5,5.1,0.8,7.7c0.4,3.4,1.4,6.6,2.5,9.8c0.6,1.8,1.4,3.5,2.6,5c0.8,1,1.9,1.3,2.8,2.1l0,0
				C325.7,257.7,326.7,257.2,327.5,256.6z"/>
			<path class="st4" d="M502.5,248.3c-0.5-1.6-0.9-3.4-2.5-4.4c-3.6-2.1-7.1-4.3-10.8-6.1c-4.5-2.2-9-4.5-13.5-6.6
				c-1.4-0.7-2.9-1.4-4.4-1.8l0,0c0.4,0.9,0.1,1.8,0.2,2.7c0.4,2.5,0.3,4.9-0.2,7.4c-0.8,3.9-1.9,7.8-3.5,11.6
				c-2.1,4.9-4.9,9.4-8.2,13.5c-1.7,2.1-3.7,4-5.6,5.9c-0.9,0.8-1.7,1.4-2.9,1.4c0.6,0.7,1.3,1.1,2.1,1.5c1.7,0.8,3.4,1.5,5,2.3
				c7,3.5,14.2,6.3,21.1,9.8c3.1,1.6,5.8,1.6,8.7-0.7c2-1.6,4.1-2.9,5.9-4.7c3.4-3.5,5.4-7.9,7.1-12.4c1.2-3.2,1.8-6.6,2-10
				C503.3,254.4,503.4,251.3,502.5,248.3z"/>
			<path class="st1" d="M300.1,109.3c6.1,9.1,12.3,18.1,19,26.7c1.3,1.7,2.6,3.5,4,5.2c0.7,0.9,2,1,2.8,0.4c0.8-0.6,0.9-1.7,0.3-2.7
				c-0.3-0.5-0.6-0.9-1-1.4c-2.9-3.9-5.9-7.8-8.8-11.7c-5.4-7.4-10.5-15.1-16.2-22.4c-0.5-0.6-0.9-1.1-1.7-1.1
				c-1.4,0-2.1,1.5-1.3,2.7C298,106.6,299.2,107.9,300.1,109.3z"/>
			<path class="st1" d="M307.3,167.3c-1.4-0.8-2.8-1.5-4.3-2.1c-8.1-3.6-16.5-6.4-24.8-9.6c-0.2-0.1-0.4-0.1-0.5-0.1
				c-0.9,0-1.5,0.4-1.8,1c-0.3,0.7-0.1,1.5,0.5,1.9c0.5,0.4,1.1,0.7,1.7,0.9c9.2,3.7,18.5,6.9,27.4,11.4c1.3,0.6,2.4,0.4,2.9-0.6
				C309,169.1,308.6,168,307.3,167.3z"/>
			<path class="st1" d="M303.2,236.8c-0.4,0.1-0.8,0.4-1.1,0.6c-4.1,2.7-8.1,5.4-11.9,8.5c-0.6,0.5-1.2,0.8-1.6,1.4
				c-0.4,0.6-0.5,1.2-0.2,1.8c0.3,0.6,0.8,0.9,1.5,0.9c0.5,0,0.9-0.2,1.7-0.8c4.1-3.2,8.5-6.1,12.9-8.9c0.3-0.2,0.5-0.3,0.7-0.6
				c0.6-0.7,0.8-1.5,0.2-2.3C304.9,236.8,304.1,236.5,303.2,236.8z"/>
			<path class="st1" d="M355.6,134c0.2,1,0.9,1.5,1.9,1.4c0.9-0.1,1.5-0.9,1.4-2.5c-0.5-2.2-1-5-1.6-7.8c-0.3-1.2-1.2-1.7-2.2-1.5
				c-1,0.2-1.5,1.2-1.3,2.3C354.4,128.7,355,131.4,355.6,134z"/>
			<path class="st1" d="M379.9,185.7c-6.3-1.3-12.3-3.2-18-6l0,0c-0.1,0.1-0.2,0.2-0.2,0.3c0.7,3.1-0.9,5.6-2.4,8.1
				c-2.8,4.8-6.1,9.2-9.3,13.7c-1.4,2-2.6,4.1-4.4,5.8c-0.9,0.9-1.8,1.4-3,1.3l0,0l0,0c0.3,0.4,0.6,0.8,1,1.1c2.1,2,4.4,3.9,6.4,6
				c3.2,3.2,6,6.6,8.6,10.3c1.8-2.1,3.3-4.3,4.7-6.6c4.9-7.4,9.8-14.9,13.1-23.2c1.3-3.1,2.6-6.2,3.7-9.4c0.2-0.5,0.2-0.9-0.2-1.2
				C380,185.7,379.9,185.7,379.9,185.7L379.9,185.7z"/>
			<path class="st5" d="M345.6,207.5c1.8-1.7,3-3.8,4.4-5.8c3.2-4.5,6.5-8.9,9.3-13.7c1.4-2.5,3-5,2.4-8.1c0-0.1,0.1-0.2,0.2-0.3
				l0,0c-0.5-0.4-1-0.9-1.6-1.1c-1.8-0.5-3.3,0.2-4.5,1.4c-2,1.9-3.7,4.2-5.4,6.4c-4,5.2-7,11-9.6,17c-0.9,2.1-0.2,4.2,1.9,5.3l0,0
				C343.8,208.9,344.7,208.4,345.6,207.5z"/>
		</g>
		<path class="st0" d="M417.6,264.1c-2.8,3.9-6.1,7.4-9.8,10.3c2.1-0.7,4.3-1.4,6.4-2c0.9-0.3,2-0.5,2.7,0.1
			c1.1,0.9,0.4,2.6-0.5,3.8c-2.2,2.9-4.8,5.3-7.8,7.3c1.5-0.3,2.6-1.3,4-1.8c1.4-0.6,3.2-0.5,4,0.7c0.5,0.9,0.3,2.1-0.3,2.9
			c-0.6,0.9-1.4,1.5-2.2,2.1c-3.4,2.8-6.2,6.4-7.9,10.5c-0.6,1.4-1.2,2.9-2.6,3.5c-0.9,0.4-2,0.2-2.9-0.2c-1.7-0.9-2.7-2.8-3-4.7
			s0.4-3.8,0.4-5.8c0.1-8.6,2.9-14.9,6.3-20.9C406.2,266.9,414.7,259.6,417.6,264.1z"/>
		<g id="_x36_TlqCT_3_">
			<g>
				<path class="st6" d="M665,563.7c7.8,20.8,17.2,41,25.3,61.6c6.8,17.3,13.4,34.8,16.2,53.4c2,13,3.3,26.2,5,39.3
					c0.6,4.8,1.5,9.6,3.2,14.2c4.1,11.5,6.2,23.5,8.4,35.4c0.4,1.9,0.4,3.9,0.3,5.9c-0.2,5.8-2.6,8.6-8.3,9
					c-13.4,0.8-26.9-0.3-40.3-0.8c-5-0.2-9.9-0.6-14.9-0.9c-2.8-0.3-5.5-0.6-8.2,0.1c-1.9,0.5-3.9,0.1-5.9,0
					c-12.1-1-24.2-2.6-36.3-2.8c-1.8,0-3.8,0.2-5.3-1.2c-6.9-0.8-13.9-0.4-20.9-0.5c-5.3,1.9-10.8,0.8-16.1,0.4
					c-3.3-0.2-6.7-0.7-10-0.7c-8.5,0.2-16.8-1.3-25.3-1.4c-1.3,0-2.5-0.2-3.5-1.3c-8-1.2-16.1-1.8-23.9-3.8c-13.2-3.3-26.6-3.4-40-4
					c-9.3-0.4-10.1-1.8-7.9-10.8c4.7-18.7,8.5-37.7,13.2-56.4c16.3-63.7,35.5-126.3,62.3-186.4c2.8-6.2,4.7-12.8,7.9-18.9
					c7.9,3,16.2,1.8,24.3,2.4c6.3,0.4,12.5-0.6,18.7-1.1c6.2-0.5,12.2,0.6,18.3,0.9c11.7,0.5,22.6,4.8,34.1,6.3
					c3.9,3.1,6.2,7.4,8.2,11.7c2,4.4,3.8,8.9,5.6,13.4c0.4,1.1,0.8,2.2,0.4,3.3c-0.9,1.4-2.1,0.6-3.1,0.3c-2.1-0.7-4.2-1.4-6.3-1.8
					c-0.9-0.2-1.9-0.3-2.5,0.6c-0.7,1-0.2,2,0.3,2.9c0.5,0.8,1.2,1.4,1.8,2.1c0.7,0.7,1.8,1.4,1.4,2.6c-0.3,0.9-1.5,0.9-2.5,1
					c-6.4,0.7-12.4,2.9-18.4,5c-2,0.7-3.8,1.7-5.3,3.2c-1.8,1.9-1.4,3.3,1.1,3.9c0.5,0.1,0.9,0.1,1.4,0.2c0.9,0.1,2.1,0.1,2.4,1.1
					c0.5,1.2-0.6,1.9-1.4,2.5c-1.5,1.2-2.9,2.3-4.1,3.8c-0.9,1.2-2.1,2.5-1,4c1,1.4,2.5,0.7,3.8,0.3c1.5-0.4,2.8-1.2,4.2-1.7
					c2.3-0.7,3-0.2,2.8,2.2c-0.5,4.8,0.7,6,5.5,4.6c8-2.4,16.2-3.9,24.5-4.5C657.9,561.8,661.6,561.6,665,563.7z"/>
				<path class="st3" d="M560.3,202.4c5.5-5.9,12.5-8.3,20.3-9.3c13.1-1.6,23.6,4,33.4,11.6c3.6,2.7,6.9,5.8,10.2,8.9
					c4.8,4.4,8.2,9.9,9.7,16.2c2.7,11.6,7.1,22.8,10.1,34.3c2.1,8,5.2,15.6,9.6,22.6c8.1,13,13.5,27.1,16.4,42.1
					c1.1,5.5,2.6,10.8,3.9,16.2c2.4,5.7,3,11.6,2.1,17.7c-1.9,13-7.9,24.1-15.5,34.6c-4.8,6.7-9.8,13.3-13.7,20.5
					c-2.4,4.5-4.5,9.2-6.2,14c-3.6,10.6-9.1,19.8-18.6,26.2c-6.5,4.4-11.1,10.6-15.3,17c-4,6.1-9.6,8.8-16.6,9.1
					c-4.3,0.2-8.4,1.1-12.4,2.9c-7.6,3.4-11.9,1.9-15.6-5.5c-2.4-4.7-3.3-9.9-3.7-15.1c-0.2-2.8-0.4-5.6-1.4-8.2
					c-5.4-14-4.8-28.1-1.9-42.5c2.8-13.9,4.7-27.9,4.7-42.1c0-9.7-0.2-19.5-1.1-29.1c-0.3-2.8,0-5.6,0-8.3c0.2-11,2.6-21.5,6.4-31.8
					c3.2-8.8,6.1-17.7,8.3-26.8c1.8-8.2,2.7-16.4,3.4-24.8c0.7-8.7,1.1-17.4,1.1-26c0-7.4-0.5-14.8-1.9-22.1
					c-0.6-3.4-1.2-3.8-4.7-3.3c-2.4,0.3-4.8,0.8-7.2,1.4C562.9,203,561.5,203.5,560.3,202.4z"/>
				<path class="st7" d="M559.7,336.1c0,14.6,1.7,29.1,1,43.7c-0.6,12.2-2.2,24.4-4.6,36.4c-2.7,13.4-3.8,26.8,1.4,39.9
					c2.2,5.6,1.5,11.6,2.9,17.4c0.8,3.3,1.8,6.4,3.5,9.4c2.7,4.5,5.6,6.3,10.3,4.3c6.7-2.9,13.7-3.8,20.8-4.7c3.9-0.5,7.1-2.7,9.4-6
					c5.8-8.5,12.1-16.3,20.7-22.2c6.4-4.4,10.3-11.1,12.8-18.3c4.7-13.4,11.5-25.4,20-36.8c7.2-9.7,13.4-19.9,16.3-31.9
					c1.9-7.6,0.5-14.9-0.3-22.3c4.3,1.8,8.5,3.7,12.8,5.5c7.2,3.2,12.2,8.7,16.2,15.2c5.2,8.5,11.2,16.5,15.6,25.5
					c1.7,3.4,2.8,6.9,3.1,10.6c0.2,3.3-2.2,4.6-4.7,5.8c-1.5,2.3-4,3.4-6.3,4.8c-10.9,6.4-22,12.2-33.2,18c-1.2,0.8-2.4,1.4-3.7,1.9
					c-4.8,2-7.1,1.1-9-3.6c-0.3-0.8-0.5-1.5-1.1-2.9c-2.5,6-4.6,11.7-6.4,17.5c-5,15.7-10,31.3-15.2,47c-1.4,4.3-2.7,8.9-6.2,12.2
					c-5.5-0.4-10.9-1.5-16.2-3.1c-8-2.4-16.3-2.8-24.6-3.5c-14.8-1.3-29.5,1.9-44.3,0.6c-3.9-0.4-7.6-0.4-10.7-3.2
					c-3.8-7.3-5.7-15.4-8.2-23.2c-1.2-3.7-0.6-8-0.7-12.1c-0.1-1.8,0.1-3.7-1.2-5.3c-1.1-6.6-1.8-13.2-2.7-19.8
					c-0.5-3.8-0.7-3.9-4.2-2.1c-3.8,2-4.8,1.8-6.9-1.8c-0.4-3.7-1.9-7.1-3.3-10.5C508.6,407,504,396,498,385.5
					c-2.4-4.4-4-8.9-2.3-14c4.2-5.5,9.2-10,14.7-14.2c5.8-4.3,11.4-8.8,16.4-13.9c4.9-5,10.8-7.5,17.8-7.1c2.1,0.1,3.7-1,5.6-1.3
					c2,0.8,4,0.8,6.1,0.6C557.6,335.6,558.7,335.2,559.7,336.1z"/>
				<path class="st0" d="M528.4,773.3c18.3,1,36.6,1.9,54.9,2.9c-1.1,6.1-2.2,12.2-3.2,18.3c-1.3,8.3-2.6,16.6-3.9,24.9
					c-1.3,8.7-2.5,17.3-3.7,26c-1.4,9.9-2.8,19.8-4,29.8c-0.8,6.2-1.4,12.4-2,18.6c-1.2,11.6-2.4,23.2-3.6,34.8
					c-0.8,7.6-1.5,15.2-2.2,22.7c-1.1,0.8-2.4,0.8-3.6,0.8c-9.3-0.2-18.7-0.4-28-0.7c-1.4,0-2.8,0-3.8-1.3
					c2.3-39.5,2.8-79,3.4-118.5c0.3-15.8-0.4-31.7-0.2-47.5C528.6,780.5,528.1,776.9,528.4,773.3z"/>
				<path class="st0" d="M604.1,776.7c9.7,0,19.3,0.8,29,1.8c6.6,0.7,13.3,1,20,1.5c2.3,0.2,4.6-0.3,6.8,0.7c-7.1,0.3-7,0.3-7.3,7.7
					c-0.6,11.3-0.1,22.7,0.1,34c0.2,12.1,0.5,24.2,1.2,36.3c0.9,17.6,1.8,35.2,4,52.7c1.4,10.7,1.9,21.6,3.5,32.3
					c0.3,2,1.6,3.2,2.1,4.9c-10.7,0.9-21,3.3-31,6.9c-1,0.4-2.2,0.9-3.3-0.1c-1-13.9-3.4-27.6-5.4-41.4c-2.4-15.9-5.1-31.8-7.1-47.8
					c-1.6-12.2-3.8-24.3-5.6-36.5c-2.1-13.9-4.6-27.7-5.7-41.7C604.9,784.2,604.5,780.5,604.1,776.7z"/>
				<path class="st0" d="M677.3,429.5c13.4-6.9,26.8-13.9,39.7-21.9c0,3.3,2.1,5.9,3.4,8.6c6.5,13.3,13,26.6,18.7,40.3
					c3.5,8.3,0.8,14.9-3.8,21.6c-9.4,13.6-20,26.3-30.4,39.1c-6.8,8.3-12.6,17.4-19.9,25.4c-5.4,5.9-10.1,12.4-16.6,17.2
					c-1.3,1-2.3,2.6-3.4,3.9c-11.3-1.9-22.3,0.3-33.1,3.3c-1.1,0.3-2.2,0.6-3.3,0.9c-1.8,0.5-3.5,0.5-4.8-1
					c-1.3-1.5-1.1-3.2-0.4-4.9c0.3-0.6,1-1.1,0.3-2c-2.5,1-5,2-7.6,2.9c-1.4,0.5-2.8,0.5-3.8-0.8c-0.9-1.3-0.6-2.7,0.2-3.9
					c1.9-2.8,4.6-4.8,7.6-7.2c-1.8,0-3-0.1-4.2-0.1c-1.4,0-2.5-0.4-3.1-1.8c-0.6-1.4,0-2.5,0.8-3.5c1.3-1.5,3-2.5,4.8-3.3
					c7.1-2.9,14.3-5.4,21.6-5.9c-1-1.2-2.1-2.6-3.2-4c-1-1.3-1.6-2.7-0.7-4.1c0.9-1.4,2.3-1.2,3.8-0.8c2.6,0.5,5.1,1.3,7.6,2.4
					c0.6,0.3,1.1,1,1.8,0.1c0.3-0.1,0.7-0.3,1-0.2c6,2.2,9.2-1.5,12.2-5.8c6.4-9.4,12.1-19.2,19.3-28c6.4-7.8,12.7-15.6,18.1-24.2
					c1.8-2.9,2-4.9-0.1-7.7c-7.9-10.4-14.8-21.3-21.8-32.3C677.8,430.9,677.3,430.3,677.3,429.5z"/>
				<path class="st0" d="M560.3,202.4c4.3-0.6,8.5-2.2,12.9-2.5c2.7-0.2,3.4,0.4,3.9,3.4c2.4,13.8,2.4,27.6,1.5,41.5
					c-0.8,11.1-1,22.4-4.2,33.3c-2.2,4.7-6.3,7.7-10.1,10.8c-3.4,2.8-6.9,5.4-11,7.1c-6.9,3.8-14,3.5-21.2,1.3
					c-4.4-1.4-7.5-4.4-8.7-9.1c-1.1-5.3-3-10.5-2.5-16.1c1.4-1.8,3.6-1.8,5.6-2.3c3.6-1,3.7-1.3,1.3-4c-1.6-1.8-3.7-3.1-4.5-5.5
					c2.9-4.8,2.1-9.1-1.9-13c-2.2-2.1-3.6-4.8-4.4-7.8c-0.8-3.3,0.8-6.5,4-6.9c8.8-1.2,14-7.1,19.5-13.2
					C546.4,212.7,552.6,206.6,560.3,202.4z"/>
				<path class="st8" d="M525.4,950.1c10.3,0.3,20.6,0.5,30.9,0.8c1.5,0,3,0.3,4.5,0.4c1.5,3.2,0.9,6.6,0.5,9.9
					c-1.4,12.4-3,24.8-4.5,37.2s-2.8,24.8-4.1,37.3c-0.2,1.8-0.4,3.5-1.2,5c-0.7,1.3-1.9,2.1-3.4,1.9c-1.6-0.1-2.3-1.2-2.7-2.7
					c-0.5-1.8-0.4-3.7-0.4-5.5c0.1-4.7,0.2-9.4,0.3-14.5c-7.9,4.4-11.3,11.3-12.9,19.4c-1.4,7.5-1.8,8.1-9.2,9.6
					c-8.3,1.7-16.7,2.3-25.1,3.1c-1.7,0.2-3.5-0.1-5.2-0.3c-2.5-0.3-3.8-1.7-4.2-4.3c-0.5-4.3-0.3-8.6,0.4-12.8
					c0.6-3.6,3.5-5.3,6-7.3c4.3-3.4,8.8-6.4,12.6-10.4c8.8-9.3,14.3-20.1,14.7-33.1c0.3-10.1,0.5-20.2,0.7-30.3
					C523.1,951.7,523.6,950.5,525.4,950.1z"/>
				<path class="st8" d="M629,955.5c9.4-3.1,18.9-5.8,28.7-7.3c1.9-0.3,3.9-1,5.6,0.5c1.9,5.9,0.7,11.9,1.1,17.9
					c1.2,16.5,2,33,3.9,49.5c0.3,2.5,0.3,5.1,0.3,7.6c0,2.2-1.4,3.5-3.4,3.8c-2.2,0.3-2.7-1.5-3-3.1c-1.1-5.7-2-11.4-3.1-17.5
					c-4,4.2-7,8.3-7.3,13.9c-0.2,3.7-0.2,7.4,0.3,11.1c0.3,2.2,0.5,4.6-0.8,6.4c-8.1,11.1-17.9,19.9-31.7,23.4
					c-1.9,0.5-3.9,0.5-5.9,0.6c-3,0.1-5.4-0.7-6.1-4.3c-0.5-2.3-1.4-4.7-2.5-6.8c-2.1-4-0.8-7.3,1.4-10.7
					c4.3-6.6,9.5-12.5,13.5-19.3c7.8-13.1,9.2-27.4,8.2-42.2c-0.4-6.1-0.8-12.2-1.8-18.3C625.9,958.4,626.9,956.5,629,955.5z"/>
				<path class="st3" d="M523.4,288c7.2,10.3,18.2,12.8,29.7,6.9c2.3-0.6,2.2,1.2,2.3,2.4c0,6.7,0.3,13.4-0.6,20
					c-0.7,5-2.2,9.9-3.2,14.9c-0.2,1.1-0.5,2.3-1.6,3c-0.7,1.4-1.7,2.2-3.5,2c-8.1-0.7-14.8,2.1-20.4,8.1
					c-7,7.5-15.8,12.7-23.3,19.6c-2.3,2.1-3.9,4.9-6.5,6.6c-0.8,0-1-0.4-1-1c0.2-5.1-0.1-10.2,0.6-15.2c0.5-16.2,3.4-31.6,13.9-44.8
					C515.2,303.6,519.2,295.7,523.4,288z"/>
				<path class="st3" d="M498,437.8c6.1-3.1,12.3-6.3,18.4-9.4c1.7,3.1,3.7,3.3,6.6,1.3c4.2-2.9,4.4-2.7,5,2.2
					c0.8,5.9,1.5,11.8,2.3,17.7c0.2,1.1-0.1,2-0.5,3c-3.4,2.8-6.7,5.7-10.1,8.5c-4.7,4-9.1,4-13.5-0.5c-4.8-5-6.5-11.3-7.6-17.9
					C498.5,441,498.3,439.4,498,437.8z"/>
				<path class="st9" d="M523.3,260c2.6,2.8,5.1,5.6,7.8,8.6c-2.9,2.2-6.8,2-10.2,3.3c-2.5-1.1-2.8-2.9-1-4.8
					c1.1-1.2,1.4-1.9,0.8-3.5C519.8,261.4,520.8,260,523.3,260z"/>
				<path class="st10" d="M495.9,355.3c-0.1,4.4-0.2,8.7-0.2,13c0,1.1-0.4,2.3,0.6,3.2c-1.6,3.4-0.7,6.6,0.8,9.8
					c0.6,1.3,1.5,2.6,1.6,4.1c-1.2,0.8-2.5,1.5-4.3,2.7c0.1-4.1,0.2-7.6,0.3-11.1c0.2-5.9,0.4-11.8,0.6-17.7
					C495.3,357.9,495,356.5,495.9,355.3z"/>
				<path class="st11" d="M550,335.2c0.6-3,0.8-6.2,1.8-9.1c2.9-9.2,2.5-18.7,2.7-28.1c0-1.1,0.7-2.7-1.3-3.1
					c8.5-3.9,15-10.1,21.2-16.9c-1.8,8.1-4.4,16-7.3,23.8c-4.1,11.1-7.1,22.4-7.4,34.3c-2.5,0.5-5,0.7-7.5,0.6
					C551.2,336.6,550.1,336.6,550,335.2z"/>
				<path class="st3" d="M570.5,224.6c-2.6-4.4-5.9-7.3-10.1-9.2c-0.6-0.3-1.3-0.8-1-1.6c0.4-1,1.4-1.1,2.3-1.1
					C565.9,213.1,571,219.5,570.5,224.6z"/>
				<path class="st12" d="M559,230.4c-0.1,1.5-0.8,3.1-2.9,3.2c-2,0.1-2.9-1.1-2.9-3c0-2,1-3.2,3.1-3.3
					C558.2,227.2,559,228.3,559,230.4z"/>
			</g>
		</g>
	</g>
</g>
</svg>
