<svg height="512pt" viewBox="-39 0 512 512" width="512pt" xmlns="http://www.w3.org/2000/svg"><path d="m52.503906 247.5 15 90c24.851563 0 45-20.148438 45-45zm0 0" fill="#808080"/><path d="m22.503906 292.5c0 24.851562 20.144532 45 45 45v-90zm0 0" fill="#999"/><path d="m97.503906 172.5-30-.011719-30 60.003907 30 59.996093 30 .011719 15-60zm0 0" fill="#dbf4ff"/><path d="m67.503906 172.488281-30 .011719-15 60 15 60 30-.011719zm0 0" fill="#fff"/><path d="m27.507812 172.5c-11.046874 0-20 8.953125-20 20l-.003906 133.535156h30v-153.535156zm0 0" fill="#696969"/><path d="m107.503906 172.5h-10v153.535156h30v-133.535156c0-11.046875-8.957031-20-20-20zm0 0" fill="#4f4f4f"/><path d="m352.5 247.5 15 90c24.855469 0 45-20.148438 45-45zm0 0" fill="#808080"/><path d="m322.5 292.5c0 24.851562 20.148438 45 45 45v-90zm0 0" fill="#999"/><path d="m397.5 172.5-30-.011719-30 60.003907 30 59.996093 30 .011719 15-60zm0 0" fill="#dbf4ff"/><path d="m367.5 172.488281-30 .011719-15 60 15 60 30-.011719zm0 0" fill="#fff"/><path d="m327.507812 172.5c-11.046874 0-20 8.953125-20 20l-.007812 133.535156h30v-153.535156zm0 0" fill="#696969"/><path d="m407.5 172.5h-10v153.535156h30v-133.535156c0-11.046875-8.953125-20-20-20zm0 0" fill="#4f4f4f"/><path d="m67.503906 52.488281v90c24.851563 0 45-20.148437 45-45 0-24.855469-20.148437-45-45-45zm0 0" fill="#ffb4a9"/><path d="m82.503906 97.488281c0-24.855469-6.71875-45-15-45-24.855468 0-45 20.144531-45 45 0 24.851563 20.144532 45 45 45 8.28125 0 15-20.148437 15-45zm0 0" fill="#ffd9d4"/><path d="m247.5 172.5h-30l-35 120h80zm0 0" fill="#dbf4ff"/><path d="m187.5 172.5-15 120h45v-120zm0 0" fill="#fff"/><path d="m262.5 262.5h-45l-30 45 30 45h30zm0 0" fill="#808080"/><path d="m172.5 262.5 15 90h30v-90zm0 0" fill="#999"/><path d="m257.496094 172.5h-9.996094v180h30v-160c0-11.046875-8.960938-20-20.003906-20zm0 0" fill="#4f4f4f"/><path d="m177.507812 172.5c-11.046874 0-20 8.953125-20 20l-.007812 160h30v-180zm0 0" fill="#696969"/><path d="m251.757812 68.335938c.007813-.011719-34.257812-.007813-34.257812-.007813v74.171875c24.851562 0 45-20.152344 45-45 0-11.121094-4.042969-21.316406-10.742188-29.164062zm0 0" fill="#a45e43"/><path d="m231.390625 80.507812-48.144531-12.171874c-6.699219 7.847656-10.746094 18.042968-10.746094 29.164062 0 24.847656 20.152344 45 45 45 8.28125 0 15-20.152344 15-45 0-6.011719-.386719-11.75-1.109375-16.992188zm0 0" fill="#c27749"/><path d="m217.5 52.5 13.890625 28.007812c7.449219-2.226562 14.476563-6.292968 20.367187-12.171874-8.25-9.691407-20.535156-15.835938-34.257812-15.835938zm0 0" fill="#40211d"/><path d="m217.5 52.5c-13.71875 0-26.003906 6.144531-34.253906 15.835938 13.039062 13.039062 31.644531 17.105468 48.144531 12.171874-2.230469-16.429687-7.609375-28.007812-13.890625-28.007812zm0 0" fill="#60312c"/><path d="m245 22.5c0-8.285156-6.714844-15-15-15-5.21875 0-9.8125 2.671875-12.5 6.714844-2.683594-4.042969-7.277344-6.714844-12.5-6.714844-8.28125 0-15 6.714844-15 15-8.28125 0-15 6.714844-15 15s6.71875 15 15 15h55c8.285156 0 15-6.714844 15-15s-6.714844-15-15-15zm0 0" fill="#60312c"/><path d="m394.5 61.488281h-27v81c24.851562 0 45-20.152343 45-45 0-14.71875-7.070312-27.800781-18-36zm0 0" fill="#ffa754"/><path d="m380.699219 76.128906c1.152343 6.359375 1.800781 13.628906 1.800781 21.359375 0 24.847657-6.71875 45-15 45-24.847656 0-45-20.152343-45-45zm0 0" fill="#ffcb63"/><path d="m394.5 61.488281c-4.039062 5.378907-8.667969 10.289063-13.800781 14.640625l-13.199219-23.640625c10.121094 0 19.480469 3.347657 27 9zm0 0" fill="#60312c"/><path d="m322.5 97.488281c0-24.851562 20.152344-45 45-45 5.699219 0 10.671875 9.558594 13.199219 23.640625-15.6875 13.320313-36.007813 21.359375-58.199219 21.359375zm0 0" fill="#85453d"/><path d="m129.875 497.382812-24.871094-8.289062v-155.558594h22.5c4.140625 0 7.5-3.359375 7.5-7.5v-133.535156c0-15.164062-12.335937-27.5-27.5-27.5h-39.769531c-.078125-.003906-.152344-.011719-.230469-.011719s-.15625.007813-.234375.011719h-39.765625c-15.164062 0-27.49999975 12.335938-27.49999975 27.5v133.535156c0 4.140625 3.35546875 7.5 7.49999975 7.5h22.5v155.558594l-24.875 8.289062c-3.929687 1.308594-6.050781 5.558594-4.742187 9.488282 1.046875 3.140625 3.972656 5.128906 7.113281 5.128906.785156 0 1.585938-.125 2.375-.386719l30-10c3.0625-1.019531 5.125-3.886719 5.125-7.113281v-154.574219c6.972656 3.3125 14.640625 5.074219 22.5 5.074219s15.527344-1.765625 22.5-5.074219v154.574219c0 3.226562 2.066406 6.09375 5.128906 7.113281l30 10c.789063.261719 1.585938.386719 2.375.386719 3.136719 0 6.0625-1.988281 7.113282-5.128906 1.308593-3.929688-.8125-8.179688-4.742188-9.488282zm-9.871094-304.882812v126.035156h-15v-138.535156h2.5c6.890625 0 12.5 5.605469 12.5 12.5zm-75-12.5h15v82.488281c0 4.140625 3.355469 7.5 7.5 7.5 4.140625 0 7.5-3.359375 7.5-7.5v-82.488281h15v105h-45zm-30 138.535156v-126.035156c0-6.894531 5.605469-12.5 12.5-12.5h2.5v138.535156zm52.5 11.464844c-8.160156 0-16.035156-2.648438-22.5-7.503906v-22.496094h45v22.496094c-6.46875 4.855468-14.339844 7.503906-22.5 7.503906zm0 0"/><path d="m429.871094 497.382812-24.871094-8.289062v-155.558594h22.5c4.144531 0 7.5-3.359375 7.5-7.5v-133.535156c0-15.164062-12.335938-27.5-27.5-27.5h-39.765625c-.078125-.003906-.15625-.011719-.234375-.011719s-.152344.007813-.230469.011719h-39.769531c-15.160156 0-27.5 12.335938-27.5 27.5v133.535156c0 4.140625 3.359375 7.5 7.5 7.5h22.5v155.558594l-24.871094 8.289062c-3.929687 1.308594-6.050781 5.558594-4.742187 9.488282 1.046875 3.140625 3.972656 5.128906 7.113281 5.128906.785156 0 1.585938-.125 2.375-.386719l30-10c3.0625-1.019531 5.125-3.886719 5.125-7.113281v-154.574219c6.972656 3.3125 14.640625 5.074219 22.5 5.074219s15.527344-1.765625 22.5-5.074219v154.574219c0 3.226562 2.066406 6.09375 5.128906 7.113281l30 10c.785156.261719 1.585938.386719 2.371094.386719 3.144531 0 6.066406-1.988281 7.117188-5.128906 1.308593-3.929688-.8125-8.179688-4.746094-9.488282zm-9.871094-304.882812v126.035156h-15v-138.535156h2.5c6.894531 0 12.5 5.605469 12.5 12.5zm-75-12.5h15v82.488281c0 4.140625 3.359375 7.5 7.5 7.5 4.144531 0 7.5-3.359375 7.5-7.5v-82.488281h15v105h-45zm-30 138.535156v-126.035156c0-6.894531 5.609375-12.5 12.5-12.5h2.5v138.535156zm52.5 11.464844c-8.160156 0-16.03125-2.648438-22.5-7.503906v-22.496094h45v22.496094c-6.464844 4.855468-14.339844 7.503906-22.5 7.503906zm0 0"/><path d="m67.503906 149.988281c28.949219 0 52.5-23.554687 52.5-52.5 0-28.949219-23.550781-52.5-52.5-52.5-28.949218 0-52.5 23.550781-52.5 52.5 0 28.945313 23.550782 52.5 52.5 52.5zm0-90c20.675782 0 37.5 16.820313 37.5 37.5 0 20.675781-16.824218 37.5-37.5 37.5-20.679687 0-37.5-16.824219-37.5-37.5 0-20.679687 16.820313-37.5 37.5-37.5zm0 0"/><path d="m279.875 497.382812-24.875-8.289062v-129.09375h22.5c4.144531 0 7.5-3.359375 7.5-7.5v-160c0-15.164062-12.335938-27.5-27.5-27.5h-80c-15.160156 0-27.496094 12.335938-27.496094 27.5v160c0 4.140625 3.355469 7.5 7.496094 7.5h22.5v129.09375l-24.871094 8.289062c-3.929687 1.308594-6.050781 5.558594-4.742187 9.488282 1.046875 3.140625 3.972656 5.128906 7.113281 5.128906.785156 0 1.585938-.125 2.371094-.386719l30-10c3.066406-1.019531 5.128906-3.886719 5.128906-7.113281v-134.5h45v134.5c0 3.226562 2.066406 6.09375 5.128906 7.113281l30 10c.785156.261719 1.585938.386719 2.371094.386719 3.140625 0 6.066406-1.988281 7.117188-5.128906 1.308593-3.929688-.8125-8.179688-4.742188-9.488282zm-9.875-304.882812v152.5h-15v-165h2.5c6.894531 0 12.5 5.605469 12.5 12.5zm-75-12.5h15v52.5c0 4.140625 3.359375 7.5 7.5 7.5 4.144531 0 7.5-3.359375 7.5-7.5v-52.5h15v75h-45zm-30 165v-152.5c0-6.894531 5.609375-12.5 12.5-12.5h2.5v165zm30 0v-75h45v75zm0 0"/><path d="m177.972656 63.007812c-.273437.269532-.492187.535157-.695312.804688-7.65625 9.121094-12.277344 20.875-12.277344 33.6875 0 28.949219 23.554688 52.5 52.5 52.5 28.949219 0 52.5-23.550781 52.5-52.5 0-12.8125-4.621094-24.566406-12.273438-33.6875-.203124-.269531-.421874-.53125-.667968-.777344-1.371094-1.566406-2.796875-3.035156-4.308594-4.410156 8.597656-3.164062 14.75-11.441406 14.75-21.125 0-10.136719-6.734375-18.726562-15.964844-21.53125-2.804687-9.234375-11.398437-15.96875-21.535156-15.96875-4.523438 0-8.851562 1.351562-12.5 3.789062-3.644531-2.4375-7.972656-3.789062-12.5-3.789062-10.132812 0-18.726562 6.734375-21.53125 15.96875-9.230469 2.804688-15.96875 11.394531-15.96875 21.53125 0 9.683594 6.152344 17.960938 14.753906 21.125-1.511718 1.375-2.9375 2.84375-4.28125 4.382812zm39.527344 71.992188c-20.675781 0-37.5-16.824219-37.5-37.5 0-6.566406 1.703125-12.742188 4.683594-18.117188 9.75 7.074219 21.28125 10.617188 32.816406 10.617188s23.070312-3.542969 32.820312-10.617188c2.980469 5.375 4.679688 11.550782 4.679688 18.117188 0 20.675781-16.820312 37.5-37.5 37.5zm-23.019531-67.070312c6.359375-4.960938 14.347656-7.929688 23.019531-7.929688 8.675781 0 16.664062 2.96875 23.023438 7.929688-13.839844 9.421874-32.207032 9.421874-46.042969 0zm-4.480469-22.929688c-4.132812 0-7.5-3.363281-7.5-7.5s3.367188-7.5 7.5-7.5c4.144531 0 7.5-3.355469 7.5-7.5 0-4.136719 3.367188-7.5 7.5-7.5 2.519531 0 4.855469 1.257812 6.253906 3.363281 1.390625 2.09375 3.734375 3.351563 6.246094 3.351563 2.515625 0 4.859375-1.257813 6.25-3.351563 1.398438-2.105469 3.734375-3.363281 6.25-3.363281 4.136719 0 7.5 3.363281 7.5 7.5 0 4.144531 3.359375 7.5 7.5 7.5 4.136719 0 7.5 3.363281 7.5 7.5s-3.363281 7.5-7.5 7.5zm0 0"/><path d="m367.5 149.988281c28.949219 0 52.5-23.554687 52.5-52.5 0-16.863281-8-31.886719-20.394531-41.496093-.1875-.175782-.386719-.339844-.597657-.5-.179687-.136719-.367187-.257813-.558593-.375-8.6875-6.363282-19.382813-10.128907-30.949219-10.128907-28.945312 0-52.5 23.550781-52.5 52.5s23.554688 52.5 52.5 52.5zm37.5-52.5c0 20.675781-16.820312 37.5-37.5 37.5-18.226562 0-33.453125-13.078125-36.804688-30.339843 25.03125-2.054688 47.914063-13.496094 64.605469-32.300782 6.023438 6.65625 9.699219 15.476563 9.699219 25.140625zm-37.5-37.5c5.585938 0 10.882812 1.234375 15.648438 3.433594-13.71875 14.933594-32.144532 24.144531-52.296876 26.144531 3.644532-16.882812 18.6875-29.578125 36.648438-29.578125zm0 0"/></svg>