<?xml version="1.0" encoding="iso-8859-1"?>
<!-- Generator: Adobe Illustrator 19.0.0, SVG Export Plug-In . SVG Version: 6.00 Build 0)  -->
<svg version="1.1" id="Capa_1" xmlns="http://www.w3.org/2000/svg" xmlns:xlink="http://www.w3.org/1999/xlink" x="0px" y="0px"
	 viewBox="0 0 512.002 512.002" style="enable-background:new 0 0 512.002 512.002;" xml:space="preserve">
<g>
	<polygon style="fill:#DE4C3C;" points="140.417,282.213 63.821,469.447 123.396,452.426 148.928,503.489 225.523,324.766 	"/>
	<polygon style="fill:#DE4C3C;" points="327.651,273.702 242.545,324.766 319.14,503.489 344.672,452.426 404.247,469.447 	"/>
</g>
<g>
	<polygon style="fill:#C74436;" points="140.417,282.213 112.247,351.064 113.694,351.489 131.906,408 189.949,395.574 
		193.694,398.979 225.523,324.766 	"/>
	<polygon style="fill:#C74436;" points="242.545,324.766 274.374,398.979 278.119,395.574 336.162,408 354.374,351.489 
		357.694,350.468 327.651,273.702 	"/>
</g>
<g>
	<polygon style="fill:#FDB62F;" points="234.034,9.872 278.119,49.702 336.162,37.191 354.374,93.787 410.885,112 398.46,170.043 
		438.289,214.128 398.46,258.213 410.885,316.255 354.374,334.468 336.162,390.979 278.119,378.553 234.034,418.383 
		189.949,378.553 131.906,390.979 113.694,334.468 57.098,316.255 69.609,258.213 29.779,214.128 69.609,170.043 57.098,112 
		113.694,93.787 131.906,37.191 189.949,49.702 	"/>
	<path style="fill:#FDB62F;" d="M446.8,77.957L446.8,77.957c-2.894-17.464-16.579-31.149-34.043-34.043l0,0
		c17.464-2.894,31.149-16.579,34.043-34.043l0,0c2.894,17.464,16.579,31.149,34.043,34.043l0,0
		C463.379,46.809,449.694,60.494,446.8,77.957z"/>
</g>
<path style="fill:#FFA83D;" d="M438.289,214.128l-39.83-44.085L410.885,112l-44-14.213
	C319.14,229.617,205.694,304.17,116.757,343.915l15.149,47.064l58.043-12.426l44.085,39.83l44.085-39.83l58.043,12.426
	l18.213-56.511l56.511-18.213l-12.426-58.043L438.289,214.128z"/>
<g>
	<path style="fill:#FFFFFF;" d="M182.97,197.106c-18.8,0-34.043-15.243-34.043-34.043s15.243-34.043,34.043-34.043
		s34.043,15.243,34.043,34.043S201.77,197.106,182.97,197.106z M182.97,146.043c-9.404,0-17.021,7.617-17.021,17.021
		s7.617,17.021,17.021,17.021s17.021-7.617,17.021-17.021S192.374,146.043,182.97,146.043z"/>
	<path style="fill:#FFFFFF;" d="M293.609,307.745c-18.8,0-34.043-15.243-34.043-34.043c0-18.8,15.243-34.043,34.043-34.043
		c18.8,0,34.043,15.243,34.043,34.043C327.651,292.502,312.409,307.745,293.609,307.745z M293.609,256.681
		c-9.404,0-17.021,7.617-17.021,17.021c0,9.404,7.617,17.021,17.021,17.021c9.404,0,17.021-7.617,17.021-17.021
		C310.63,264.298,303.013,256.681,293.609,256.681z"/>
	
		<rect x="149.747" y="205.626" transform="matrix(-0.7071 0.7071 -0.7071 -0.7071 550.8832 200.0906)" style="fill:#FFFFFF;" width="168.509" height="17.021"/>
</g>
<path d="M182.97,197.106c18.8,0,34.043-15.243,34.043-34.043s-15.243-34.043-34.043-34.043s-34.043,15.243-34.043,34.043
	S164.17,197.106,182.97,197.106z M182.97,146.043c9.404,0,17.021,7.617,17.021,17.021s-7.617,17.021-17.021,17.021
	s-17.021-7.617-17.021-17.021S173.574,146.043,182.97,146.043z"/>
<path d="M259.566,273.702c0,18.8,15.243,34.043,34.043,34.043c18.8,0,34.043-15.243,34.043-34.043
	c0-18.8-15.243-34.043-34.043-34.043C274.809,239.66,259.566,254.902,259.566,273.702z M310.63,273.702
	c0,9.404-7.617,17.021-17.021,17.021c-9.404,0-17.021-7.617-17.021-17.021c0-9.404,7.617-17.021,17.021-17.021
	C303.013,256.681,310.63,264.298,310.63,273.702z"/>
<rect x="149.747" y="205.626" transform="matrix(-0.7071 0.7071 -0.7071 -0.7071 550.8832 200.0906)" width="168.509" height="17.021"/>
<path d="M23.481,219.83l36.936,40.851l-11.574,53.787c-1.166,4.409,1.353,8.945,5.702,10.298l51.83,16.17L55.906,466.298
	c-1.055,2.919-0.434,6.179,1.617,8.511c2.153,2.349,5.438,3.302,8.511,2.468l52.851-15.064l22.383,44.766
	c1.362,3.021,4.349,4.979,7.66,5.021l0,0c3.319-0.102,6.281-2.128,7.574-5.191l45.617-105.447l26.213,23.66
	c3.243,2.928,8.162,2.928,11.404,0l23.745-21.447l47.915,103.83c1.489,2.885,4.494,4.664,7.745,4.596l0,0
	c3.208-0.009,6.136-1.821,7.574-4.681l22.383-44.766l52.851,15.404c3.072,0.834,6.357-0.119,8.511-2.468
	c2.051-2.332,2.672-5.591,1.617-8.511l-50.383-126.043l51.83-16.17c4.153-1.345,6.613-5.609,5.702-9.872l-11.574-54.213
	l36.936-40.851c2.928-3.243,2.928-8.162,0-11.404l-36.936-40.851l11.574-53.787c0.911-4.264-1.549-8.528-5.702-9.872l-52.34-17.021
	l-16.511-52.255c-1.345-4.153-5.609-6.613-9.872-5.702l-54.213,11.574L239.736,3.574c-3.243-2.928-8.162-2.928-11.404,0
	l-40.851,36.936l-53.787-11.574c-4.264-0.911-8.528,1.549-9.872,5.702L106.8,86.979L54.46,104c-4.153,1.345-6.613,5.609-5.702,9.872
	l11.574,53.787l-36.936,40.851C20.553,211.762,20.587,216.621,23.481,219.83z M148.332,483.234l-17.021-34.638
	c-1.745-3.906-6.119-5.906-10.213-4.681L78.545,456.17l36.34-90.894l9.191,28.34c1.345,4.153,5.609,6.613,9.872,5.702l53.787-11.574
	l1.277,1.191L148.332,483.234z M346.97,443.915c-3.906-1.089-8.034,0.723-9.872,4.34L319.14,483.83l-42.553-92.596l3.83-3.489
	l53.787,11.574c4.46,1.268,9.115-1.268,10.468-5.702l8.511-28.34l36.426,91.234L346.97,443.915z M75.906,175.745
	c1.847-2.026,2.604-4.809,2.043-7.489l-10.894-50.553l49.277-15.83c2.579-0.843,4.604-2.868,5.447-5.447l15.83-49.277l50.553,10.894
	c2.681,0.562,5.464-0.196,7.489-2.043l38.383-34.638L272.417,56c2.026,1.847,4.809,2.604,7.489,2.043l50.553-10.894l15.83,49.277
	c0.843,2.579,2.868,4.604,5.447,5.447l49.277,15.83l-10.894,50.553c-0.562,2.681,0.196,5.464,2.043,7.489l34.638,38.383
	l-34.638,38.383c-1.847,2.026-2.604,4.809-2.043,7.489l10.894,50.553l-49.277,15.83c-2.579,0.843-4.604,2.868-5.447,5.447
	l-15.83,49.277l-50.553-10.894c-2.681-0.562-5.464,0.196-7.489,2.043l-38.383,34.638l-38.383-34.638
	c-1.557-1.421-3.592-2.204-5.702-2.213h-1.787l-50.553,10.894l-15.83-49.277c-0.843-2.579-2.868-4.604-5.447-5.447l-49.277-15.83
	l10.894-50.553c0.562-2.681-0.196-5.464-2.043-7.489l-34.638-38.213L75.906,175.745z"/>
<path d="M482.204,35.404c-13.762-2.357-24.536-13.132-26.894-26.894c0-4.698-3.813-8.511-8.511-8.511
	c-4.698,0-8.511,3.813-8.511,8.511c-2.357,13.762-13.132,24.536-26.894,26.894c-4.698,0-8.511,3.813-8.511,8.511
	s3.813,8.511,8.511,8.511c13.762,2.357,24.536,13.132,26.894,26.894c0,4.698,3.813,8.511,8.511,8.511
	c4.698,0,8.511-3.813,8.511-8.511c2.357-13.762,13.132-24.536,26.894-26.894c4.698,0,8.511-3.813,8.511-8.511
	S486.911,35.404,482.204,35.404z M446.8,56.085c-3.302-4.749-7.421-8.868-12.17-12.17c4.749-3.302,8.868-7.421,12.17-12.17
	c3.302,4.749,7.421,8.868,12.17,12.17C454.221,47.217,450.102,51.336,446.8,56.085z"/>
<g>
</g>
<g>
</g>
<g>
</g>
<g>
</g>
<g>
</g>
<g>
</g>
<g>
</g>
<g>
</g>
<g>
</g>
<g>
</g>
<g>
</g>
<g>
</g>
<g>
</g>
<g>
</g>
<g>
</g>
</svg>
