<?xml version="1.0" encoding="utf-8"?>
<!-- Generator: Adobe Illustrator 23.0.1, SVG Export Plug-In . SVG Version: 6.00 Build 0)  -->
<svg version="1.1" id="Layer_1" xmlns="http://www.w3.org/2000/svg" xmlns:xlink="http://www.w3.org/1999/xlink" x="0px" y="0px"
	 viewBox="0 0 800 800" style="enable-background:new 0 0 800 800;" xml:space="preserve">
<style type="text/css">
	.st0{fill:#3B3387;}
	.st1{fill:#F7F7F7;}
	.st2{fill:#474EBB;}
	.st3{fill:#3742AA;}
	.st4{fill:#AA6755;}
	.st5{fill:#292949;}
	.st6{fill:#353A85;}
	.st7{fill:#5D66D3;}
	.st8{fill:#F2F2F2;}
	.st9{fill:#EED5D5;}
	.st10{fill:#E5BABA;}
	.st11{opacity:3.000000e-02;enable-background:new    ;}
	.st12{fill:#EAC1A4;}
	.st13{fill:#FFFFFF;}
	.st14{fill:#8CABEF;}
	.st15{fill:#D67086;}
	.st16{fill:#242835;}
	.st17{fill:#D6D6D8;}
	.st18{clip-path:url(#SVGID_3_);}
	.st19{fill:#5C5955;}
	.st20{clip-path:url(#SVGID_5_);}
	.st21{clip-path:url(#SVGID_7_);}
	.st22{clip-path:url(#SVGID_9_);}
	.st23{clip-path:url(#SVGID_11_);}
	.st24{clip-path:url(#SVGID_13_);}
	.st25{clip-path:url(#SVGID_15_);}
	.st26{clip-path:url(#SVGID_17_);}
	.st27{fill:#7786E0;}
</style>
<g id="Object">
	<g>
		<g>
			<path class="st0" d="M554.5,359.3c0,0,23.3,38.4,37.5,38.8c1.8,0,39.8,7.5,39.8,7.5l1.8,11l-50,1.4l-12.8-5.5l-23.9-27.1
				L554.5,359.3z"/>
		</g>
		<g>
			<path class="st1" d="M615.5,229.6c0,0-16,18.3-22.7,68.8l13.2,2.2c0,0,3-44.6,16.1-68L615.5,229.6z"/>
			<g>
				<path class="st2" d="M693.8,165.5c0,0-46.1,0.8-66.3,18.7c-20.3,17.9-11.2,49.8-11.2,49.8s30.5,12.9,50.8-4.9
					C687.3,211.1,693.8,165.5,693.8,165.5z"/>
				<path class="st1" d="M616.2,233.9c0,0,1.8,0.7,4.7,1.6l44.1-44.7L615.2,229C615.7,232.1,616.2,233.9,616.2,233.9z"/>
			</g>
			<g>
				<path class="st2" d="M545.1,183.9c0,0,0.9,41.1,16.9,59.1s44.5,9.8,44.5,9.8s11.4-27.3-4.6-45.3
					C585.8,189.6,545.1,183.9,545.1,183.9z"/>
				<path class="st1" d="M606.4,252.9c0,0,0.7-1.6,1.4-4.2l-40-39.2l34.2,44.3C604.7,253.4,606.4,252.9,606.4,252.9z"/>
			</g>
			<path class="st3" d="M616.2,233.9c0,0,50-0.6,69.7-37.1C685.9,196.8,671.5,256.6,616.2,233.9z"/>
		</g>
		<g>
			<g>
				<polygon class="st4" points="596.4,300.8 589.3,293.4 592.1,280.5 599.1,280.7 601,291.9 604.5,294.2 604.4,299.6 				"/>
			</g>
			<g>
				<g>
					<path class="st4" d="M649,367.2c3.6-0.2,7.1-0.3,10.7-0.5c0.2-2.8,0.1-5.7-0.1-8.5c0,0.3,5.7-2.7,6.2-3.3
						c1.4-2,1.6-5.2,2.2-7.6c1.3-5,2.5-10.5-0.2-14.9c-2.7-4.6-8.6-6.1-13.9-6.2c-6.7-0.2-14.1,1.8-17.5,7.5
						c-3.1,5.2,0.8,12.8,2,18.2c0.6,2.7,1.4,5.8,3.9,6.9c1.3,0.6,2.9,0.5,4.1,1.4C648.4,361.6,648,364.8,649,367.2z"/>
				</g>
				<g>
					<path class="st5" d="M625.9,323.8c-0.4-3.7-0.8-7.4-1.2-11c-0.2-1.4-0.3-2.8,0.1-4.1c0.7-2.2,2.9-3.5,5.1-4.1
						c2.2-0.6,4.5-0.6,6.8-1.1c2.4-0.5,4.7-1.6,7.1-1.5c4.6,0.2,8.2,4.5,12.8,5.2c6.3,1,12.2-1.9,16,5.5c0.7,1.4,0.9,2.9,1.5,4.4
						c0.8,1.8,2.3,3.3,3.4,4.9c5,7.2,3.4,18.1-2.6,24.2c-2.9,3-4.1,5.6-8.2,6.6c1.9-3.8-0.6-18.8-5.7-20.5c-1.4-0.4-5.4,1.2-6.9,1.4
						c-3.3,0.5-6.5,1-9.6,2.3c-4.6,1.9-9.6,3.3-14.6,3.7c-0.6,0.1-1.4,0.1-1.8-0.4c-0.5-0.4-0.6-1.1-0.6-1.7
						C626.9,333,626.4,328.4,625.9,323.8z"/>
				</g>
			</g>
			<g>
				<g>
					<g>
						<polygon class="st5" points="705.9,638.5 707.3,644.5 696.8,653.4 689.4,648.8 693.9,641.4 704.5,632.5 						"/>
					</g>
					<g>
						<polygon class="st6" points="681.3,453 685.7,471.2 680.3,555.9 706.1,636.4 694.7,641.6 643.3,548.8 637.2,519.1
							633.9,456.3 						"/>
					</g>
				</g>
				<g>
					<g>
						<polygon class="st6" points="610.3,460.3 609.5,539.1 624.6,640.5 636,640.5 643,546.8 658.4,453.2 						"/>
					</g>
					<g>
						<polygon class="st5" points="635.9,639.1 635.9,645.3 623.6,651.5 617.4,645.3 623.6,639.1 						"/>
					</g>
				</g>
				<g>
					<path class="st7" d="M694.9,475.2c0.2,7.2,0,16.9-2.8,17.2c-0.5,0.1-1-0.2-1.5-0.4c-4.8-2.6-8.2-6.3-12.9-8.8
						c-4.9-2.6-10.6-4-16.1-5c-8.3-1.5-16.7-2.4-25.1-2.5c-6.6-0.1-13.3,0.5-19.9,1c-5.5,0.5-10.6,2.1-16.2,1.7
						c-5.7-0.4-11.4-2.1-16.3-5.1c-0.2-0.1-0.4-0.2-0.4-0.4c-0.1-0.2,0-0.5,0.1-0.7c1.2-3.2,2-6.4,4.1-9c2.4-3,4-6.7,5.8-10.1
						c3.6-7,6.9-14.4,9.4-21.9c3.8-10.2,8.1-20.1,11.7-30.4c2.5-7.1,4.8-14.3,8.2-21c2.7-5.3,7.5-13,13.2-15.3
						c2-0.8,4.1-0.9,6.2-0.9c6.4-0.2,12.8-0.4,19.1-0.6c2.3-0.1,4.7-0.1,6.9,0.8c3.2,1.4,5,4.8,6.6,7.9c7.1,13.9,11.6,29,14.1,44.5
						c1.3,8.1,2.6,16.2,3.5,24.4c1.1,9.1,1.8,18.2,2,27.4C694.7,469,694.8,471.8,694.9,475.2z"/>
				</g>
			</g>
			<g>
				<polygon class="st7" points="620.2,389.7 583.7,360 592.8,297.2 606.7,297.2 604.7,351.6 637,367.3 				"/>
			</g>
		</g>
		<g>

				<rect x="519.2" y="515.9" transform="matrix(0.2155 -0.9765 0.9765 0.2155 -30.9776 1004.8954)" class="st5" width="181.5" height="11.7"/>
			<path class="st8" d="M569.3,559.5l-7.4,33.5c-7,31.8,20.9,51.6,20.9,51.6s33.6-6.2,40.6-38l7.4-33.5L569.3,559.5z"/>
			<g>
				<g>
					<path class="st8" d="M627.3,442.9l-1.6-1.2c-1-0.7-23.7-17.2-17.7-44.1l1-4.6l56,12.3l-1,4.6c-5.9,26.9-33.5,32.3-34.6,32.5
						L627.3,442.9z M616.4,404.4c-1,14.7,9.1,25,13.1,28.5c5.1-1.4,18.5-6.5,23.8-20.3L616.4,404.4z"/>
				</g>

					<rect x="614.8" y="439" transform="matrix(0.2155 -0.9765 0.9765 0.2155 57.3592 961.074)" class="st8" width="24.1" height="11.7"/>
			</g>
		</g>
		<g>
			<g>
				<polygon class="st4" points="651.2,428.8 646,430.9 641.5,428.9 640.6,429.6 641.5,430.8 637.2,430.2 634.3,432 634,436.6
					636.6,440.6 641.2,440.4 645.9,437.5 653.1,434.9 				"/>
			</g>
			<g>
				<polygon class="st7" points="645.2,427.5 674.4,409 668.5,363.8 699.2,387.9 694.5,427.8 649.2,437.7 				"/>
			</g>
		</g>
		<g>
			<path class="st9" d="M50.6,252.3c-0.9-1.1-1.6-2.5-2-3.8c-0.7-2.2-0.7-4.7,0-7c0.3-1,1.3-1.6,2.3-1.4c1,0.2,1.7,1.3,1.4,2.3
				c-0.7,2.3-0.5,4.6,0.7,6.7c0.4-0.3,0.9-0.6,1.4-0.8c1.8-0.9,4.4-1.9,6-0.3c1.8,1.8,0.7,4.4-1.2,5.7c-1.5,1-3.4,1.6-5.1,1.2
				c0.3,2.3,1.1,3.4,3.4,3.7c1.4,0.2,4.8,0.1,5.7-1.3c0.6-0.9,0.2-3.4,0.3-4.5c0.3-3.1,1-6.2,1.9-9.2c2-6.1,5.3-11.7,9.4-16.6
				c9.3-11.1,22.5-18.6,36.3-23c0.8-0.2,1.5-0.5,2.3-0.7c9.5-2.8,19-3.8,28.1-3.1c1.6-3.3,3.7-6.4,6.5-8.8
				c6.2-5.5,15.5-7.7,23.2-4.8c-4.8,7.2-8.3,17.2-8.8,18.8c9.2,4,17.3,10.2,23.7,18.4c0.1,0.2,0.3,0.3,0.4,0.5l10.8,0.2
				c0,0,6.5,19.7,5,26.2c0,0-7.8,4.4-12.6,6.4c-2.7,8.8-8,17.2-15.4,24.4c-0.5,0.5-1,0.9-1.5,1.4l4.6,15.8c0,0-11.9,8-18.8,7.8
				l-7.1-10c-3.1,1.3-6.4,2.5-9.7,3.5c-4,1.2-8,2.1-11.9,2.7l-0.5,12.4c-5.7,3.9-20,3.6-20,3.6l-4.6-15.8
				c-18.9-3.1-34-14.1-39.5-32.9c-0.5-1.6-0.9-3.2-1.1-4.8c-3,0.3-6,0-8.6-1.5c-2-1.2-3.4-2.9-4.3-5
				C50.6,256.7,49.9,254.4,50.6,252.3z"/>
			<path class="st10" d="M134.8,202.1l-0.5,6.3c0,0-19.7,0.3-37.6,11l-5.3-2.8C91.4,216.6,105.9,198.9,134.8,202.1z"/>
			<path class="st11" d="M67.4,269.2c10.5,11.4,25.7,17,41,18.8c11.3,1.4,23.3,1.1,34.6-1.6c16.4-3.9,30.3-13.1,42.9-23.6
				c0.6-0.5,1.1-0.9,1.6-1.4c-3,6.2-7.3,12.1-12.7,17.4c-8.4,8.1-19.5,14.7-32.5,18.5c-34.4,10.1-67.5,0.2-76.5-29.8
				C66.4,268,66.9,268.6,67.4,269.2z"/>
			<path class="st11" d="M187.4,222.3c0,0,11,18.6,2.9,32.4l4.8-2.2C195.1,252.5,197.5,233,187.4,222.3z"/>
		</g>
		<g>
			<path class="st0" d="M526.3,358c0,0-40.4,19.7-52.5,12.4c-1.5-0.9-37.5-15.2-37.5-15.2l-7.4,8.3l41.3,28.2l13.7,2.3l34.7-9.9
				L526.3,358z"/>
		</g>
		<g>
			<g>
				<g>
					<path class="st0" d="M548,358.7c0.2,0.1,0.3,0.1,0.5,0.2c8.2,3.2,14.6,17.4,18.3,25.8c9.5,21.6,13.7,44.2,14.5,68.1
						c0.4,12.9,0.3,25.8-0.1,38.7c-0.1,3.6-3.1,35.4-1.6,36.2c-16.2-7.8-32.7-15.1-49.9-19.5c-17.2-4.4-35.4-5.9-52.8-1.8
						c5.2-40.5,12.8-81.7,23.8-120.8c1.3-4.7,2.2-9.7,4.1-14.1c2.2-5.1,5.6-6.6,9.9-9.6c1.5-1,2.9-2.1,4.6-2.8
						C527.9,355.2,539.4,355.5,548,358.7z"/>
				</g>
				<g>
					<g>
						<g>
							<polygon class="st12" points="573.1,486 554.7,561.4 554.4,616.9 545.4,618.8 541.8,567.2 532.8,472.7 							"/>
						</g>
					</g>
					<g>
						<polygon class="st5" points="545.3,620.4 543.9,626 545.2,637.1 552.5,637.1 555.2,621.1 554.3,618.4 						"/>
					</g>
				</g>
				<g>
					<g>
						<polygon class="st12" points="502.3,477.8 500.8,542.9 509.6,634.8 518.5,635.4 521.6,551.2 539.5,474.7 						"/>
					</g>
					<g>
						<polygon class="st5" points="509.9,633.3 497.9,639.7 498.9,645.2 520,642.6 519,634.6 						"/>
					</g>
				</g>
				<g>
					<polygon class="st0" points="499.7,486.2 493.8,561.4 500,613 524.1,611.6 528.3,552.9 538.6,489 537,479 502.2,479.6 					"/>
				</g>
				<g>
					<polygon class="st0" points="536.3,555.9 539.3,609.8 560.2,608.7 559.7,557.5 572.8,493.3 569.7,475.3 534.5,477.6 					"/>
				</g>
				<g>
					<path class="st13" d="M487.3,487.6c21.6,3.2,57.4,5.7,79,8.9c1.1-39-2.8-84-12.3-121.7c-1.7-6.8-4.3-14.2-10.2-17.7
						c-6.4-3.7-20-3.2-23.9,4.1c-5.7,10.6-6.8,27.5-9.3,39.3C504.8,427.3,490.8,460.5,487.3,487.6z"/>
				</g>
				<g>
					<g>
						<path class="st12" d="M520.8,326.9c5.7-15.2,24.8-9.1,28.3,4.6c2.3,9-5,20.6-14,22.8c0.2,2.2,0.3,4.5,0.2,6.7
							c-2.4-0.3-4.9-0.5-7.3-0.8c-0.8-0.1-1.6-0.2-2-0.9c-0.2-0.4-0.2-0.9-0.1-1.3c0.2-1.5,0.4-3.1,0.5-4.6
							c-0.2-0.1-0.4-0.2-0.5-0.3c-4.3-2.3-6.9-7.1-7.5-11.9C517.9,336.3,519.1,331.4,520.8,326.9z"/>
					</g>
					<g>
						<g>
							<g>
								<path class="st5" d="M522.1,331.5c-3.2,4.3-2.6,10.3-2,15.4c0.5,4.5,0.3,7.3-4.7,6.9c-2.8-0.3-7.8-0.7-9.4-3.5
									c-1.2-2.1,1.3-6.4,2.8-8c1.1-1.2,3.1-1.4,4.2-2.6c0.5-0.5,0.7-1.2,0.9-1.8c0.9-2.6,1.4-5.4,1.5-8.1c0.1-1.9-0.1-3.8,0.4-5.6
									c0.6-2.6,3.5-5,5.2-7.1c3.2-3.8,11.4-7.7,15.5-2.5c0.9,1.2,1.2,2.7,1.3,4.2c0.1,0.9,0.1,1.8-0.1,2.7c-1.1,3.4-4.4,2.9-7,3.8
									C527.1,326.4,524.1,328.7,522.1,331.5z"/>
							</g>
							<g>
								<path class="st5" d="M546.3,340.5c-0.6,2.5-2.7,4.7-2.1,7.2c0.3,1.1,1.1,2,1.7,2.9c1.7,2.6,1.8,6.1,0.4,8.8
									c4.9,1.4,9.7,2.8,14.6,4.2c0.7,0.2,1.5,0.4,2.2,0.3c1.6-0.4,2.3-2.2,2.7-3.8c0.8-3.1,1.7-6.4,0.6-9.4
									c-0.5-1.4-1.4-2.6-1.9-4c-2.4-6.7,4.8-14.7,1.2-20.9c-1.6-2.7-4.9-4-7.3-6.1c-4.2-3.6-5.7-9.8-10.2-13.1
									c-8.4-6.4-21.4,2.1-18.6,12.4C531.9,327.2,548.8,330.6,546.3,340.5z"/>
							</g>
						</g>
					</g>
				</g>
				<g>
					<path class="st0" d="M547.4,359.8c0,0,7,96.8-8,115.9S518,502,518,502l61.6,25.6C579.7,527.6,578.1,386.5,547.4,359.8z"/>
				</g>
			</g>
		</g>
		<g>
			<path class="st14" d="M273.2,356.9c0,0-36.5,26.3-49.7,21.1c-1.7-0.7-39.6-8.6-39.6-8.6l-5.9,9.4l45.5,20.8h13.9l32.5-15.7
				L273.2,356.9z"/>
		</g>
		<g>
			<g>
				<g>
					<path class="st5" d="M167,322.9c0,0,5.6,2.8,6.6,17.6c1,14.8,4.4,23.9,4.4,23.9s-4.4,3.3-8.5,1.9s-5.5-1.6-5.5-7.7
						s-3.5-34.4-3.5-34.4L167,322.9z"/>
				</g>
			</g>
			<g>
				<g>
					<path class="st5" d="M156.3,330.4c5.8,0.3,11.2,4.3,13,9.8c2.3-3.4,2.9-8,1.4-11.9s-4.9-7-8.9-8.1c-3,2.5-4.9,6.3-5.1,10.2
						H156.3z"/>
				</g>
			</g>
			<g>
				<polygon class="st2" points="149.4,365.3 112.5,366.1 99.5,306.3 87.2,308 87.2,381.2 109,391.7 148.8,397.3 				"/>
			</g>
			<g>
				<g>
					<g>
						<g>
							<polygon class="st5" points="132.8,630.8 132.2,636 141.6,642.8 147.3,638.3 142.9,632.3 133.5,625.5 							"/>
						</g>
					</g>
					<g>
						<g>
							<polygon class="st5" points="136.6,469.8 134.6,485.8 147.7,541 132.5,629 142.2,632.6 169.9,547 174.6,522 175.6,468.9
															"/>
						</g>
					</g>
				</g>
				<g>
					<g>
						<g>
							<polygon class="st5" points="211.5,489.3 187.7,636.7 178.3,636.5 178.7,541.7 163.1,474.8 							"/>
						</g>
					</g>
					<g>
						<g>
							<polygon class="st5" points="178.4,635.4 178.3,640.7 188.3,646.2 193.5,641 188.5,635.6 							"/>
						</g>
					</g>
				</g>
				<g>
					<g>
						<g>
							<path class="st2" d="M130.9,472.9c8.1-47.4,6.3-82.1,6.9-91.6S145,367,145,367c2.9-0.6,5.4-2.4,8.3-3.1
								c19.6-4.6,30,10.9,36.9,27.6c8.6,20.5,15.7,41.7,21.3,63.2c5,18.9,9.9,38,11.8,57.5c0.8,8.1,1.4,15.7-7.3,19.1
								c-13.8,5.4-29.2,4.9-43.7,6.4c-16.7,1.7-33.4,2.9-50.1,3.2C113.5,541.1,122.8,520.3,130.9,472.9z"/>
						</g>
					</g>
				</g>
			</g>
			<g>
				<polygon class="st12" points="91.5,307.5 84.4,300.1 87.1,287.2 94.2,287.4 96,298.6 99.6,300.9 99.5,306.3 				"/>
			</g>
			<g>
				<polygon class="st2" points="162.8,363.1 181.5,366.8 218.9,404.7 263.5,404 265.7,417.8 213.5,425.8 171.2,397.4 				"/>
			</g>
			<g>
				<polygon class="st13" points="167.4,364.2 169.8,414.9 144.9,366.2 152.5,363.7 157.9,362.2 				"/>
			</g>
			<g>
				<polygon class="st12" points="263.9,407.4 272.2,402.5 282.7,405.4 282.5,411 264.9,413.9 				"/>
			</g>
			<g>
				<g>
					<path class="st12" d="M169,335.1c-6.1-14.2-24.1-7.5-26.6,5.7c-1.5,7.5,2.2,20.7,11.2,21c0.4,1.3,1.2,3.7,2.3,4.4
						c1.3,0.7,4.5-1,5.8-1.6c0.4-0.2,0.7-0.4,0.9-0.7c0.3-0.4,0.1-1.3-0.1-2.3c1-0.3,1.9-0.7,2.9-1.3c4-2.4,6.2-7.1,6.5-11.7
						C172.2,344,170.8,339.4,169,335.1z"/>
				</g>
			</g>
			<g>
				<g>
					<path class="st5" d="M161.5,320.2c0,0,3.6,7.6-6.2,12.2c-9.8,4.5-14.6,14.1-10.9,22.2c3.7,8.1,12.7,12.6,9.2,15.8
						c-3.5,3.1-18.7,4.2-18.7,4.2s-15.7-27.9-6.5-43.6C137.4,315.3,154.7,311,161.5,320.2z"/>
				</g>
			</g>
		</g>
		<g>
			<g>
				<path class="st15" d="M392.2,111.9c-18.8-0.1-41.6,11.7-46.1,28.1c-6.8-15.6-36.3-23.2-54.9-20.3c-49.1,7.8-61.7,64.1-37.9,99.6
					c12.8,19.1,30.3,35.3,49.2,49.6c15.8,12,56.1,36.9,56.2,36.8c0.1,0.1,36.2-30.6,50-44.8c16.5-17,31.4-35.6,41.1-56.4
					C468,165.8,441.9,112.2,392.2,111.9z"/>
			</g>
		</g>
		<g>
			<g>
				<polygon class="st16" points="470.4,632.5 471.2,638.9 459.3,646.9 452.1,641.4 457.6,634.1 469.5,626.1 				"/>
				<g>
					<polygon class="st17" points="470.8,630.3 461.4,549 472.3,457.9 469.8,438.6 420.3,436.8 418.6,468.3 427.1,549.2
						458.5,634.5 					"/>
				</g>
				<g>
					<polygon class="st17" points="384.1,446 384.1,528.1 400.8,633.7 412.7,633.5 419,535.8 434.2,438 					"/>
					<polygon class="st16" points="412.7,638.6 399.9,645.1 393.4,638.8 399.7,632.3 412.6,632.1 					"/>
				</g>
				<g>
					<path class="st15" d="M477.5,473.7c-0.1-3.6-0.3-6.5-0.4-7.6c-0.3-9.5-1.1-19.1-2.4-28.5c-1.1-8.5-2.5-29.6-3.9-38
						c-1.2-7-5.4-24.3-8.5-30.8c-7.5-16.1-5.2-17.5-38.2-22.3c-14.5-2.1-17.9,7-29.7,17.3c-1.2,1-1.1,7.1-1.4,8.7
						c-0.5,2.8-1,5.7-1.6,8.5c-0.5,2.2-1,4.4-1.5,6.6l0,0c0,0-9.8,45.2-16.4,54.8c-6.5,9.6-20.1,23,2.6,31.2c4,1.3,8.1,2.5,12.3,3.2
						c0,0,18.5-2.1,28.1-2c8.8,0.1,17.6,0.9,26.2,2.4c5.8,1,11.7,2.3,16.8,5c4.9,2.6,8.5,6.3,13.5,9c0.5,0.3,1,0.5,1.5,0.4
						C477.6,491.3,477.7,481.2,477.5,473.7z"/>
				</g>
				<g>
					<path class="st4" d="M424.1,351.1c1.7,0.8,5.6,1.1,9.7-0.5c0.8-0.3,1.4-1.1,1.4-2c0-2.5-0.2-5-0.6-7.4c3.1-1.1,6.6-2.7,7.2-5.9
						c0.2-1,0-2-0.2-3.1c-0.7-4.2-1.5-8.4-2.2-12.5c-0.3-1.4-0.5-2.9-1.3-4.2c-1.4-2.2-4.1-3.1-6.6-3.6c-6.5-1.1-13.5,0.3-18.5,4.6
						c-1.3,1.1-2.5,2.5-3.1,4.1c-0.9,2.5-0.2,5.3,0.5,7.9c0.6,2.4,1.3,4.8,1.9,7.2c0.7,2.8,1.8,5.9,4.5,7c1.4,0.6,3.1,0.4,4.4,1.2
						C423.2,345.3,422.9,348.7,424.1,351.1z"/>
					<path class="st5" d="M386.7,309.5c-0.6-1-1.3-2-2.1-3c-1.7-2-3.7-3.8-5.1-6.1c-1.3-2.3-1.8-5.3-0.2-7.4c1-1.4,2.7-2,4.3-2.5
						c5.4-1.6,11.2-1.7,16.6-0.3c5.2,1.3,9.8,3.5,15,1.5c4.9-1.8,8.4-1.1,13.5,0.7c5.5,2,13,2.4,18,5.2c2.1,1.2,3.8,3,5.1,5
						c4.5,7,4.6,16.5,0.1,23.6c-1,1.6-2.2,3-3.5,4.4c-2.6,2.8-5.7,6.3-9.3,7.4c-0.1-3.2,2.8-13.3,0.3-16c-3.9-4.2-12.8-2.7-17.6-1.7
						c-5.3,1.1-10,4.9-15.3,5.7c-3.8,0.6-8.6-1.3-11.8-3.2C390.9,320.3,389,313.3,386.7,309.5z"/>
				</g>
			</g>
			<g>
				<polygon class="st4" points="318.3,366.8 308,360.2 310.6,355.7 318.6,358.7 318.9,356 327,362.7 324.9,367.7 				"/>
				<polygon class="st15" points="414,348.1 360.7,370 327,362.7 323.7,369.1 354.4,391.7 396.8,386.5 				"/>
			</g>
			<g>
				<polygon class="st4" points="488.1,265.3 487.2,252 481.5,252.1 480.1,261.4 477.4,260.2 479.5,271.5 485.5,272.2 				"/>
				<polygon class="st15" points="436.9,355.4 466.1,316.5 479.5,271.5 487.5,271.8 487.6,323.8 460,378.8 				"/>
			</g>
		</g>
		<g>
			<g>
				<g>
					<polygon class="st8" points="265.9,638.3 265.7,643.8 276.6,650 282.4,644.7 277.1,638.8 266.2,632.7 					"/>
					<polygon class="st6" points="256.8,468.9 255.9,485.8 274.9,560.4 265.4,636.4 276.4,639.2 306.7,547.8 307.2,520.3
						299.5,463.9 					"/>
				</g>
				<g>
					<polygon class="st6" points="340.1,467.1 348.7,537.9 345.3,630.8 335,632 319.3,548.3 296,465.4 					"/>
					<polygon class="st8" points="335.6,636.3 347.3,640.6 352.2,634.5 346.1,629.5 335,630.7 					"/>
				</g>
			</g>
			<g>
				<g>
					<path class="st14" d="M344.2,455.3c-10.6-21.5-14.9-45.2-20.5-68.4c-1.7-6.9-3.4-13.9-7.2-19.8c-4.4-6.8-10.5-9.8-17.2-11
						c-8.5-1.5-18.1,0.1-26.7,0.8c-5.1,16.2-8.5,7-14.6,22.8c-1.3,3.3-4.8,31.7-6.1,35l0,0c0,0-13.9,43.7-9.3,78.3
						c0,0.3,0.1,0.7,0.1,1c0.9,0.2,1.8,0.3,2.6,0.5c12,2.4,24.3,3.7,36.6,3.5c10.9-0.2,21.8-1.5,32.4-4.1
						c14.5-3.6,31.7-2.2,43.5-11.8C354.5,475,347.7,462.4,344.2,455.3z"/>
				</g>
				<g>
					<polygon class="st4" points="360.5,302.9 361.8,290.8 356.6,290.1 353.9,298.1 351.6,296.6 351.8,307.1 357,308.6 					"/>
					<polygon class="st14" points="302.3,356.7 336.4,338 351.8,307.1 358.9,308.6 357.2,346.7 317.7,388.5 					"/>
				</g>
				<g>
					<path class="st4" d="M265.9,329c4.3-13.7,24.2-18.7,29-2.9c1.5,4.7,2.4,9.8,1.5,14.7c-0.9,4.9-3.8,9.6-8.3,11.7H288
						c0.2,1.3,0.4,2.5,0.6,3.8c0,0.3,0.1,0.6-0.1,0.8c-0.2,0.3-0.5,0.3-0.8,0.4c-1.5,0.2-3,0.5-4.5,0.7c-0.7,0.1-1.5,0.2-2.2,0
						c-1.6-0.5-2.3-2.4-2.4-4c0-0.4,0-0.8,0-1.2C269.6,350,263.1,338,265.9,329z"/>
					<g>
						<path class="st5" d="M293.3,306.5c3.7-0.2,6.4,3.6,9.6,5.8c2.6,1.8,5.8,2.5,8.5,4.1c2.8,1.5,5.4,4.5,5.1,7.8
							c3.1-1.2,6.4-2.5,9.6-1.6s5.9,5.1,4.3,8.2c-1.4,2.8-5.3,3.1-6.8,5.8c-2.4,4.3,2.3,11.8-1.7,14.4c-0.9,0.6-2.2,0.7-3.1,1.4
							c-1.2,0.8-1.7,2.4-2.3,3.7c-2.8,6.1-9.6,9.7-15.8,8.2c-3.8-2.2-6.5-6.3-7.5-10.8c-1.2-5.4,1.8-7,2.7-11.9
							c1-5.3-0.1-11.2-3.1-15.7c-1.9-2.9-4.9-5.6-8.2-6.2c-1.3-0.3-1,0.9-2.4-0.3c-0.6-0.5-1.3-2.3-1.5-3.1
							C284.7,313.8,288.4,306.7,293.3,306.5z"/>
						<path class="st5" d="M254.2,309.5c-1.9,0.3-4,0.1-5.8,0.7c-2.8,0.9-2.9,3.7-3.9,6.1c-1.1,2.6-2.7,6.1-4.6,8
							c-1.4,1.4-3.3,2.1-4.9,3.1c-1.7,1-3.2,2.6-3.4,4.7c-0.2,2,1,3.9,1,5.9c0,3-0.7,4.4-0.1,7.5c0.3,1.6,0.7,3.3,1.8,4.5
							c1.4,1.5,3.6,1.7,5.5,1.6s4-0.5,5.8,0.3c4,1.8,2.8,5.8,3.6,9.4c1.2,5.5,7,9.1,11.9,7.7c4.1-1.2,6.9-5.6,7.1-10.2
							c0.1-2.3-0.6-4.5-0.4-6.8c0.1-2.2,1.7-5.1-0.2-7.1c-0.4-0.5-1.1-0.8-1.4-1.3c-0.3-0.4-0.5-1-0.5-1.5c-0.3-1.9,0.3-3.8,1.5-5.1
							c0.9-0.9,2-1.6,2.6-2.7c0.7-1.3,0.4-3,0.5-4.5c0.1-3.7,2.5-7.2,5.7-8.3c2.1-0.8,4-1.1,5.9-2.4c0.3-0.2,4.7-3.4,4.7-2.6
							c-0.1-1.4-0.7-2.6-1.4-3.8c-1.1-1.9-2.4-3.8-4.2-5c-5.6-4-6.7,4-11.4,2.5c-1.1-0.4-1.9-1.5-2.9-2.2c-1.8-1.4-4.3-1.2-6.4-0.5
							C258.3,308,256.4,309.1,254.2,309.5z"/>
					</g>
				</g>
			</g>
		</g>
		<g>
			<g>
				<g>
					<polygon class="st7" points="209,554 327.6,599.9 457.7,556.5 347.4,513.8 					"/>
				</g>
			</g>
			<g>
				<g>
					<g>
						<ellipse id="SVGID_1_" class="st13" cx="372.8" cy="561.1" rx="49.3" ry="49.3"/>
					</g>
					<g>
						<g>
							<g>
								<defs>
									<circle id="SVGID_2_" cx="372.8" cy="561.1" r="49.3"/>
								</defs>
								<clipPath id="SVGID_3_">
									<use xlink:href="#SVGID_2_"  style="overflow:visible;"/>
								</clipPath>
								<g class="st18">
									<g>
										<path class="st19" d="M404.9,531.4l1.1-0.9c-0.2-0.3-5.8-7.7-16.9-12l-0.5,1.3C399.3,524.1,404.8,531.3,404.9,531.4z"/>
									</g>
									<g>
										<path class="st19" d="M340.6,531.3c0.1-0.1,5.6-7.4,16.3-11.4l-0.5-1.3c-11.1,4.2-16.7,11.6-17,11.9L340.6,531.3z"/>
									</g>
									<g>
										<path class="st19" d="M408.9,587.4c3.4-3.6,6-9.3,7.9-17c1.4-5.7,1.8-10.4,1.8-10.5l-1.4-0.1c0,0.2-1.7,18.5-9.3,26.6
											L408.9,587.4z"/>
									</g>
									<g>
										<path class="st19" d="M336.5,587.3l1-1c-7.6-8.2-9.2-26.4-9.2-26.6l-1.4,0.1c0,0.1,0.4,4.8,1.8,10.5
											C330.5,578,333.1,583.7,336.5,587.3z"/>
									</g>
									<g>
										<path class="st19" d="M371.8,606.4c6.4,0,11.5-1.2,11.8-1.3l-0.3-1.4c-0.1,0-11.6,2.8-21.7,0l-0.4,1.4
											C364.8,606.1,368.5,606.4,371.8,606.4z"/>
									</g>
								</g>
							</g>
						</g>
					</g>
					<g>
						<g>
							<g>
								<defs>
									<circle id="SVGID_4_" cx="372.8" cy="561.1" r="49.3"/>
								</defs>
								<clipPath id="SVGID_5_">
									<use xlink:href="#SVGID_4_"  style="overflow:visible;"/>
								</clipPath>
								<g class="st20">
									<polygon class="st5" points="372.8,542.6 389.6,554.8 383.1,574.5 362.4,574.5 356,554.8 									"/>
								</g>
							</g>
						</g>
					</g>
					<g>
						<g>
							<g>
								<defs>
									<circle id="SVGID_6_" cx="372.8" cy="561.1" r="49.3"/>
								</defs>
								<clipPath id="SVGID_7_">
									<use xlink:href="#SVGID_6_"  style="overflow:visible;"/>
								</clipPath>
								<g class="st21">
									<polygon class="st5" points="372.9,531.9 356.1,519.7 362.5,500 383.3,500 389.7,519.8 									"/>
								</g>
							</g>
						</g>
					</g>
					<g>
						<g>
							<g>
								<defs>
									<circle id="SVGID_8_" cx="372.8" cy="561.1" r="49.3"/>
								</defs>
								<clipPath id="SVGID_9_">
									<use xlink:href="#SVGID_8_"  style="overflow:visible;"/>
								</clipPath>
								<g class="st22">
									<g>
										<polygon class="st5" points="388.5,585.2 409.2,585.5 415.3,605.3 398.4,617.3 381.8,604.8 										"/>
									</g>
									<g>

											<rect x="384.9" y="568.5" transform="matrix(0.8952 -0.4456 0.4456 0.8952 -217.8716 232.5439)" class="st5" width="1.4" height="22.2"/>
									</g>
								</g>
							</g>
						</g>
					</g>
					<g>
						<g>
							<g>
								<defs>
									<circle id="SVGID_10_" cx="372.8" cy="561.1" r="49.3"/>
								</defs>
								<clipPath id="SVGID_11_">
									<use xlink:href="#SVGID_10_"  style="overflow:visible;"/>
								</clipPath>
								<g class="st23">
									<g>
										<polygon class="st5" points="400,550.6 404.7,530.4 425.4,528.7 433.4,547.8 417.7,561.4 										"/>
									</g>
									<g>

											<rect x="384.3" y="551.8" transform="matrix(0.9174 -0.398 0.398 0.9174 -187.2291 203.0132)" class="st5" width="22.2" height="1.4"/>
									</g>
								</g>
							</g>
						</g>
					</g>
					<g>
						<g>
							<g>
								<defs>
									<circle id="SVGID_12_" cx="372.8" cy="561.1" r="49.3"/>
								</defs>
								<clipPath id="SVGID_13_">
									<use xlink:href="#SVGID_12_"  style="overflow:visible;"/>
								</clipPath>
								<g class="st24">
									<g>
										<polygon class="st5" points="356.9,585.4 336.2,585.6 330,605.4 346.9,617.4 363.5,605.1 										"/>
									</g>
									<g>

											<rect x="348.7" y="579.1" transform="matrix(0.4489 -0.8936 0.8936 0.4489 -319.7836 641.067)" class="st5" width="22.2" height="1.4"/>
									</g>
								</g>
							</g>
						</g>
					</g>
					<g>
						<g>
							<g>
								<defs>
									<circle id="SVGID_14_" cx="372.8" cy="561.1" r="49.3"/>
								</defs>
								<clipPath id="SVGID_15_">
									<use xlink:href="#SVGID_14_"  style="overflow:visible;"/>
								</clipPath>
								<g class="st25">
									<g>
										<polygon class="st5" points="345.4,550.6 340.4,530.5 319.7,529 311.9,548.2 327.8,561.6 										"/>
									</g>
									<g>

											<rect x="349.3" y="541.4" transform="matrix(0.3878 -0.9217 0.9217 0.3878 -294.9663 660.7945)" class="st5" width="1.4" height="22.2"/>
									</g>
								</g>
							</g>
						</g>
					</g>
					<g>
						<g>
							<g>
								<defs>
									<circle id="SVGID_16_" cx="372.8" cy="561.1" r="49.3"/>
								</defs>
								<clipPath id="SVGID_17_">
									<use xlink:href="#SVGID_16_"  style="overflow:visible;"/>
								</clipPath>
								<g class="st26">

										<rect x="361.2" y="532.5" transform="matrix(1.866203e-03 -1 1 1.866203e-03 -161.0504 905.0709)" class="st5" width="23.4" height="1.4"/>
								</g>
							</g>
						</g>
					</g>
				</g>
			</g>
			<polygon class="st7" points="327.5,698.2 208.8,638.2 209,554 327.6,599.8 			"/>
			<polygon class="st2" points="327.5,698.2 457.6,641 457.7,556.4 327.6,599.8 			"/>
			<g id="XMLID_1750_">
				<path id="XMLID_1768_" class="st9" d="M317.3,533c-5.8,1.9-9,8.1-7.2,13.9l0,0c1.9,5.8,8.1,9,13.9,7.2l15.3-4.9
					c5.8-1.9,9-8.1,7.2-13.9l0,0c-1.9-5.8-8.1-9-13.9-7.2L317.3,533z"/>
				<path id="XMLID_1767_" class="st9" d="M333.5,568.7c-6.6-3.4-14.7-0.8-18.1,5.8l0,0c-3.4,6.6-0.8,14.7,5.8,18.1l17.3,8.9
					c6.6,3.4,14.7,0.8,18.1-5.8l0,0c3.4-6.6,0.8-14.7-5.8-18.1L333.5,568.7z"/>
				<path id="XMLID_1766_" class="st9" d="M276.8,586.9c3.4-6.6,11.5-9.2,18.1-5.8l0,0c6.6,3.4,9.2,11.5,5.8,18.1l-8.9,17.3
					c-3.4,6.6-11.5,9.2-18.1,5.8l0,0c-6.6-3.4-9.2-11.5-5.8-18.1L276.8,586.9z"/>
				<path id="XMLID_1765_" class="st9" d="M253,553.6c-5.8,1.9-9,8.1-7.2,13.9l0,0c1.9,5.8,8.1,9,13.9,7.2l15.3-4.9
					c5.8-1.9,9-8.1,7.2-13.9l0,0c-1.9-5.8-8.1-9-13.9-7.2L253,553.6z"/>
				<path id="XMLID_1764_" class="st9" d="M274.8,584.1c5.2,16.2,22.5,25.1,38.7,19.9l0,0c16.2-5.2,25.1-22.5,19.9-38.7l-3.4-10.7
					c-5.2-16.2-22.5-25.1-38.7-19.9l0,0c-16.2,5.2-25.1,22.5-19.9,38.7L274.8,584.1z"/>
				<g id="XMLID_1751_">
					<ellipse id="XMLID_1763_" class="st9" cx="285.9" cy="517.7" rx="33.2" ry="33.2"/>

						<ellipse id="XMLID_1762_" transform="matrix(0.9525 -0.3047 0.3047 0.9525 -149.013 114.1752)" class="st13" cx="291.3" cy="534.5" rx="28.2" ry="15.6"/>
					<g id="XMLID_1759_">
						<ellipse id="XMLID_1761_" class="st9" cx="306.1" cy="490.5" rx="15.5" ry="15.5"/>
						<circle id="XMLID_1760_" class="st9" cx="253.7" cy="507.3" r="15.5"/>
					</g>
					<g id="XMLID_1756_">
						<path id="XMLID_1758_" class="st6" d="M296.4,509c0.6,1.8,2.5,2.8,4.3,2.2s2.8-2.5,2.2-4.3c-0.6-1.8-2.5-2.8-4.3-2.2
							C296.8,505.3,295.9,507.2,296.4,509z"/>
						<path id="XMLID_1757_" class="st6" d="M265.8,518.8c0.6,1.8,2.5,2.8,4.3,2.2s2.8-2.5,2.2-4.3s-2.5-2.8-4.3-2.2
							S265.3,517,265.8,518.8z"/>
					</g>
					<path id="XMLID_1755_" class="st6" d="M280.5,533.5c0.5-0.9,1.6-1.3,2.6-0.8c1.9,1,4,1.3,5.9,1.1l-2.4-7.7
						c-4.3-1.4-5-4.4-5-4.4c-0.5-1.5,0.3-3.3,1.8-3.8l4.7-1.5c1.5-0.5,3.2,0.5,3.7,2l0,0c0.1,0.3,1,3.1-1.6,6.5l2.4,7.7
						c1.8-1,3.2-2.4,4.2-4.3c0.5-0.9,1.6-1.3,2.6-0.8c0.9,0.5,1.3,1.6,0.8,2.6c-1.8,3.5-4.8,5.9-8.3,7c-3.4,1.1-7.3,0.9-10.8-0.9
						C280.4,535.6,280,534.5,280.5,533.5z"/>
					<g id="XMLID_1752_">
						<path id="XMLID_1754_" class="st13" d="M309.4,483.7c3.9,2.5,5.1,7.6,2.6,11.5l-14.1-8.9C300.4,482.4,305.5,481.3,309.4,483.7
							z"/>
						<path id="XMLID_1753_" class="st13" d="M247.1,503.7c1.7-4.3,6.6-6.3,10.9-4.6l-6.3,15.4C247.4,512.8,245.3,507.9,247.1,503.7
							z"/>
					</g>
				</g>
			</g>
			<polygon class="st27" points="327.6,599.8 350.7,639.5 477,589.7 457.6,556.4 			"/>
			<polygon class="st2" points="187.6,580.4 300.3,634 327.6,599.8 208.8,554 			"/>
		</g>
	</g>
</g>
</svg>
