<?xml version="1.0" encoding="utf-8"?>
<!-- Generator: Adobe Illustrator 23.0.1, SVG Export Plug-In . SVG Version: 6.00 Build 0)  -->
<svg version="1.1" id="Layer_1" xmlns="http://www.w3.org/2000/svg" xmlns:xlink="http://www.w3.org/1999/xlink" x="0px" y="0px"
	 viewBox="0 0 800 800" style="enable-background:new 0 0 800 800;" xml:space="preserve">
<style type="text/css">
	.st0{fill:#3B3387;}
	.st1{fill:#F7F7F7;}
	.st2{fill:#474EBB;}
	.st3{fill:#3742AA;}
	.st4{fill:#AA6755;}
	.st5{fill:#292949;}
	.st6{fill:#353A85;}
	.st7{fill:#5D66D3;}
	.st8{fill:#F2F2F2;}
	.st9{fill:#EED5D5;}
	.st10{fill:#E5BABA;}
	.st11{opacity:3.000000e-02;enable-background:new    ;}
	.st12{fill:#EAC1A4;}
	.st13{fill:#FFFFFF;}
	.st14{fill:#8CABEF;}
	.st15{fill:#D67086;}
	.st16{fill:#242835;}
	.st17{fill:#D6D6D8;}
	.st18{clip-path:url(#SVGID_3_);}
	.st19{fill:#5C5955;}
	.st20{clip-path:url(#SVGID_5_);}
	.st21{clip-path:url(#SVGID_7_);}
	.st22{clip-path:url(#SVGID_9_);}
	.st23{clip-path:url(#SVGID_11_);}
	.st24{clip-path:url(#SVGID_13_);}
	.st25{clip-path:url(#SVGID_15_);}
	.st26{clip-path:url(#SVGID_17_);}
	.st27{fill:#7786E0;}
</style>
<g id="Object">
	<g>
		<g>
			<path class="st0" d="M558.5,359.3c0,0,23.3,38.4,37.5,38.8c1.8,0,39.8,7.5,39.8,7.5l1.8,11l-50,1.4l-12.8-5.5l-23.9-27.1
				L558.5,359.3z"/>
		</g>
		<g>
			<path class="st1" d="M619.5,229.6c0,0-16,18.3-22.7,68.8l13.2,2.2c0,0,3-44.6,16.1-68L619.5,229.6z"/>
			<g>
				<path class="st2" d="M697.8,165.5c0,0-46.1,0.8-66.3,18.7c-20.3,17.9-11.2,49.8-11.2,49.8s30.5,12.9,50.8-4.9
					C691.3,211.1,697.8,165.5,697.8,165.5z"/>
				<path class="st1" d="M620.2,233.9c0,0,1.8,0.7,4.7,1.6l44.1-44.7L619.2,229C619.7,232.1,620.2,233.9,620.2,233.9z"/>
			</g>
			<g>
				<path class="st2" d="M549.1,183.9c0,0,0.9,41.1,16.9,59.1s44.5,9.8,44.5,9.8s11.4-27.3-4.6-45.3
					C589.8,189.6,549.1,183.9,549.1,183.9z"/>
				<path class="st1" d="M610.4,252.9c0,0,0.7-1.6,1.4-4.2l-40-39.2l34.2,44.3C608.7,253.4,610.4,252.9,610.4,252.9z"/>
			</g>
			<path class="st3" d="M620.2,233.9c0,0,50-0.6,69.7-37.1C689.9,196.8,675.5,256.6,620.2,233.9z"/>
		</g>
		<g>
			<g>
				<polygon class="st4" points="600.4,300.8 593.3,293.4 596.1,280.5 603.1,280.7 605,291.9 608.5,294.2 608.4,299.6 				"/>
			</g>
			<g>
				<g>
					<path class="st4" d="M653,367.2c3.6-0.2,7.1-0.3,10.7-0.5c0.2-2.8,0.1-5.7-0.1-8.5c0,0.3,5.7-2.7,6.2-3.3
						c1.4-2,1.6-5.2,2.2-7.6c1.3-5,2.5-10.5-0.2-14.9c-2.7-4.6-8.6-6.1-13.9-6.2c-6.7-0.2-14.1,1.8-17.5,7.5
						c-3.1,5.2,0.8,12.8,2,18.2c0.6,2.7,1.4,5.8,3.9,6.9c1.3,0.6,2.9,0.5,4.1,1.4C652.4,361.6,652,364.8,653,367.2z"/>
				</g>
				<g>
					<path class="st5" d="M629.9,323.8c-0.4-3.7-0.8-7.4-1.2-11c-0.2-1.4-0.3-2.8,0.1-4.1c0.7-2.2,2.9-3.5,5.1-4.1
						c2.2-0.6,4.5-0.6,6.8-1.1c2.4-0.5,4.7-1.6,7.1-1.5c4.6,0.2,8.2,4.5,12.8,5.2c6.3,1,12.2-1.9,16,5.5c0.7,1.4,0.9,2.9,1.5,4.4
						c0.8,1.8,2.3,3.3,3.4,4.9c5,7.2,3.4,18.1-2.6,24.2c-2.9,3-4.1,5.6-8.2,6.6c1.9-3.8-0.6-18.8-5.7-20.5c-1.4-0.4-5.4,1.2-6.9,1.4
						c-3.3,0.5-6.5,1-9.6,2.3c-4.6,1.9-9.6,3.3-14.6,3.7c-0.6,0.1-1.4,0.1-1.8-0.4c-0.5-0.4-0.6-1.1-0.6-1.7
						C630.9,333,630.4,328.4,629.9,323.8z"/>
				</g>
			</g>
			<g>
				<g>
					<g>
						<polygon class="st5" points="709.9,638.5 711.3,644.5 700.8,653.4 693.4,648.8 697.9,641.4 708.5,632.5 						"/>
					</g>
					<g>
						<polygon class="st6" points="685.3,453 689.7,471.2 684.3,555.9 710.1,636.4 698.7,641.6 647.3,548.8 641.2,519.1
							637.9,456.3 						"/>
					</g>
				</g>
				<g>
					<g>
						<polygon class="st6" points="614.3,460.3 613.5,539.1 628.6,640.5 640,640.5 647,546.8 662.4,453.2 						"/>
					</g>
					<g>
						<polygon class="st5" points="639.9,639.1 639.9,645.3 627.6,651.5 621.4,645.3 627.6,639.1 						"/>
					</g>
				</g>
				<g>
					<path class="st7" d="M698.9,475.2c0.2,7.2,0,16.9-2.8,17.2c-0.5,0.1-1-0.2-1.5-0.4c-4.8-2.6-8.2-6.3-12.9-8.8
						c-4.9-2.6-10.6-4-16.1-5c-8.3-1.5-16.7-2.4-25.1-2.5c-6.6-0.1-13.3,0.5-19.9,1c-5.5,0.5-10.6,2.1-16.2,1.7
						c-5.7-0.4-11.4-2.1-16.3-5.1c-0.2-0.1-0.4-0.2-0.4-0.4c-0.1-0.2,0-0.5,0.1-0.7c1.2-3.2,2-6.4,4.1-9c2.4-3,4-6.7,5.8-10.1
						c3.6-7,6.9-14.4,9.4-21.9c3.8-10.2,8.1-20.1,11.7-30.4c2.5-7.1,4.8-14.3,8.2-21c2.7-5.3,7.5-13,13.2-15.3
						c2-0.8,4.1-0.9,6.2-0.9c6.4-0.2,12.8-0.4,19.1-0.6c2.3-0.1,4.7-0.1,6.9,0.8c3.2,1.4,5,4.8,6.6,7.9c7.1,13.9,11.6,29,14.1,44.5
						c1.3,8.1,2.6,16.2,3.5,24.4c1.1,9.1,1.8,18.2,2,27.4C698.7,469,698.8,471.8,698.9,475.2z"/>
				</g>
			</g>
			<g>
				<polygon class="st7" points="624.2,389.7 587.7,360 596.8,297.2 610.7,297.2 608.7,351.6 641,367.3 				"/>
			</g>
		</g>
		<g>

				<rect x="523.2" y="515.9" transform="matrix(0.2155 -0.9765 0.9765 0.2155 -27.8632 1008.8124)" class="st5" width="181.5" height="11.7"/>
			<path class="st8" d="M573.3,559.5l-7.4,33.5c-7,31.8,20.9,51.6,20.9,51.6s33.6-6.2,40.6-38l7.4-33.5L573.3,559.5z"/>
			<g>
				<g>
					<path class="st8" d="M631.3,442.9l-1.6-1.2c-1-0.7-23.7-17.2-17.7-44.1l1-4.6l56,12.3l-1,4.6c-5.9,26.9-33.5,32.3-34.6,32.5
						L631.3,442.9z M620.4,404.4c-1,14.7,9.1,25,13.1,28.5c5.1-1.4,18.5-6.5,23.8-20.3L620.4,404.4z"/>
				</g>

					<rect x="618.8" y="439" transform="matrix(0.2155 -0.9765 0.9765 0.2155 60.4828 964.998)" class="st8" width="24.1" height="11.7"/>
			</g>
		</g>
		<g>
			<g>
				<polygon class="st4" points="655.2,428.8 650,430.9 645.5,428.9 644.6,429.6 645.5,430.8 641.2,430.2 638.3,432 638,436.6
					640.6,440.6 645.2,440.4 649.9,437.5 657.1,434.9 				"/>
			</g>
			<g>
				<polygon class="st7" points="649.2,427.5 678.4,409 672.5,363.8 703.2,387.9 698.5,427.8 653.2,437.7 				"/>
			</g>
		</g>
		<g>
			<path class="st9" d="M54.6,252.3c-0.9-1.1-1.6-2.5-2-3.8c-0.7-2.2-0.7-4.7,0-7c0.3-1,1.3-1.6,2.3-1.4c1,0.2,1.7,1.3,1.4,2.3
				c-0.7,2.3-0.5,4.6,0.7,6.7c0.4-0.3,0.9-0.6,1.4-0.8c1.8-0.9,4.4-1.9,6-0.3c1.8,1.8,0.7,4.4-1.2,5.7c-1.5,1-3.4,1.6-5.1,1.2
				c0.3,2.3,1.1,3.4,3.4,3.7c1.4,0.2,4.8,0.1,5.7-1.3c0.6-0.9,0.2-3.4,0.3-4.5c0.3-3.1,1-6.2,1.9-9.2c2-6.1,5.3-11.7,9.4-16.6
				c9.3-11.1,22.5-18.6,36.3-23c0.8-0.2,1.5-0.5,2.3-0.7c9.5-2.8,19-3.8,28.1-3.1c1.6-3.3,3.7-6.4,6.5-8.8
				c6.2-5.5,15.5-7.7,23.2-4.8c-4.8,7.2-8.3,17.2-8.8,18.8c9.2,4,17.3,10.2,23.7,18.4c0.1,0.2,0.3,0.3,0.4,0.5l10.8,0.2
				c0,0,6.5,19.7,5,26.2c0,0-7.8,4.4-12.6,6.4c-2.7,8.8-8,17.2-15.4,24.4c-0.5,0.5-1,0.9-1.5,1.4l4.6,15.8c0,0-11.9,8-18.8,7.8
				l-7.1-10c-3.1,1.3-6.4,2.5-9.7,3.5c-4,1.2-8,2.1-11.9,2.7l-0.5,12.4c-5.7,3.9-20,3.6-20,3.6l-4.6-15.8
				c-18.9-3.1-34-14.1-39.5-32.9c-0.5-1.6-0.9-3.2-1.1-4.8c-3,0.3-6,0-8.6-1.5c-2-1.2-3.4-2.9-4.3-5
				C54.6,256.7,53.9,254.4,54.6,252.3z"/>
			<path class="st10" d="M138.8,202.1l-0.5,6.3c0,0-19.7,0.3-37.6,11l-5.3-2.8C95.4,216.6,109.9,198.9,138.8,202.1z"/>
			<path class="st11" d="M71.4,269.2c10.5,11.4,25.7,17,41,18.8c11.3,1.4,23.3,1.1,34.6-1.6c16.4-3.9,30.3-13.1,42.9-23.6
				c0.6-0.5,1.1-0.9,1.6-1.4c-3,6.2-7.3,12.1-12.7,17.4c-8.4,8.1-19.5,14.7-32.5,18.5c-34.4,10.1-67.5,0.2-76.5-29.8
				C70.4,268,70.9,268.6,71.4,269.2z"/>
			<path class="st11" d="M191.4,222.3c0,0,11,18.6,2.9,32.4l4.8-2.2C199.1,252.5,201.5,233,191.4,222.3z"/>
		</g>
		<g>
			<path class="st0" d="M530.3,358c0,0-40.4,19.7-52.5,12.4c-1.5-0.9-37.5-15.2-37.5-15.2l-7.4,8.3l41.3,28.2l13.7,2.3l34.7-9.9
				L530.3,358z"/>
		</g>
		<g>
			<g>
				<g>
					<path class="st0" d="M552,358.7c0.2,0.1,0.3,0.1,0.5,0.2c8.2,3.2,14.6,17.4,18.3,25.8c9.5,21.6,13.7,44.2,14.5,68.1
						c0.4,12.9,0.3,25.8-0.1,38.7c-0.1,3.6-3.1,35.4-1.6,36.2c-16.2-7.8-32.7-15.1-49.9-19.5c-17.2-4.4-35.4-5.9-52.8-1.8
						c5.2-40.5,12.8-81.7,23.8-120.8c1.3-4.7,2.2-9.7,4.1-14.1c2.2-5.1,5.6-6.6,9.9-9.6c1.5-1,2.9-2.1,4.6-2.8
						C531.9,355.2,543.4,355.5,552,358.7z"/>
				</g>
				<g>
					<g>
						<g>
							<polygon class="st12" points="577.1,486 558.7,561.4 558.4,616.9 549.4,618.8 545.8,567.2 536.8,472.7 							"/>
						</g>
					</g>
					<g>
						<polygon class="st5" points="549.3,620.4 547.9,626 549.2,637.1 556.5,637.1 559.2,621.1 558.3,618.4 						"/>
					</g>
				</g>
				<g>
					<g>
						<polygon class="st12" points="506.3,477.8 504.8,542.9 513.6,634.8 522.5,635.4 525.6,551.2 543.5,474.7 						"/>
					</g>
					<g>
						<polygon class="st5" points="513.9,633.3 501.9,639.7 502.9,645.2 524,642.6 523,634.6 						"/>
					</g>
				</g>
				<g>
					<polygon class="st0" points="503.7,486.2 497.8,561.4 504,613 528.1,611.6 532.3,552.9 542.6,489 541,479 506.2,479.6 					"/>
				</g>
				<g>
					<polygon class="st0" points="540.3,555.9 543.3,609.8 564.2,608.7 563.7,557.5 576.8,493.3 573.7,475.3 538.5,477.6 					"/>
				</g>
				<g>
					<path class="st13" d="M491.3,487.6c21.6,3.2,57.4,5.7,79,8.9c1.1-39-2.8-84-12.3-121.7c-1.7-6.8-4.3-14.2-10.2-17.7
						c-6.4-3.7-20-3.2-23.9,4.1c-5.7,10.6-6.8,27.5-9.3,39.3C508.8,427.3,494.8,460.5,491.3,487.6z"/>
				</g>
				<g>
					<g>
						<path class="st12" d="M524.8,326.9c5.7-15.2,24.8-9.1,28.3,4.6c2.3,9-5,20.6-14,22.8c0.2,2.2,0.3,4.5,0.2,6.7
							c-2.4-0.3-4.9-0.5-7.3-0.8c-0.8-0.1-1.6-0.2-2-0.9c-0.2-0.4-0.2-0.9-0.1-1.3c0.2-1.5,0.4-3.1,0.5-4.6
							c-0.2-0.1-0.4-0.2-0.5-0.3c-4.3-2.3-6.9-7.1-7.5-11.9C521.9,336.3,523.1,331.4,524.8,326.9z"/>
					</g>
					<g>
						<g>
							<g>
								<path class="st5" d="M526.1,331.5c-3.2,4.3-2.6,10.3-2,15.4c0.5,4.5,0.3,7.3-4.7,6.9c-2.8-0.3-7.8-0.7-9.4-3.5
									c-1.2-2.1,1.3-6.4,2.8-8c1.1-1.2,3.1-1.4,4.2-2.6c0.5-0.5,0.7-1.2,0.9-1.8c0.9-2.6,1.4-5.4,1.5-8.1c0.1-1.9-0.1-3.8,0.4-5.6
									c0.6-2.6,3.5-5,5.2-7.1c3.2-3.8,11.4-7.7,15.5-2.5c0.9,1.2,1.2,2.7,1.3,4.2c0.1,0.9,0.1,1.8-0.1,2.7c-1.1,3.4-4.4,2.9-7,3.8
									C531.1,326.4,528.1,328.7,526.1,331.5z"/>
							</g>
							<g>
								<path class="st5" d="M550.3,340.5c-0.6,2.5-2.7,4.7-2.1,7.2c0.3,1.1,1.1,2,1.7,2.9c1.7,2.6,1.8,6.1,0.4,8.8
									c4.9,1.4,9.7,2.8,14.6,4.2c0.7,0.2,1.5,0.4,2.2,0.3c1.6-0.4,2.3-2.2,2.7-3.8c0.8-3.1,1.7-6.4,0.6-9.4
									c-0.5-1.4-1.4-2.6-1.9-4c-2.4-6.7,4.8-14.7,1.2-20.9c-1.6-2.7-4.9-4-7.3-6.1c-4.2-3.6-5.7-9.8-10.2-13.1
									c-8.4-6.4-21.4,2.1-18.6,12.4C535.9,327.2,552.8,330.6,550.3,340.5z"/>
							</g>
						</g>
					</g>
				</g>
				<g>
					<path class="st0" d="M551.4,359.8c0,0,7,96.8-8,115.9S522,502,522,502l61.6,25.6C583.7,527.6,582.1,386.5,551.4,359.8z"/>
				</g>
			</g>
		</g>
		<g>
			<path class="st14" d="M277.2,356.9c0,0-36.5,26.3-49.7,21.1c-1.7-0.7-39.6-8.6-39.6-8.6l-5.9,9.4l45.5,20.8h13.9l32.5-15.7
				L277.2,356.9z"/>
		</g>
		<g>
			<g>
				<g>
					<path class="st5" d="M171,322.9c0,0,5.6,2.8,6.6,17.6c1,14.8,4.4,23.9,4.4,23.9s-4.4,3.3-8.5,1.9s-5.5-1.6-5.5-7.7
						s-3.5-34.4-3.5-34.4L171,322.9z"/>
				</g>
			</g>
			<g>
				<g>
					<path class="st5" d="M160.3,330.4c5.8,0.3,11.2,4.3,13,9.8c2.3-3.4,2.9-8,1.4-11.9s-4.9-7-8.9-8.1c-3,2.5-4.9,6.3-5.1,10.2
						H160.3z"/>
				</g>
			</g>
			<g>
				<polygon class="st2" points="153.4,365.3 116.5,366.1 103.5,306.3 91.2,308 91.2,381.2 113,391.7 152.8,397.3 				"/>
			</g>
			<g>
				<g>
					<g>
						<g>
							<polygon class="st5" points="136.8,630.8 136.2,636 145.6,642.8 151.3,638.3 146.9,632.3 137.5,625.5 							"/>
						</g>
					</g>
					<g>
						<g>
							<polygon class="st5" points="140.6,469.8 138.6,485.8 151.7,541 136.5,629 146.2,632.6 173.9,547 178.6,522 179.6,468.9
															"/>
						</g>
					</g>
				</g>
				<g>
					<g>
						<g>
							<polygon class="st5" points="215.5,489.3 191.7,636.7 182.3,636.5 182.7,541.7 167.1,474.8 							"/>
						</g>
					</g>
					<g>
						<g>
							<polygon class="st5" points="182.4,635.4 182.3,640.7 192.3,646.2 197.5,641 192.5,635.6 							"/>
						</g>
					</g>
				</g>
				<g>
					<g>
						<g>
							<path class="st2" d="M134.9,472.9c8.1-47.4,6.3-82.1,6.9-91.6S149,367,149,367c2.9-0.6,5.4-2.4,8.3-3.1
								c19.6-4.6,30,10.9,36.9,27.6c8.6,20.5,15.7,41.7,21.3,63.2c5,18.9,9.9,38,11.8,57.5c0.8,8.1,1.4,15.7-7.3,19.1
								c-13.8,5.4-29.2,4.9-43.7,6.4c-16.7,1.7-33.4,2.9-50.1,3.2C117.5,541.1,126.8,520.3,134.9,472.9z"/>
						</g>
					</g>
				</g>
			</g>
			<g>
				<polygon class="st12" points="95.5,307.5 88.4,300.1 91.1,287.2 98.2,287.4 100,298.6 103.6,300.9 103.5,306.3 				"/>
			</g>
			<g>
				<polygon class="st2" points="166.8,363.1 185.5,366.8 222.9,404.7 267.5,404 269.7,417.8 217.5,425.8 175.2,397.4 				"/>
			</g>
			<g>
				<polygon class="st13" points="171.4,364.2 173.8,414.9 148.9,366.2 156.5,363.7 161.9,362.2 				"/>
			</g>
			<g>
				<polygon class="st12" points="267.9,407.4 276.2,402.5 286.7,405.4 286.5,411 268.9,413.9 				"/>
			</g>
			<g>
				<g>
					<path class="st12" d="M173,335.1c-6.1-14.2-24.1-7.5-26.6,5.7c-1.5,7.5,2.2,20.7,11.2,21c0.4,1.3,1.2,3.7,2.3,4.4
						c1.3,0.7,4.5-1,5.8-1.6c0.4-0.2,0.7-0.4,0.9-0.7c0.3-0.4,0.1-1.3-0.1-2.3c1-0.3,1.9-0.7,2.9-1.3c4-2.4,6.2-7.1,6.5-11.7
						C176.2,344,174.8,339.4,173,335.1z"/>
				</g>
			</g>
			<g>
				<g>
					<path class="st5" d="M165.5,320.2c0,0,3.6,7.6-6.2,12.2c-9.8,4.5-14.6,14.1-10.9,22.2c3.7,8.1,12.7,12.6,9.2,15.8
						c-3.5,3.1-18.7,4.2-18.7,4.2s-15.7-27.9-6.5-43.6C141.4,315.3,158.7,311,165.5,320.2z"/>
				</g>
			</g>
		</g>
		<g>
			<g>
				<path class="st15" d="M396.2,111.9c-18.8-0.1-41.6,11.7-46.1,28.1c-6.8-15.6-36.3-23.2-54.9-20.3c-49.1,7.8-61.7,64.1-37.9,99.6
					c12.8,19.1,30.3,35.3,49.2,49.6c15.8,12,56.1,36.9,56.2,36.8c0.1,0.1,36.2-30.6,50-44.8c16.5-17,31.4-35.6,41.1-56.4
					C472,165.8,445.9,112.2,396.2,111.9z"/>
			</g>
		</g>
		<g>
			<g>
				<polygon class="st16" points="474.4,632.5 475.2,638.9 463.3,646.9 456.1,641.4 461.6,634.1 473.5,626.1 				"/>
				<g>
					<polygon class="st17" points="474.8,630.3 465.4,549 476.3,457.9 473.8,438.6 424.3,436.8 422.6,468.3 431.1,549.2
						462.5,634.5 					"/>
				</g>
				<g>
					<polygon class="st17" points="388.1,446 388.1,528.1 404.8,633.7 416.7,633.5 423,535.8 438.2,438 					"/>
					<polygon class="st16" points="416.7,638.6 403.9,645.1 397.4,638.8 403.7,632.3 416.6,632.1 					"/>
				</g>
				<g>
					<path class="st15" d="M481.5,473.7c-0.1-3.6-0.3-6.5-0.4-7.6c-0.3-9.5-1.1-19.1-2.4-28.5c-1.1-8.5-2.5-29.6-3.9-38
						c-1.2-7-5.4-24.3-8.5-30.8c-7.5-16.1-5.2-17.5-38.2-22.3c-14.5-2.1-17.9,7-29.7,17.3c-1.2,1-1.1,7.1-1.4,8.7
						c-0.5,2.8-1,5.7-1.6,8.5c-0.5,2.2-1,4.4-1.5,6.6l0,0c0,0-9.8,45.2-16.4,54.8c-6.5,9.6-20.1,23,2.6,31.2c4,1.3,8.1,2.5,12.3,3.2
						c0,0,18.5-2.1,28.1-2c8.8,0.1,17.6,0.9,26.2,2.4c5.8,1,11.7,2.3,16.8,5c4.9,2.6,8.5,6.3,13.5,9c0.5,0.3,1,0.5,1.5,0.4
						C481.6,491.3,481.7,481.2,481.5,473.7z"/>
				</g>
				<g>
					<path class="st4" d="M428.1,351.1c1.7,0.8,5.6,1.1,9.7-0.5c0.8-0.3,1.4-1.1,1.4-2c0-2.5-0.2-5-0.6-7.4c3.1-1.1,6.6-2.7,7.2-5.9
						c0.2-1,0-2-0.2-3.1c-0.7-4.2-1.5-8.4-2.2-12.5c-0.3-1.4-0.5-2.9-1.3-4.2c-1.4-2.2-4.1-3.1-6.6-3.6c-6.5-1.1-13.5,0.3-18.5,4.6
						c-1.3,1.1-2.5,2.5-3.1,4.1c-0.9,2.5-0.2,5.3,0.5,7.9c0.6,2.4,1.3,4.8,1.9,7.2c0.7,2.8,1.8,5.9,4.5,7c1.4,0.6,3.1,0.4,4.4,1.2
						C427.2,345.3,426.9,348.7,428.1,351.1z"/>
					<path class="st5" d="M390.7,309.5c-0.6-1-1.3-2-2.1-3c-1.7-2-3.7-3.8-5.1-6.1c-1.3-2.3-1.8-5.3-0.2-7.4c1-1.4,2.7-2,4.3-2.5
						c5.4-1.6,11.2-1.7,16.6-0.3c5.2,1.3,9.8,3.5,15,1.5c4.9-1.8,8.4-1.1,13.5,0.7c5.5,2,13,2.4,18,5.2c2.1,1.2,3.8,3,5.1,5
						c4.5,7,4.6,16.5,0.1,23.6c-1,1.6-2.2,3-3.5,4.4c-2.6,2.8-5.7,6.3-9.3,7.4c-0.1-3.2,2.8-13.3,0.3-16c-3.9-4.2-12.8-2.7-17.6-1.7
						c-5.3,1.1-10,4.9-15.3,5.7c-3.8,0.6-8.6-1.3-11.8-3.2C394.9,320.3,393,313.3,390.7,309.5z"/>
				</g>
			</g>
			<g>
				<polygon class="st4" points="322.3,366.8 312,360.2 314.6,355.7 322.6,358.7 322.9,356 331,362.7 328.9,367.7 				"/>
				<polygon class="st15" points="418,348.1 364.7,370 331,362.7 327.7,369.1 358.4,391.7 400.8,386.5 				"/>
			</g>
			<g>
				<polygon class="st4" points="492.1,265.3 491.2,252 485.5,252.1 484.1,261.4 481.4,260.2 483.5,271.5 489.5,272.2 				"/>
				<polygon class="st15" points="440.9,355.4 470.1,316.5 483.5,271.5 491.5,271.8 491.6,323.8 464,378.8 				"/>
			</g>
		</g>
		<g>
			<g>
				<g>
					<polygon class="st8" points="269.9,638.3 269.7,643.8 280.6,650 286.4,644.7 281.1,638.8 270.2,632.7 					"/>
					<polygon class="st6" points="260.8,468.9 259.9,485.8 278.9,560.4 269.4,636.4 280.4,639.2 310.7,547.8 311.2,520.3
						303.5,463.9 					"/>
				</g>
				<g>
					<polygon class="st6" points="344.1,467.1 352.7,537.9 349.3,630.8 339,632 323.3,548.3 300,465.4 					"/>
					<polygon class="st8" points="339.6,636.3 351.3,640.6 356.2,634.5 350.1,629.5 339,630.7 					"/>
				</g>
			</g>
			<g>
				<g>
					<path class="st14" d="M348.2,455.3c-10.6-21.5-14.9-45.2-20.5-68.4c-1.7-6.9-3.4-13.9-7.2-19.8c-4.4-6.8-10.5-9.8-17.2-11
						c-8.5-1.5-18.1,0.1-26.7,0.8c-5.1,16.2-8.5,7-14.6,22.8c-1.3,3.3-4.8,31.7-6.1,35l0,0c0,0-13.9,43.7-9.3,78.3
						c0,0.3,0.1,0.7,0.1,1c0.9,0.2,1.8,0.3,2.6,0.5c12,2.4,24.3,3.7,36.6,3.5c10.9-0.2,21.8-1.5,32.4-4.1
						c14.5-3.6,31.7-2.2,43.5-11.8C358.5,475,351.7,462.4,348.2,455.3z"/>
				</g>
				<g>
					<polygon class="st4" points="364.5,302.9 365.8,290.8 360.6,290.1 357.9,298.1 355.6,296.6 355.8,307.1 361,308.6 					"/>
					<polygon class="st14" points="306.3,356.7 340.4,338 355.8,307.1 362.9,308.6 361.2,346.7 321.7,388.5 					"/>
				</g>
				<g>
					<path class="st4" d="M269.9,329c4.3-13.7,24.2-18.7,29-2.9c1.5,4.7,2.4,9.8,1.5,14.7c-0.9,4.9-3.8,9.6-8.3,11.7H292
						c0.2,1.3,0.4,2.5,0.6,3.8c0,0.3,0.1,0.6-0.1,0.8c-0.2,0.3-0.5,0.3-0.8,0.4c-1.5,0.2-3,0.5-4.5,0.7c-0.7,0.1-1.5,0.2-2.2,0
						c-1.6-0.5-2.3-2.4-2.4-4c0-0.4,0-0.8,0-1.2C273.6,350,267.1,338,269.9,329z"/>
					<g>
						<path class="st5" d="M297.3,306.5c3.7-0.2,6.4,3.6,9.6,5.8c2.6,1.8,5.8,2.5,8.5,4.1c2.8,1.5,5.4,4.5,5.1,7.8
							c3.1-1.2,6.4-2.5,9.6-1.6s5.9,5.1,4.3,8.2c-1.4,2.8-5.3,3.1-6.8,5.8c-2.4,4.3,2.3,11.8-1.7,14.4c-0.9,0.6-2.2,0.7-3.1,1.4
							c-1.2,0.8-1.7,2.4-2.3,3.7c-2.8,6.1-9.6,9.7-15.8,8.2c-3.8-2.2-6.5-6.3-7.5-10.8c-1.2-5.4,1.8-7,2.7-11.9
							c1-5.3-0.1-11.2-3.1-15.7c-1.9-2.9-4.9-5.6-8.2-6.2c-1.3-0.3-1,0.9-2.4-0.3c-0.6-0.5-1.3-2.3-1.5-3.1
							C288.7,313.8,292.4,306.7,297.3,306.5z"/>
						<path class="st5" d="M258.2,309.5c-1.9,0.3-4,0.1-5.8,0.7c-2.8,0.9-2.9,3.7-3.9,6.1c-1.1,2.6-2.7,6.1-4.6,8
							c-1.4,1.4-3.3,2.1-4.9,3.1c-1.7,1-3.2,2.6-3.4,4.7c-0.2,2,1,3.9,1,5.9c0,3-0.7,4.4-0.1,7.5c0.3,1.6,0.7,3.3,1.8,4.5
							c1.4,1.5,3.6,1.7,5.5,1.6s4-0.5,5.8,0.3c4,1.8,2.8,5.8,3.6,9.4c1.2,5.5,7,9.1,11.9,7.7c4.1-1.2,6.9-5.6,7.1-10.2
							c0.1-2.3-0.6-4.5-0.4-6.8c0.1-2.2,1.7-5.1-0.2-7.1c-0.4-0.5-1.1-0.8-1.4-1.3c-0.3-0.4-0.5-1-0.5-1.5c-0.3-1.9,0.3-3.8,1.5-5.1
							c0.9-0.9,2-1.6,2.6-2.7c0.7-1.3,0.4-3,0.5-4.5c0.1-3.7,2.5-7.2,5.7-8.3c2.1-0.8,4-1.1,5.9-2.4c0.3-0.2,4.7-3.4,4.7-2.6
							c-0.1-1.4-0.7-2.6-1.4-3.8c-1.1-1.9-2.4-3.8-4.2-5c-5.6-4-6.7,4-11.4,2.5c-1.1-0.4-1.9-1.5-2.9-2.2c-1.8-1.4-4.3-1.2-6.4-0.5
							C262.3,308,260.4,309.1,258.2,309.5z"/>
					</g>
				</g>
			</g>
		</g>
		<g>
			<g>
				<g>
					<polygon class="st7" points="213,554 331.6,599.9 461.7,556.5 351.4,513.8 					"/>
				</g>
			</g>
			<g>
				<g>
					<g>
						<ellipse id="SVGID_1_" class="st13" cx="376.8" cy="561.1" rx="49.3" ry="49.3"/>
					</g>
					<g>
						<g>
							<defs>
								<circle id="SVGID_2_" cx="376.8" cy="561.1" r="49.3"/>
							</defs>
							<clipPath id="SVGID_3_">
								<use xlink:href="#SVGID_2_"  style="overflow:visible;"/>
							</clipPath>
							<g class="st18">
								<g>
									<path class="st19" d="M408.9,531.4l1.1-0.9c-0.2-0.3-5.8-7.7-16.9-12l-0.5,1.3C403.3,524.1,408.8,531.3,408.9,531.4z"/>
								</g>
								<g>
									<path class="st19" d="M344.6,531.3c0.1-0.1,5.6-7.4,16.3-11.4l-0.5-1.3c-11.1,4.2-16.7,11.6-17,11.9L344.6,531.3z"/>
								</g>
								<g>
									<path class="st19" d="M412.9,587.4c3.4-3.6,6-9.3,7.9-17c1.4-5.7,1.8-10.4,1.8-10.5l-1.4-0.1c0,0.2-1.7,18.5-9.3,26.6
										L412.9,587.4z"/>
								</g>
								<g>
									<path class="st19" d="M340.5,587.3l1-1c-7.6-8.2-9.2-26.4-9.2-26.6l-1.4,0.1c0,0.1,0.4,4.8,1.8,10.5
										C334.5,578,337.1,583.7,340.5,587.3z"/>
								</g>
								<g>
									<path class="st19" d="M375.8,606.4c6.4,0,11.5-1.2,11.8-1.3l-0.3-1.4c-0.1,0-11.6,2.8-21.7,0l-0.4,1.4
										C368.8,606.1,372.5,606.4,375.8,606.4z"/>
								</g>
							</g>
						</g>
					</g>
					<g>
						<g>
							<defs>
								<circle id="SVGID_4_" cx="376.8" cy="561.1" r="49.3"/>
							</defs>
							<clipPath id="SVGID_5_">
								<use xlink:href="#SVGID_4_"  style="overflow:visible;"/>
							</clipPath>
							<g class="st20">
								<polygon class="st5" points="376.8,542.6 393.6,554.8 387.1,574.5 366.4,574.5 360,554.8 								"/>
							</g>
						</g>
					</g>
					<g>
						<g>
							<defs>
								<circle id="SVGID_6_" cx="376.8" cy="561.1" r="49.3"/>
							</defs>
							<clipPath id="SVGID_7_">
								<use xlink:href="#SVGID_6_"  style="overflow:visible;"/>
							</clipPath>
							<g class="st21">
								<polygon class="st5" points="376.9,531.9 360.1,519.7 366.5,500 387.3,500 393.7,519.8 								"/>
							</g>
						</g>
					</g>
					<g>
						<g>
							<defs>
								<circle id="SVGID_8_" cx="376.8" cy="561.1" r="49.3"/>
							</defs>
							<clipPath id="SVGID_9_">
								<use xlink:href="#SVGID_8_"  style="overflow:visible;"/>
							</clipPath>
							<g class="st22">
								<g>
									<polygon class="st5" points="392.5,585.2 413.2,585.5 419.3,605.3 402.4,617.3 385.8,604.8 									"/>
								</g>
								<g>

										<rect x="388.9" y="568.5" transform="matrix(0.8952 -0.4456 0.4456 0.8952 -217.4618 234.3321)" class="st5" width="1.4" height="22.2"/>
								</g>
							</g>
						</g>
					</g>
					<g>
						<g>
							<defs>
								<circle id="SVGID_10_" cx="376.8" cy="561.1" r="49.3"/>
							</defs>
							<clipPath id="SVGID_11_">
								<use xlink:href="#SVGID_10_"  style="overflow:visible;"/>
							</clipPath>
							<g class="st23">
								<g>
									<polygon class="st5" points="404,550.6 408.7,530.4 429.4,528.7 437.4,547.8 421.7,561.4 									"/>
								</g>
								<g>

										<rect x="388.3" y="551.8" transform="matrix(0.9174 -0.398 0.398 0.9174 -186.8987 204.6038)" class="st5" width="22.2" height="1.4"/>
								</g>
							</g>
						</g>
					</g>
					<g>
						<g>
							<defs>
								<circle id="SVGID_12_" cx="376.8" cy="561.1" r="49.3"/>
							</defs>
							<clipPath id="SVGID_13_">
								<use xlink:href="#SVGID_12_"  style="overflow:visible;"/>
							</clipPath>
							<g class="st24">
								<g>
									<polygon class="st5" points="360.9,585.4 340.2,585.6 334,605.4 350.9,617.4 367.5,605.1 									"/>
								</g>
								<g>

										<rect x="352.7" y="579.1" transform="matrix(0.4489 -0.8936 0.8936 0.4489 -317.586 644.6074)" class="st5" width="22.2" height="1.4"/>
								</g>
							</g>
						</g>
					</g>
					<g>
						<g>
							<defs>
								<circle id="SVGID_14_" cx="376.8" cy="561.1" r="49.3"/>
							</defs>
							<clipPath id="SVGID_15_">
								<use xlink:href="#SVGID_14_"  style="overflow:visible;"/>
							</clipPath>
							<g class="st25">
								<g>
									<polygon class="st5" points="349.4,550.6 344.4,530.5 323.7,529 315.9,548.2 331.8,561.6 									"/>
								</g>
								<g>

										<rect x="353.3" y="541.4" transform="matrix(0.3878 -0.9217 0.9217 0.3878 -292.5402 664.4779)" class="st5" width="1.4" height="22.2"/>
								</g>
							</g>
						</g>
					</g>
					<g>
						<g>
							<defs>
								<circle id="SVGID_16_" cx="376.8" cy="561.1" r="49.3"/>
							</defs>
							<clipPath id="SVGID_17_">
								<use xlink:href="#SVGID_16_"  style="overflow:visible;"/>
							</clipPath>
							<g class="st26">

									<rect x="365.2" y="532.5" transform="matrix(1.866206e-03 -1 1 1.866206e-03 -157.0478 909.116)" class="st5" width="23.4" height="1.4"/>
							</g>
						</g>
					</g>
				</g>
			</g>
			<polygon class="st7" points="331.5,698.2 212.8,638.2 213,554 331.6,599.8 			"/>
			<polygon class="st2" points="331.5,698.2 461.6,641 461.7,556.4 331.6,599.8 			"/>
			<g id="XMLID_1750_">
				<path id="XMLID_1768_" class="st9" d="M321.3,533c-5.8,1.9-9,8.1-7.2,13.9l0,0c1.9,5.8,8.1,9,13.9,7.2l15.3-4.9
					c5.8-1.9,9-8.1,7.2-13.9l0,0c-1.9-5.8-8.1-9-13.9-7.2L321.3,533z"/>
				<path id="XMLID_1767_" class="st9" d="M337.5,568.7c-6.6-3.4-14.7-0.8-18.1,5.8l0,0c-3.4,6.6-0.8,14.7,5.8,18.1l17.3,8.9
					c6.6,3.4,14.7,0.8,18.1-5.8l0,0c3.4-6.6,0.8-14.7-5.8-18.1L337.5,568.7z"/>
				<path id="XMLID_1766_" class="st9" d="M280.8,586.9c3.4-6.6,11.5-9.2,18.1-5.8l0,0c6.6,3.4,9.2,11.5,5.8,18.1l-8.9,17.3
					c-3.4,6.6-11.5,9.2-18.1,5.8l0,0c-6.6-3.4-9.2-11.5-5.8-18.1L280.8,586.9z"/>
				<path id="XMLID_1765_" class="st9" d="M257,553.6c-5.8,1.9-9,8.1-7.2,13.9l0,0c1.9,5.8,8.1,9,13.9,7.2l15.3-4.9
					c5.8-1.9,9-8.1,7.2-13.9l0,0c-1.9-5.8-8.1-9-13.9-7.2L257,553.6z"/>
				<path id="XMLID_1764_" class="st9" d="M278.8,584.1c5.2,16.2,22.5,25.1,38.7,19.9l0,0c16.2-5.2,25.1-22.5,19.9-38.7l-3.4-10.7
					c-5.2-16.2-22.5-25.1-38.7-19.9l0,0c-16.2,5.2-25.1,22.5-19.9,38.7L278.8,584.1z"/>
				<g id="XMLID_1751_">
					<ellipse id="XMLID_1763_" class="st9" cx="289.9" cy="517.7" rx="33.2" ry="33.2"/>

						<ellipse id="XMLID_1762_" transform="matrix(0.9525 -0.3047 0.3047 0.9525 -148.8186 115.3996)" class="st13" cx="295.3" cy="534.5" rx="28.2" ry="15.6"/>
					<g id="XMLID_1759_">
						<ellipse id="XMLID_1761_" class="st9" cx="310.1" cy="490.5" rx="15.5" ry="15.5"/>
						<circle id="XMLID_1760_" class="st9" cx="257.7" cy="507.3" r="15.5"/>
					</g>
					<g id="XMLID_1756_">
						<path id="XMLID_1758_" class="st6" d="M300.4,509c0.6,1.8,2.5,2.8,4.3,2.2s2.8-2.5,2.2-4.3c-0.6-1.8-2.5-2.8-4.3-2.2
							C300.8,505.3,299.9,507.2,300.4,509z"/>
						<path id="XMLID_1757_" class="st6" d="M269.8,518.8c0.6,1.8,2.5,2.8,4.3,2.2s2.8-2.5,2.2-4.3s-2.5-2.8-4.3-2.2
							S269.3,517,269.8,518.8z"/>
					</g>
					<path id="XMLID_1755_" class="st6" d="M284.5,533.5c0.5-0.9,1.6-1.3,2.6-0.8c1.9,1,4,1.3,5.9,1.1l-2.4-7.7
						c-4.3-1.4-5-4.4-5-4.4c-0.5-1.5,0.3-3.3,1.8-3.8l4.7-1.5c1.5-0.5,3.2,0.5,3.7,2l0,0c0.1,0.3,1,3.1-1.6,6.5l2.4,7.7
						c1.8-1,3.2-2.4,4.2-4.3c0.5-0.9,1.6-1.3,2.6-0.8c0.9,0.5,1.3,1.6,0.8,2.6c-1.8,3.5-4.8,5.9-8.3,7c-3.4,1.1-7.3,0.9-10.8-0.9
						C284.4,535.6,284,534.5,284.5,533.5z"/>
					<g id="XMLID_1752_">
						<path id="XMLID_1754_" class="st13" d="M313.4,483.7c3.9,2.5,5.1,7.6,2.6,11.5l-14.1-8.9C304.4,482.4,309.5,481.3,313.4,483.7
							z"/>
						<path id="XMLID_1753_" class="st13" d="M251.1,503.7c1.7-4.3,6.6-6.3,10.9-4.6l-6.3,15.4C251.4,512.8,249.3,507.9,251.1,503.7
							z"/>
					</g>
				</g>
			</g>
			<polygon class="st27" points="331.6,599.8 354.7,639.5 481,589.7 461.6,556.4 			"/>
			<polygon class="st2" points="191.6,580.4 304.3,634 331.6,599.8 212.8,554 			"/>
		</g>
	</g>
</g>
</svg>
