<?xml version="1.0" encoding="utf-8"?>
<!-- Generator: Adobe Illustrator 23.0.1, SVG Export Plug-In . SVG Version: 6.00 Build 0)  -->
<svg version="1.1" id="Layer_1" xmlns="http://www.w3.org/2000/svg" xmlns:xlink="http://www.w3.org/1999/xlink" x="0px" y="0px"
	 viewBox="0 0 800 800" style="enable-background:new 0 0 800 800;" xml:space="preserve">
<style type="text/css">
	.st0{fill:#EACDB0;}
	.st1{fill:#8CABEF;}
	.st2{fill:#5D66D3;}
	.st3{fill:#D67086;}
	.st4{opacity:0.1;}
	.st5{fill:#3B3387;}
	.st6{fill:#BABCBE;}
	.st7{fill:#1D1D33;}
	.st8{fill:#FFFFFF;}
	.st9{fill:#292949;}
	.st10{fill:#474EBB;}
	.st11{opacity:0.1;enable-background:new    ;}
	.st12{fill:#403C99;}
	.st13{fill:#FFF5CC;}
	.st14{fill:#353A85;}
	.st15{fill:#DDDAE8;}
	.st16{fill:#B99A6F;}
	.st17{fill:#E4E4E4;}
</style>
<g id="Object">
	<g>
		<g>
			<polygon class="st0" points="195.7,293.9 199.2,289.2 198.4,284.2 199.3,283.4 200.3,284.6 200.8,280.2 203.4,277.8 208,278.6
				211.3,282.3 209.9,286.9 205.8,290.8 201.3,297.4 			"/>
			<path class="st1" d="M205.8,295.7c-2.7,5.4-5.3,10.9-8,16.3c-14.7,29-30.3,44.2-34.5,52.2c-0.2,0.3-0.4,0.7-0.8,0.8
				c-0.2,0.1-0.5,0-0.8-0.1c-1.3-0.4-2.7-0.7-4-1.1c-2.9-0.8-5.8-1.7-8.6-2.7c-2.6-0.9-5.9-3.2-5.2-5.7c0.4-1.5,26.4-29.2,27.3-30.5
				c3.4-5,6.9-9.9,10.3-14.9c5.1-7.4,10.2-14.7,15.3-22.1L205.8,295.7z"/>
		</g>
		<g>
			<g>
				<g>
					<path class="st1" d="M229.6,195.3c0.2,1.5-0.6,3-1.4,4.3c-5.4,8.4-18.4,17.8-27.8,12.7c1-0.2,3.7-0.3,5.8-0.9
						c5-1.3,8-6.6,10.5-11.4c1.5-2.9,1.5-11,4.7-12.3C224.5,186.5,229.1,192.2,229.6,195.3z"/>
					<path class="st2" d="M201.3,201.2c2-4.9,4.2-8,7-11.6c2.9-3.6,6.9-6.3,11.3-6.6c0.5,0,1.1,0,1.6,0.2c0.6,0.3,1,0.8,1.4,1.2
						c2.2,2.7,6.4,6.2,6.9,10.1c-7.7-0.3-15.7,2.8-21.7,7.8c-4.5,3.7-7,10.3-7.5,10.3C195.6,212.9,200.3,203.5,201.3,201.2z"/>
				</g>
				<g>
					<path class="st1" d="M167.4,205c0.2,1.5,1.4,2.7,2.5,3.7c7.5,6.6,22.6,12,30.2,4.6c-1.1,0-3.7,0.7-5.8,0.7
						c-5.2,0.1-9.5-4.2-13.2-8.1c-2.3-2.4-4.5-10.2-7.9-10.5C169.9,195.2,167,202,167.4,205z"/>
					<path class="st2" d="M196.2,203c-3.3-4.1-6.2-6.6-9.9-9.2c-3.7-2.6-8.3-4.2-12.7-3.3c-0.5,0.1-1,0.3-1.5,0.6
						c-0.5,0.4-0.7,1-1,1.6c-1.4,3.2-4.4,7.7-3.9,11.6c7.4-2.4,15.8-1.6,23,1.6c5.4,2.4,9.5,8,10,7.9
						C205,212.7,197.8,204.9,196.2,203z"/>
				</g>
			</g>
			<g>

					<rect x="161" y="212.7" transform="matrix(0.9904 -0.1384 0.1384 0.9904 -32.7485 30.9781)" class="st3" width="90.7" height="76.5"/>

					<rect x="150.9" y="213" transform="matrix(0.9904 -0.1384 0.1384 0.9904 -28.8689 30.159)" class="st3" width="103.1" height="19.3"/>
			</g>
			<g class="st4">
				<polygon points="162.7,238 248.7,226 249.6,232.8 				"/>
			</g>
			<path class="st2" d="M216.5,288.2l-11.1,1.5L194.6,213c-0.1-0.8,0.4-1.5,1.2-1.6l8.4-1.2c0.8-0.1,1.4,0.4,1.6,1.2L216.5,288.2z"
				/>
		</g>
		<polygon class="st5" points="267.4,337.8 299.8,333.6 324.1,303.1 332.4,310.9 307.1,347.4 274.1,355.5 263.2,346.5 263.9,337.7
					"/>
		<path class="st5" d="M550.4,313.2c-0.6-0.1-11.6,2.6-11.6,2.6l-28.5,21.6h-39.1l-1.8,11l47.3,9.2L550.4,313.2z"/>
		<g>
			<g>
				<polygon class="st6" points="492.1,421.6 484.5,492.1 489,584.4 499.3,585.3 513.8,502 535.8,419.4 				"/>
			</g>
			<polygon class="st7" points="571,585.6 563.2,594.1 566,598.2 581.7,592.6 580.6,584.3 			"/>
			<polygon class="st6" points="533.4,453.2 549.6,520.4 568,587 581.6,584.6 571.9,514.2 571.7,447.8 551.1,441.3 			"/>
			<path class="st5" d="M552.4,312.3c0,0-19.3,6.8-38.7,39.6c-19.8,33.4-30.2,81.6-30.2,81.6s90.1,39.6,92.1,23.4
				c0,0,34.9-125.8-6-139.4C567.7,316.9,553.7,311.8,552.4,312.3z"/>
			<path class="st8" d="M557.3,313.2c-11.4,15.5-22.7,34.2-34.3,49.5c-6.9,9.1-9.6,19.8-13,30.5c-3.3,10.7-6.7,21.3-10,32
				c-1.4,4.5-2.8,9-4.2,13.5l38.3,14c1-13.7,1.7-27.4,3-41c1.2-12.6,1.7-26.9,7-38.6c2.6-5.7,5.2-11.3,7.9-17
				c4.8-10.4,8.5-21.3,13.4-31.7c0.3-0.7,1.1-7.3,1.1-8.1L557.3,313.2z"/>
			<g>
				<path class="st0" d="M556.4,315.5c3.2,0.5,6.3,1,9.5,1.5c0.7-2.5,1.2-5,1.5-7.5c2.8-0.2,6.1-0.8,7.3-3.3
					c0.4-0.8,0.5-1.7,0.5-2.6c0.3-3.7,0.7-7.3,1-10.9c0.1-1.3,0.2-2.6-0.2-3.8c-0.7-2.1-2.7-3.5-4.7-4.4c-5.2-2.4-11.4-2.8-16.5-0.4
					c-1.4,0.6-2.7,1.5-3.5,2.8c-1.3,1.9-1.4,4.4-1.4,6.7c0,2.2,0,4.3,0,6.4c0,2.5,0.2,5.3,2.2,6.8c1.1,0.8,2.5,1,3.4,2
					C557,310.5,556,313.2,556.4,315.5z"/>
				<polygon class="st9" points="545.4,287.9 550,300.6 550.2,289.5 				"/>
				<path class="st9" d="M535.6,272.6c0.6-2.4,1.6-4.7,2.6-6.8c1.8-3.5,6.7-4,10.6-3.3c8.4,1.6,17.4,0,24.7,5
					c4.2,2.9,10.3,4.9,13.8,8.4c1.5,1.4,2.5,3.3,3.1,5.3c2.2,6.8,0.1,14.8-5.2,19.7c-1.2,1.1-2.5,2-3.9,2.9c-2.8,1.8-6.2,4-9.4,4.1
					c0.6-2.7,5.3-10.5,3.9-13.2c-2.3-4.4-10-5.1-14.3-5.3c-4.7-0.2-9.4,1.8-14,1.3c-3.3-0.4-6.9-3-9.1-5.3
					C534.8,281.6,534.5,277,535.6,272.6z"/>
			</g>
			<polygon class="st7" points="488.9,584.2 479.5,589.7 480.7,593.9 496.9,592.3 497.7,585.2 			"/>
		</g>
		<g>
			<g>
				<g>
					<path class="st5" d="M487.1,251c-0.6,3.6-3.3,6.3-6,8.6c-17.9,15.1-53.6,27.2-71.1,9.5c2.5,0.2,8.6,1.8,13.7,2
						c12.1,0.5,22.6-9.3,31.4-18.3c5.4-5.5,11-23.7,19-24.3C481.8,227.9,488.3,243.9,487.1,251z"/>
					<path class="st10" d="M419.6,245c7.9-9.5,14.9-15.1,23.7-21.2c8.9-6,19.8-9.5,29.9-7.1c1.2,0.3,2.4,0.7,3.4,1.5
						c1.1,1,1.7,2.4,2.2,3.7c3.1,7.6,10,18.4,8.5,27.5c-17.1-6-37.1-4.5-54.1,2.6c-12.7,5.3-22.7,18.3-23.9,18
						C398.7,267.3,415.9,249.5,419.6,245z"/>
				</g>
				<g>
					<path class="st5" d="M341,230.1c-0.6,3.6,1.2,7,3,10c12.3,20,42.4,42.6,64.6,31.2c-2.4-0.6-8.7-1-13.6-2.4
						c-11.6-3.3-18.5-15.9-24.1-27.2c-3.4-6.9-3.1-25.9-10.5-29C353.3,209.9,342.1,223,341,230.1z"/>
					<path class="st10" d="M407,245.5c-4.5-11.5-9.4-19-15.9-27.5c-6.5-8.5-15.8-15.2-26.2-16c-1.2-0.1-2.5-0.1-3.7,0.4
						c-1.3,0.6-2.3,1.7-3.3,2.9c-5.3,6.2-15.2,14.3-16.7,23.5c18.2-0.3,36.6,7.3,50.5,19.3c10.4,9,15.9,24.5,17,24.6
						C420,273.2,409.1,250.9,407,245.5z"/>
				</g>
			</g>
			<g>

					<rect x="307" y="253.7" transform="matrix(0.1582 -0.9874 0.9874 0.1582 -21.5462 694.889)" class="st2" width="179.4" height="212.8"/>

					<rect x="384.7" y="172.9" transform="matrix(0.1582 -0.9874 0.9874 0.1582 52.7705 649.6252)" class="st1" width="45.3" height="241.8"/>
			</g>
			<polygon class="st11" points="508.8,333.1 412.7,317.6 402.4,315.7 402.4,316 307.7,300.8 401.2,323.5 381.4,448.3 399.6,451.3
				418.7,328 506.3,349 			"/>
			<path class="st10" d="M393.8,450.5l-26-4.2l28.7-179.4c0.3-1.8,1.9-3.1,3.7-2.8l19.7,3.1c1.8,0.3,2.9,2,2.6,3.8L393.8,450.5z"/>
		</g>
		<polygon class="st11" points="463.4,402.7 506.6,402.5 509.9,381.8 466.2,393 		"/>
		<path class="st12" d="M576.5,321.4c0,0-8.4,2.9-9,4.5c-0.6,1.5-29.1,46.1-29.1,46.1l-58.8,14.2l2.8,13.4l54.2-6l19.8-1.4
			l31.7-45.9l-1.1-16.2L576.5,321.4z"/>
		<polygon class="st0" points="480,388.9 467.5,388.9 459.3,397.2 463.4,402.7 482,398.3 		"/>
		<g>
			<g>
				<g>
					<polygon class="st7" points="219.2,586.8 218.1,591.1 225.2,597.8 230.4,594.6 227.4,589.1 220.3,582.5 					"/>
					<polygon class="st9" points="239.7,452.7 236.3,465.9 241.3,513.4 219.1,585.3 226.8,589.3 259.2,520.8 265.8,500.4
						272.3,456.2 					"/>
				</g>
				<g>
					<polygon class="st9" points="299.9,465.1 295,590.8 287.1,591.6 277.8,512.2 258,457.9 					"/>
					<polygon class="st7" points="287.1,590.6 287.5,595.1 296.4,598.7 300.2,593.8 295.5,589.8 					"/>
				</g>
				<g>
					<path class="st5" d="M233.8,438.6c6.7-44.2,4.3-76.5,4.7-85.3s6.6-13.4,6.6-13.4c2.7-0.6,5.1-2.4,7.8-3.1
						c18.6-4.7,28.8,9.5,35.7,24.9c8.6,18.9,15.8,38.4,21.6,58.3c5.1,17.5,10.2,35.1,12.4,53.3c0.9,7.5,1.6,14.6-6.6,17.9
						c-13.1,5.3-27.7,5.1-41.5,6.8c-15.8,1.9-31.7,3.4-47.7,4C218.6,502.3,227,482.8,233.8,438.6z"/>
				</g>
			</g>
			<path class="st13" d="M249,338.4c0,0,0.6,13.9,9,14.4c8.4,0.4,13.2-3.5,12.8-8.4c-0.4-4.8-2.8-7.1-2.8-7.1S257.7,332.8,249,338.4
				z"/>
			<polygon class="st5" points="320,335.4 295.9,365.2 250.6,344.1 239.2,346.6 238.7,352.3 240.5,367.1 297.9,387.8 311.7,380.9
				330.1,339.5 			"/>
			<g>
				<path class="st9" d="M278.7,324.6c-4.5-2.1-6.1-6.3-6.7-8.8c-0.1-0.7-0.2-1.4-0.3-2v0v0c-1.7-8.8-5.4-10.6-5.4-10.6l0,0
					c-1.3-1.1-2.8-1.9-4.5-2.2c-2.5,2.3-4.1,5.5-4.3,8.9l-0.4,0c1.5,0,3.1,0.4,4.5,1c1.1,7.6,2.7,19.7,2.8,23.3
					c0.1,5.3,1.3,5.4,4.9,6.5c2.2,0.7,4.5-0.2,5.9-0.9l0,0C280,338.7,285.3,327.7,278.7,324.6z"/>
				<g>
					<path class="st0" d="M268.2,313.8c-5.6-12.2-20.9-6-22.9,5.5c-1.1,6.5,2.3,17.8,10.1,18c0.4,1.1,1.1,3.2,2.1,3.7
						c1.1,0.6,3.9-0.9,5-1.5c0.3-0.2,0.6-0.3,0.8-0.6c0.2-0.4,0.1-1.2-0.1-2c0.8-0.3,1.7-0.7,2.5-1.2c3.4-2.1,5.2-6.2,5.4-10.2
						C271.1,321.4,269.8,317.5,268.2,313.8z"/>
				</g>
				<path class="st9" d="M257.8,311.7c8.8-3.2,6.3-10,6.3-10c-7.2-10.3-22.6-3.6-22.6-3.6s-8,4.4-9.5,14c-0.1,0.9-0.2,1.7-0.3,2.5
					c-0.3,2.4-0.7,7.6-0.5,10.1c0,3.1-0.2,5.4-2.4,8.3c-4.1,5.3,0.9,7.6,3,9.2c2,1.6-2,13.5,13.2,9c9.9-5.1,12.2-5.1,8.5-10.5l0,0
					c-1.6-2.6-5.1-6.1-6.7-10.7C244.1,322.7,249,314.8,257.8,311.7z"/>
			</g>
			<polygon class="st0" points="321.1,335.9 325,328.1 334.2,326.7 334.2,337.7 329.1,339.1 			"/>
		</g>
		<g>
			<g>
				<polygon class="st7" points="88.2,588 87.5,593.6 98.1,600.6 104.4,595.7 99.4,589.4 88.9,582.4 				"/>
				<polygon class="st14" points="91,416.2 88.9,433.3 102.8,510 87.8,586.1 98.7,589.7 135.8,499.6 138.2,471.8 134.5,414.2
					"/>
			</g>
			<g>
				<polygon class="st14" points="167.3,422 168.1,494.2 154.5,587.4 144,587.4 137.4,501.4 123.1,415.5 				"/>
				<polygon class="st7" points="155.4,586.2 144.1,586.2 144.1,591.8 155.4,597.5 161,591.8 				"/>
			</g>
			<path class="st1" d="M89.6,435.8c-0.1,6.6,0.1,15.5,2.6,15.8c0.5,0.1,0.9-0.2,1.3-0.4c4.4-2.4,7.5-5.8,11.8-8.1
				c4.5-2.4,9.7-3.7,14.8-4.6c7.6-1.4,15.3-2.3,23.1-2.4c8.4-0.1,24.7,1.5,24.7,1.5c4.7-0.8,9.2-2.4,13.8-3.9
				c7.8-2.6,15.7-4.9,23-8.5c2.3-1.2,8.8-4.6,6.5-7.7c-1.7-2.4-7.7-3.9-10.4-5.4c-6-3.2-11.7-6.9-16.8-11.4
				c-7.2-6.3-12.5-14-15.8-22.8c-1.7-4.4-2.9-8.9-3.9-13.5c-0.5-2.5-1-5-1.5-7.5c-0.3-1.4-0.2-6.8-1.3-7.7
				c-10.5-9-13.6-16.9-26.3-15c-29,4.5-27,5.8-33.4,20c-2.6,5.7-6.1,21.1-7.1,27.2c-1.2,7.4-2.3,14.9-3.2,22.4
				c-1,8.4-1.6,16.7-1.8,25.2C89.8,430.1,89.7,432.7,89.6,435.8z"/>
			<g>
				<polygon class="st15" points="115,320.2 103.8,342.6 160.6,359 162.3,344.1 				"/>
				<polygon class="st15" points="144.4,324.1 131.2,328.4 110.6,344.6 108.2,438.2 145.9,432.8 137.1,353.4 157,341.3 162.3,335
									"/>
			</g>
			<g>
				<path class="st0" d="M134.7,330.4c-3.2-0.4-6.5-0.9-9.7-1.3c0.1-2.6,0.3-5.2,0.8-7.8c-2.7-1-5.7-2.6-6.1-5.4
					c-0.1-0.9,0.1-1.8,0.3-2.7c0.8-3.7,1.5-7.3,2.3-11c0.3-1.3,0.6-2.6,1.3-3.6c1.3-1.9,3.7-2.6,5.9-2.9c5.7-0.8,11.9,0.7,16.2,4.6
					c1.1,1,2.2,2.3,2.6,3.7c0.7,2.3,0,4.7-0.7,7c-0.6,2.1-1.3,4.2-1.9,6.3c-0.7,2.4-1.8,5.2-4.1,6c-1.3,0.4-2.7,0.2-3.9,0.9
					C135.7,325.3,135.9,328.3,134.7,330.4z"/>
				<path class="st9" d="M169,294.9c0.6-0.9,1.2-1.8,1.9-2.6c1.5-1.7,3.4-3.2,4.6-5.2c1.3-2,1.8-4.6,0.4-6.5
					c-0.9-1.2-2.3-1.9-3.7-2.3c-4.7-1.6-9.8-1.8-14.6-0.8c-4.6,1-8.7,2.8-13.3,0.9c-4.2-1.8-7.4-1.2-11.9,0.2
					c-4.9,1.6-11.5,1.7-16,4c-1.9,1-3.4,2.5-4.6,4.2c-4.2,6-4.5,14.4-0.8,20.7c0.8,1.4,1.8,2.7,2.9,4c2.2,2.6,4.8,5.8,8,6.8
					c0.2-2.8-2.1-11.8,0.2-14.1c3.6-3.6,11.3-2,15.6-0.9c4.6,1.2,8.7,4.6,13.3,5.5c3.3,0.6,7.6-0.8,10.5-2.5
					C165,304.3,166.8,298.2,169,294.9z"/>
			</g>
		</g>
		<g>
			<polygon class="st16" points="619.7,310.7 616.8,305.4 618.4,300.3 617.4,299.4 616.3,300.5 616.4,295.9 614.1,293 609.2,293.3
				605.3,296.7 606.1,301.6 609.8,306.1 613.4,313.5 			"/>
			<path class="st17" d="M618.4,304.6c-0.7,0.1,12.7,20.2,15.5,21.8c9.2,5.1,25.1,1.7,35,1.1c2.1-0.1,4.3-0.2,5.9,1.1
				c1.7,1.2,2.3,3.5,2,5.6c-0.3,2.1-1.2,4-2.2,5.8c-3,5.8-5.5,11.4-10,16.1c-2.4,2.6-10.3,12.3-13.3,12.5c-0.4,0-0.8-0.3-1.2-0.5
				c-9.4-7.3-18.3-15.3-26.5-23.8c-8.6-8.9-9.2-13.7-11.5-25.4c-0.2-0.8-2.3-12.3-2.6-12.3C609.6,306.5,618.4,304.6,618.4,304.6z"/>
		</g>
		<g>
			<g>
				<polygon class="st7" points="724.8,582.2 725.5,586.6 716.8,592.4 711.5,588.6 715.5,583.5 724.2,577.7 				"/>
				<polygon class="st14" points="720.2,445.8 709.7,460.3 711.7,520.6 725.1,580.7 716.1,583.8 684.1,513 681.7,491.1 684,445.3
									"/>
			</g>
			<g>
				<polygon class="st14" points="651,456.5 654.8,513.7 671.9,586.6 680.5,586 680.7,517.6 687.3,448.7 				"/>
				<polygon class="st7" points="680.4,585 671,585.7 666.7,590.5 671.7,594.6 680.8,589.5 				"/>
			</g>
		</g>
		<path class="st17" d="M688.6,324.8h23.8l30.3,39l-16.4,121.6c0,0-48.5,3.3-84.2-2.9c0,0-9.9-23.9,0.5-85.4
			c4.1-24.1,12.6-55.7,14-57C667.3,330.2,684.4,325.9,688.6,324.8z"/>
		<g>
			<path class="st16" d="M715.7,298.8c-5.3-14-26.2-18.1-30.4-1.4c-1.3,5-1.9,10.3-0.7,15.3c1.2,5,4.5,9.7,9.3,11.6c0,0,0.1,0,0.1,0
				c-0.1,1.3-0.3,2.6-0.4,4c0,0.3,0,0.6,0.1,0.8c0.2,0.3,0.6,0.3,0.9,0.4c1.6,0.2,3.2,0.3,4.7,0.5c0.8,0.1,1.6,0.2,2.3-0.1
				c1.6-0.6,2.2-2.6,2.2-4.3c0-0.4,0-0.8,0-1.2C713,320.7,719.1,307.9,715.7,298.8z"/>
			<g>
				<path class="st9" d="M685.1,276.8c-3.8,0-6.5,4.1-9.7,6.5c-2.7,2-5.9,2.9-8.7,4.7c-2.8,1.8-5.3,4.9-4.9,8.4
					c-3.3-1.1-6.8-2.2-10.1-1.1s-5.9,5.7-4,8.8c1.7,2.8,5.7,2.9,7.4,5.7c2.7,4.3-1.7,12.4,2.5,14.9c1,0.6,2.3,0.6,3.3,1.2
					c1.3,0.8,1.9,2.3,2.6,3.7c3.2,6.2,10.5,9.5,16.9,7.7c3.8-2.5,6.5-6.9,7.2-11.6c0.9-5.7-2.3-7.1-3.5-12.1
					c-1.4-5.5-0.5-11.6,2.4-16.4c1.9-3.1,4.8-6,8.2-6.9c1.4-0.3,1.1,0.9,2.5-0.4c0.6-0.6,1.3-2.5,1.3-3.3
					C694.4,283.9,690.1,276.8,685.1,276.8z"/>
				<path class="st9" d="M726.8,277.9c2,0.2,4.1-0.1,6.1,0.4c3,0.8,3.2,3.7,4.4,6.1c1.3,2.6,3.1,6.1,5.3,8c1.5,1.4,3.5,2,5.3,2.9
					c1.8,1,3.5,2.5,3.8,4.6c0.3,2-0.8,4.1-0.7,6.1c0.2,3.1,1,4.5,0.5,7.8c-0.2,1.7-0.5,3.4-1.6,4.7c-1.4,1.7-3.6,2-5.7,1.9
					c-2,0-4.2-0.3-6,0.7c-4,2.1-2.6,6.2-3.2,10c-0.9,5.7-6.8,9.8-12,8.6c-4.4-1-7.5-5.4-8-10.2c-0.3-2.4,0.4-4.7,0.1-7.1
					c-0.3-2.3-2-5.2-0.2-7.4c0.4-0.5,1.1-0.8,1.4-1.4c0.3-0.5,0.4-1,0.5-1.6c0.2-1.9-0.6-3.9-1.9-5.2c-1-0.9-2.2-1.5-2.9-2.7
					c-0.8-1.3-0.6-3.1-0.7-4.7c-0.3-3.8-3-7.3-6.4-8.3c-2.3-0.7-4.2-1-6.3-2.2c-0.3-0.2-5.1-3.2-5-2.4c0-1.4,0.6-2.7,1.3-4
					c1.1-2,2.3-4,4.1-5.4c5.6-4.5,7.2,3.7,12,1.9c1.2-0.4,1.9-1.7,2.9-2.5c1.8-1.5,4.4-1.5,6.6-0.8
					C722.4,276.6,724.5,277.7,726.8,277.9z"/>
			</g>
		</g>
		<g>
			<g>
				<g>
					<path class="st5" d="M225.9,347.3c0.3,2.4-0.9,4.7-2.1,6.6c-8.4,13.1-28.7,27.7-43.2,19.8c1.6-0.4,5.8-0.5,9.1-1.4
						c7.8-2.1,12.5-10.3,16.4-17.7c2.4-4.5,2.4-17.1,7.3-19.1C218,333.6,225.2,342.5,225.9,347.3z"/>
					<path class="st10" d="M181.9,356.6c3.1-7.6,6.5-12.5,10.9-18c4.5-5.5,10.7-9.9,17.6-10.3c0.8,0,1.7,0,2.4,0.3
						c0.9,0.4,1.5,1.2,2.1,1.9c3.4,4.2,9.9,9.7,10.7,15.8c-12-0.5-24.4,4.3-33.8,12.2c-7,5.8-10.9,16-11.6,16.1
						C172.9,374.8,180.4,360.1,181.9,356.6z"/>
				</g>
				<g>
					<path class="st5" d="M129.1,362.4c0.3,2.4,2.1,4.2,3.9,5.8c11.7,10.3,35.2,18.7,47,7.2c-1.6,0.1-5.7,1.1-9.1,1.1
						c-8,0.1-14.9-6.5-20.6-12.5c-3.5-3.7-7-15.8-12.3-16.4C133,347.2,128.5,357.7,129.1,362.4z"/>
					<path class="st10" d="M174,359.3c-5.1-6.4-9.7-10.2-15.5-14.4c-5.8-4.1-13-6.6-19.7-5.1c-0.8,0.2-1.6,0.4-2.3,1
						c-0.7,0.6-1.1,1.5-1.5,2.5c-2.2,5-6.9,12.1-6,18.1c11.4-3.7,24.6-2.5,35.8,2.4c8.3,3.7,14.8,12.4,15.6,12.3
						C187.6,374.4,176.4,362.3,174,359.3z"/>
				</g>
			</g>
			<g>

					<rect x="119.2" y="374.5" transform="matrix(0.9904 -0.1384 0.1384 0.9904 -58.2399 30.4455)" class="st3" width="141.2" height="119.1"/>

					<rect x="103.4" y="374.9" transform="matrix(0.9904 -0.1384 0.1384 0.9904 -52.1997 29.1685)" class="st3" width="160.5" height="30.1"/>
			</g>
			<g class="st4">
				<polygon points="121.8,413.8 255.6,395.1 257.1,405.7 				"/>
			</g>
			<path class="st10" d="M205.5,491.9l-17.3,2.4L171.5,375c-0.2-1.2,0.6-2.3,1.8-2.5l13.1-1.8c1.2-0.2,2.3,0.7,2.4,1.9L205.5,491.9z
				"/>
		</g>
		<g>
			<g>
				<g>
					<path class="st1" d="M665.2,336c0.2,1.8-0.7,3.5-1.6,5c-6.4,9.9-21.8,21-32.8,15.1c1.2-0.3,4.4-0.4,6.9-1.1
						c5.9-1.6,9.5-7.8,12.4-13.4c1.8-3.4,1.8-13,5.6-14.5C659.2,325.6,664.7,332.4,665.2,336z"/>
					<path class="st2" d="M631.8,343c2.4-5.8,4.9-9.5,8.3-13.7c3.4-4.2,8.1-7.5,13.4-7.8c0.6,0,1.3,0,1.8,0.2
						c0.7,0.3,1.2,0.9,1.6,1.5c2.6,3.2,7.5,7.4,8.2,12c-9.1-0.3-18.5,3.3-25.7,9.2c-5.3,4.4-8.2,12.2-8.8,12.2
						C625,356.9,630.7,345.7,631.8,343z"/>
				</g>
				<g>
					<path class="st1" d="M591.7,347.5c0.3,1.8,1.6,3.2,2.9,4.4c8.9,7.8,26.7,14.2,35.7,5.5c-1.2,0.1-4.4,0.8-6.9,0.9
						c-6.1,0.1-11.3-4.9-15.6-9.5c-2.7-2.8-5.3-12-9.3-12.4C594.6,335.9,591.2,343.9,591.7,347.5z"/>
					<path class="st2" d="M625.8,345.1c-3.9-4.9-7.3-7.8-11.8-10.9c-4.4-3.1-9.9-5-15-3.9c-0.6,0.1-1.2,0.3-1.7,0.7
						c-0.6,0.5-0.9,1.2-1.2,1.9c-1.6,3.8-5.2,9.2-4.6,13.8c8.7-2.8,18.7-1.9,27.2,1.8c6.3,2.8,11.3,9.5,11.8,9.3
						C636.1,356.6,627.6,347.4,625.8,345.1z"/>
				</g>
			</g>
			<g>

					<rect x="584.2" y="356.6" transform="matrix(0.9904 -0.1384 0.1384 0.9904 -49.4792 92.1374)" class="st3" width="107.2" height="90.5"/>

					<rect x="572.2" y="357" transform="matrix(0.9904 -0.1384 0.1384 0.9904 -44.8908 91.1677)" class="st3" width="121.9" height="22.8"/>
			</g>
			<g class="st4">
				<polygon points="586.1,386.5 687.8,372.3 688.9,380.4 				"/>
			</g>
			<path class="st2" d="M649.7,445.9l-13.1,1.8L623.9,357c-0.1-0.9,0.5-1.8,1.4-1.9l9.9-1.4c0.9-0.1,1.7,0.5,1.8,1.4L649.7,445.9z"
				/>
		</g>
		<g>
			<polygon class="st16" points="700.5,396.8 696.1,400.9 690.8,400.7 690.2,401.8 691.5,402.6 687,403.6 684.8,406.6 686.2,411.3
				690.4,414.2 695,412.3 698.5,407.6 704.8,402.2 			"/>
			<path class="st17" d="M694.9,399.6c5.5-3.9,9.5-8.8,15-12.8c1-0.7,2-1.4,3.2-1.6c2.5-0.5,4.9,1.3,6.7,3.1
				c7.1,7.7-4,11.1-9.6,13.8c-0.8,0.4-11.4,5.3-11.3,5.5C699,407.6,694.9,399.6,694.9,399.6z"/>
		</g>
		<g>
			<polygon class="st0" points="137.1,391 142,394.1 146.9,392.9 147.7,393.8 146.6,394.9 151,395.1 153.7,397.4 153.1,402.2
				149.7,405.6 145,404.6 140.9,400.8 134.1,396.8 			"/>
			<polygon class="st1" points="141.6,392.6 113.4,375.5 116.4,350.6 104.9,339.4 85.8,381.4 138.4,403.4 			"/>
		</g>
	</g>
</g>
</svg>
