<svg height="480pt" viewBox="0 -36 480 480" width="480pt" xmlns="http://www.w3.org/2000/svg"><path d="m416 200h32v168h-32zm0 0" fill="#603813"/><path d="m272 136h-56v-104h192v104zm0 0" fill="#808080"/><path d="m312 104 72-72h-112l-56 56v48h64zm0 0" fill="#666"/><path d="m256 200h-232c-8.835938 0-16-7.164062-16-16s7.164062-16 16-16h432c8.835938 0 16 7.164062 16 16s-7.164062 16-16 16zm0 0" fill="#8c6239"/><path d="m273.601562 264h-24.960937c-9.011719-.175781-16.460937 6.988281-16.640625 16 .179688 9.011719 7.628906 16.175781 16.640625 16h175.359375c8.835938 0 16-7.164062 16-16s-7.164062-16-16-16zm0 0" fill="#29485a"/><path d="m320 296h32v88h-32zm0 0" fill="#b3b3b3"/><path d="m408 408h-16v-16h-120v16h-16v-32h152zm0 0" fill="#999"/><path d="m328 384h16v24h-16zm0 0" fill="#999"/><path d="m32 200h152v168h-152zm0 0" fill="#603813"/><path d="m64 8h96v160h-96zm0 0" fill="#f2f2f2"/><path d="m64 8h96v32h-96zm0 0" fill="#29485a"/><path d="m64 128h96v16h-96zm0 0" fill="#29485a"/><path d="m64 240h88v32h-88zm0 0" fill="#c69c6d"/><path d="m64 304h88v32h-88zm0 0" fill="#c69c6d"/><path d="m256 200v64h160v-80c0-44.183594-35.816406-80-80-80s-80 35.816406-80 80z" fill="#0378a3"/><path d="m456 160h-35.40625c-1.574219-5.527344-3.6875-10.886719-6.304688-16h1.710938v-120h-208v120h49.710938c-2.617188 5.113281-4.730469 10.472656-6.304688 16h-83.40625v-160h-112v160h-32c-13.253906 0-24 10.746094-24 24s10.746094 24 24 24v168h168v-168h56v48.0625c-8.855469-.320312-17.167969 4.257812-21.621094 11.917969-4.457031 7.65625-4.328125 17.148437.328125 24.683593 4.660157 7.539063 13.089844 11.894532 21.933594 11.335938h63.359375v72h-56v32h16v-16h56v16h16v-16h48v16h16v-32h-48v-72h48v72h48v-168c13.253906 0 24-10.746094 24-24s-10.746094-24-24-24zm-32 112c4.417969 0 8 3.582031 8 8s-3.582031 8-8 8zm-160-88c0-39.765625 32.234375-72 72-72s72 32.234375 72 72v72h-144zm136-144v83.792969c-16.570312-17.71875-39.742188-27.78125-64-27.792969-1.664062 0-3.296875.160156-4.9375.246094l56.25-56.246094zm-147.3125 0-28.6875 28.6875v-28.6875zm-28.6875 88v-36.6875l51.3125-51.3125h89.375l-62.945312 62.945312c-13.035157 5.539063-24.550782 14.132813-33.574219 25.054688zm-152-112h80v16h-80zm0 32h80v80h-80zm0 96h80v16h-80zm104 216h-136v-152h136zm16-168h-168c-4.417969 0-8-3.582031-8-8s3.582031-8 8-8h224.40625c-.238281 2.640625-.40625 5.296875-.40625 8v8zm152 184h-16v-72h16zm16-88h-111.359375c-4.417969 0-8-3.582031-8-8s3.582031-8 8-8h159.359375v16zm64 72v-56c5.921875-.019531 11.625-2.246094 16-6.238281v62.238281zm16-97.761719c-4.375-3.992187-10.078125-6.21875-16-6.238281v-48h16zm16-70.238281h-32v-8c0-2.703125-.167969-5.359375-.40625-8h32.40625c4.417969 0 8 3.582031 8 8s-3.582031 8-8 8zm0 0"/><path d="m104 64h16v48h-16zm0 0"/><path d="m160 232h-104v48h104zm-16 32h-72v-16h72zm0 0"/><path d="m160 296h-104v48h104zm-16 32h-72v-16h72zm0 0"/></svg>