<?xml version="1.0" encoding="utf-8"?>
<!-- Generator: Adobe Illustrator 23.0.1, SVG Export Plug-In . SVG Version: 6.00 Build 0)  -->
<svg version="1.1" id="Layer_1" xmlns="http://www.w3.org/2000/svg" xmlns:xlink="http://www.w3.org/1999/xlink" x="0px" y="0px"
	 viewBox="0 0 1122 1122" style="enable-background:new 0 0 1122 1122;" xml:space="preserve">
<style type="text/css">
	.st0{fill:#EBCEB1;}
	.st1{fill:#D67086;}
	.st2{fill:#292949;}
	.st3{fill:#D6D6D8;}
	.st4{fill:#8CABEF;}
	.st5{fill:#95B84C;}
	.st6{fill:#A2C24B;}
	.st7{opacity:7.000000e-02;fill:#FFFFFF;enable-background:new    ;}
	.st8{fill:#C4D8A1;}
	.st9{fill:#474EBB;}
	.st10{opacity:8.000000e-02;}
	.st11{fill:#3742AA;}
	.st12{fill:#FEE7DE;}
	.st13{opacity:0.13;fill:#534741;enable-background:new    ;}
</style>
<g id="object">
	<g>
		<g>
			<polygon class="st0" points="454.4,277 446.4,292.9 418.6,282.7 416.5,264.2 429.1,254.3 437.2,265.9 438.7,262.9 437.2,258.4
				441.7,256.9 			"/>
		</g>
		<g>
			<g>
				<path class="st1" d="M675.2,285.5c-19.5,1.3-44.6,10.2-57.5,12.8c-21,4.1-42,8.3-63.1,12.4l-102-42.4l-13.3,23.8l112.3,70.7
					c26.3-3.6,52.7-7.3,79-10.9c18.6-2.6,59.2,2.7,71.7-12.7c10.7-13.3,6.6-36.3-4.1-47.8C693.5,286.2,685.1,284.9,675.2,285.5z"/>
			</g>
		</g>
	</g>
	<g>
		<path class="st0" d="M790.8,891.8c-2.3,0.6-4.6,1.2-6.9,1.8l12.5,74.1h16.4L810,887C803.6,888.6,797.2,890.2,790.8,891.8z"/>
		<polygon class="st2" points="796.7,964.9 775.5,978.2 778,988.4 816.6,980.7 813.6,966.1 		"/>
	</g>
	<g>
		<path class="st0" d="M868.1,875c-2,1.4-3.9,2.8-5.9,4.1l37.7,65l15.4-5.8l-31-74.6C878.9,867.4,873.5,871.2,868.1,875z"/>
		<polygon class="st2" points="899.2,941.3 884.1,961.2 890,969.9 923.4,949.2 915.5,936.5 		"/>
	</g>
	<polygon class="st3" points="751,548.8 751,790.2 788,937.1 825,926.6 815.7,758.7 861.9,548.8 	"/>
	<g>
		<g>
			<circle class="st4" cx="491.4" cy="638.7" r="344.6"/>
		</g>
		<path class="st5" d="M573.6,304c6.1,1.5,12.2,3.2,18.2,5L573.6,304z"/>
		<g>
			<path class="st6" d="M583.5,333.6c1.5,0.5,3,0.9,4.4,1.4c0.4-0.3,0.9-0.6,1.3-1C587.2,334,585.3,333.8,583.5,333.6z"/>
			<path class="st6" d="M566.6,350.5c10.6,0,26.5,17.6,34.6,12.1c11.2-7.5,8.4-14.5,11.5-18.5c-8.1-3.4-16.3-6.4-24.8-9.1
				C580.8,340.1,573.7,345.3,566.6,350.5z"/>
			<path class="st6" d="M583.5,333.6c-3.3-1-6.7-2-10.1-2.9C576.4,332,579.7,333,583.5,333.6z"/>
			<path class="st7" d="M767.2,480.1c-15.7-27.2-35.3-51.9-58-73.3c-0.3-0.3-0.6-0.6-0.9-0.9c-2.3-2.1-4.6-4.3-7-6.3
				c-0.3-0.3-0.7-0.6-1-0.9c-2.3-2.1-4.7-4.1-7.2-6.1c-0.3-0.2-0.6-0.5-0.8-0.7c-2.5-2-5-4.1-7.6-6c-0.2-0.1-0.4-0.3-0.6-0.4
				c-2.7-2-5.4-4.1-8.1-6c-0.1-0.1-0.2-0.1-0.3-0.2c-2.8-2-5.7-4-8.7-6l0,0c-6-4-12.1-7.8-18.3-11.3l0,0l0,0
				c-33.7-19.3-71.2-32.7-111.2-38.7l0,0l0,0c-2.3-0.4-4.7-0.7-7-1c-1.3-0.2-2.6-0.3-4-0.5c-1.5-0.2-3-0.4-4.5-0.5l0,0l0,0
				c-6.4-0.6-12.9-1.1-19.4-1.3l0,0l0,0c-1.4-0.1-2.8-0.1-4.2-0.1c-2.9-0.1-5.8-0.1-8.7-0.1c-2.5,0-5,0-7.5,0.1
				c-0.9,0-1.9,0.1-2.8,0.1c-1.5,0-3,0.1-4.5,0.2c-1.2,0-2.4,0.1-3.6,0.2s-2.3,0.1-3.5,0.2c-1.4,0.1-2.9,0.2-4.3,0.3
				c-0.6,0-1.3,0.1-2,0.2c-8.3,0.7-16.4,1.8-24.5,3.1l0,0l0,0c-2.1,0.4-4.3,0.7-6.4,1.1l0,0l0,0c-2.8,0.5-5.5,1.1-8.2,1.6
				c-0.1,0-0.2,0-0.3,0.1c-2.6,0.6-5.3,1.2-7.9,1.8c-0.1,0-0.3,0.1-0.4,0.1c-2.6,0.6-5.2,1.3-7.7,2c-0.1,0-0.3,0.1-0.4,0.1
				c-2.6,0.7-5.2,1.4-7.7,2.2c-0.1,0-0.2,0.1-0.3,0.1c-2.6,0.8-5.3,1.6-7.9,2.5l0,0c-29.2,9.6-56.6,23.4-81.5,40.5l0,0l0,0
				C224.7,434,169.9,530.5,169.9,639.7c0,73.4,24.7,141,66.3,195c-27-46.9-42.5-101.4-42.5-159.5c0-96.6,42.8-183.2,110.5-241.8
				c0.5-0.4,1-0.9,1.5-1.3c1.4-1.2,2.7-2.3,4.1-3.5c0.8-0.6,1.6-1.3,2.4-1.9c1.1-0.9,2.2-1.8,3.4-2.7c0.9-0.7,1.7-1.3,2.6-2
				c1.1-0.8,2.2-1.7,3.3-2.5c0.9-0.7,1.8-1.3,2.7-2c1.1-0.8,2.2-1.6,3.3-2.4c0.9-0.7,1.8-1.3,2.8-2c1.1-0.8,2.2-1.5,3.3-2.3
				c0.9-0.6,1.9-1.3,2.8-1.9c1.1-0.8,2.2-1.5,3.4-2.2c0.9-0.6,1.9-1.2,2.8-1.8c1.2-0.7,2.3-1.5,3.5-2.2c0.9-0.6,1.9-1.1,2.8-1.7
				c1.2-0.7,2.5-1.5,3.7-2.2c0.9-0.5,1.8-1,2.6-1.5c1.4-0.8,2.9-1.6,4.3-2.4c0.7-0.4,1.4-0.8,2.1-1.2c2.1-1.2,4.3-2.3,6.5-3.4
				c0.7-0.3,1.3-0.7,2-1c1.5-0.8,3.1-1.6,4.7-2.3c0.9-0.4,1.8-0.8,2.7-1.3c1.4-0.6,2.7-1.3,4.1-1.9c1-0.4,1.9-0.9,2.9-1.3
				c1.3-0.6,2.6-1.1,3.9-1.7c1-0.4,2-0.9,3-1.3c1.3-0.5,2.6-1.1,3.9-1.6c1-0.4,2.1-0.8,3.1-1.2c1.3-0.5,2.6-1,3.9-1.5
				c1-0.4,2.1-0.8,3.1-1.1c1.3-0.5,2.7-1,4-1.4c1-0.4,2-0.7,3.1-1.1c1.4-0.5,2.8-0.9,4.2-1.4c1-0.3,2-0.6,3-1c1.5-0.5,3-0.9,4.5-1.4
				c0.9-0.3,1.8-0.5,2.7-0.8c1.9-0.5,3.9-1.1,5.9-1.6c0.5-0.1,1-0.3,1.5-0.4c2.4-0.6,4.9-1.2,7.3-1.8c0.8-0.2,1.5-0.3,2.3-0.5
				c1.7-0.4,3.4-0.8,5.2-1.1c1-0.2,1.9-0.4,2.9-0.6c1.5-0.3,3.1-0.6,4.6-0.9c1-0.2,2.1-0.4,3.1-0.5c1.5-0.3,3-0.5,4.4-0.7
				c1.1-0.2,2.2-0.3,3.3-0.5c1.5-0.2,2.9-0.4,4.4-0.6c1.1-0.1,2.2-0.3,3.3-0.4c1.5-0.2,3-0.4,4.4-0.5c1.1-0.1,2.2-0.2,3.3-0.3
				c1.5-0.1,3-0.3,4.5-0.4c1.1-0.1,2.1-0.2,3.2-0.3c1.6-0.1,3.2-0.2,4.7-0.3c1-0.1,2-0.1,3.1-0.2c1.8-0.1,3.5-0.1,5.3-0.2
				c0.9,0,1.7-0.1,2.6-0.1c2.6-0.1,5.3-0.1,7.9-0.1c0.7,0,1.3,0,2,0l0,0c47.6,0.3,92.7,11,133.3,29.9c0.4,0.2,0.8,0.4,1.2,0.6
				c2,1,4.1,2,6.1,3c0.9,0.4,1.8,0.9,2.6,1.3c1.6,0.8,3.2,1.6,4.8,2.5c0.9,0.5,1.8,0.9,2.7,1.4c1.9,1,3.8,2.1,5.6,3.1
				c0.7,0.4,1.5,0.8,2.2,1.2c2,1.1,4,2.3,5.9,3.5c0.9,0.6,1.8,1.1,2.7,1.7c1.4,0.9,2.8,1.7,4.2,2.6c1,0.6,1.9,1.2,2.8,1.9
				c1.5,1,3,2,4.5,3c0.7,0.5,1.5,1,2.2,1.5l0,0C723.2,431.2,747.1,454.1,767.2,480.1z"/>
		</g>
		<g>
			<path class="st8" d="M488.5,326.3c-0.2,0-0.3,0-0.5,0C488.2,326.3,488.3,326.3,488.5,326.3z"/>
			<g>
				<path class="st9" d="M612.5,316c-9.1-1.2-18.7-1.3-29.3,0.4c4.3-3,7-5.5,8.6-7.5c-6-1.8-12.1-3.5-18.2-5
					c-0.5,0.1-0.9,0.3-1.3,0.4c-8.3,2.9-9.5,3.2-8.2,8.5c-3.2-1.3-6.3-2.8-9.2-4.6H515c25.3,28-23.7,26.1-41.6,26.2
					c-3.3,0-4-6.5-2.2-8.3c0.9-0.8,21,0,17.2,0c16.3,0,14.2-1.3,14.2-17.9c-16.2,11.9-15.6,0-34,0c-17.2,0-25.7,1-40.8,7.7
					c4.9,4.2,9.8,8.4,14.8,12.6c-6.2-1.4-26.4-9.3-31.9-7c-2.6,1.1-3.2,7.9-6.4,7.9c-12.8,0-47.8,7-47.8-7.7c0-0.1-0.2-0.1-0.6-0.2
					C324.2,335,295,353.2,269,375.2c16.6-2.7,34-1.8,37.5-1.8c1.5,0,12.1,27.2,12.2,29.3c0.6,11.9-7.5,16.6-13.5,27.9
					c-10.9,20.6-15.8,47.5-14.5,70.6c0,0.8,13.8,13.2,13.8,18.1c0,20.5,2.1,20.8,16.2,35.9V530c8.4,22,18.5,30.5,26.1,52
					c8.6,24.4,42.6,5.7,54.2,21.8c5.1,7.1,14.6,3.8,19.1,10.8l12.3,18.8c7.4,11.3,16.5,7.4,29.7,7.4c12.7,0-11.6,44-11.6,47.7
					c0,15.3,20.8,50,20.7,56.1c-0.4,18.1,22.2,20.7,34.5,31.8c9.8,9,2.8,34.5,2.5,45.8c-0.3,9.5,1.8,18.1,4.7,26.3l0,0l0,0
					c2.7,7.6,6.1,14.8,9.1,22.3c0.5,1.3,1.1,2.6,1.6,4c0.2,0.6,0.4,1.2,0.6,1.8c0.4,1.1,0.8,2.2,1.2,3.3c0.2,0.6,0.4,1.2,0.6,1.9
					c0.4,1.2,0.7,2.3,1,3.5c0.2,0.6,0.3,1.1,0.5,1.7c0.4,1.8,0.8,3.5,1.2,5.3c1.6,9.3-2,19.3,0.1,28.2c2.1,9.1,10,14.8,9.8,24.9
					c-0.2,15.6,43.6,18.5,52.1,18.5c0,0-32-16.6-32-14.6c0-14.8,7.6-13.8,7.6-22.8c0-10.7-9.7-19.5-3.7-34.7
					c6.6-16.4,5.8-15.9,23.6-15.9c-0.4-7.5-1.5-15-3.4-22.3c15.9-24.7,52.8-48.5,62.6-55.2c13.3-9.1,5.8-33.5,11.6-46.6
					c5-11.5,20.3-22.1,21.1-36.2c0-0.8,0-1.5,0-2.1c0-0.2,0-0.3-0.1-0.5c-0.1-0.5-0.1-1-0.3-1.5c0-0.1-0.1-0.3-0.1-0.4
					c-0.1-0.5-0.3-1-0.5-1.4c0-0.1-0.1-0.1-0.1-0.2c-0.2-0.5-0.5-1-0.8-1.4l0,0l0,0c-3.1-4.5-9.4-5.8-15-5.6
					c-7.8,0.3-8.6-12.8-14.5-12.8c-16.5,0-33.6-2.8-47.9-13.4c-2.4-1.8-5-22.8-9.1-28c-5.8-7.5-24.3,5.7-31.5-4.5
					c-2.7-3.8-9.1-18.9-13.5-18.9c-6,0-38.9-6.4-45.8-0.1c1.1-1-11.2-4.7-13-4.7c0.8,0-42.3,22.3-42.3,10.7c0-15,7.3-34.4-10.5-34.4
					c-28.6,0-4.3-7.4-4.3-20.5c0-16.8-27.7,4.6-42.3,4.6c0.4,0-16.4-27.6-8.4-27.6c5.8,0,6.7-11.8,11-16.8
					c11.3-13.2,30.6-14.6,44.2-12.1c5.5,1,25.5,24.2,25.5,28.9c0-1.1,8.1-6.3,9.2-8c3.9-6,1.7-8.6,2.7-14.7
					c3.3-20.3,4.1-24.3,20.3-36.6c11.9-9,28.5-19.5,37.8-31.2c7.1-8.9,13.8-13.6,24.1-18.7c-1.1,0.5,9.8,6.6,12.1,6.6
					c9.3,0,11.6-7.9,16.7-15h-16.2c18.3-14-14.8-21.3,21.9-21.3c18,0,19.7,0.3,30.7-12.6c-17.5,0-13.3-0.1-13.3-18
					c0-3-5-13.9-9.7-9.2c-13,12.7-12.5-2.3-18.2-10.8c-7.3-10.9-15.2,0.3-18.3,7c-3.8,8.2-34.9,21.1-34.9,31.8c0,6.3-10.2,6-10-1
					c0.3-10.5-36.1-20.6-36.7-24.7c-0.8-5.4,18-20.1,34.4-20.1c7.5,0,3.8-8.7,6.1-8.7c15.6,0,34-4.8,42.5-17.4
					c-2.1,0-22.1,0.1-22.1-0.1c0-7.1-3-11.5,5.1-11.5c19.2,0,24.9,15,46,15c-7.5,5.5-15.1,11-22.6,16.4c10.6,0,26.5,17.6,34.6,12.1
					c15-10.1,4.9-19.3,17.4-21.4c1.3,1.4,3.1,2.8,6.1,3.8c3.9,1.4,18,3.9,20.4,7.5c2.9,4.3,10.2,29.8,4.8,32
					c-8.7,3.6-34.3,31.3-14.8,38.2c15.1,5.4,19-1.4,32.5-9.8c12.5-7.8,15.9-5,30,0c0.1,0,14.6-0.5,20.1,1.4
					c11.9,4.2,11-3.3,12.3-2.9c5,1.8,14.5,3,20.7,0.3C713.6,369.4,666.2,336.2,612.5,316z"/>
				<path class="st9" d="M469.5,555.9c-2.3,2.3-4.7,4.7-7,7c21.7,0,34.9,7,54.2,7C503.7,549.7,493.6,555.9,469.5,555.9z"/>
				<path class="st9" d="M541.1,573.5c-17.4-0.5-18.2,2.1-28.9,14c9.2,0,18.4,0,27.5,0C547.7,587.6,546.6,573.6,541.1,573.5z"/>
				<path class="st9" d="M565.8,591.6C565.8,567.2,541,591.6,565.8,591.6L565.8,591.6z"/>
			</g>
		</g>
		<g class="st10">
			<path d="M671.7,344.6c34.3,53.6,54.2,117.3,54.2,185.6c0,190.3-154.3,344.6-344.6,344.6c-66.1,0-127.8-18.6-180.3-50.9
				c61.2,95.6,168.4,159,290.4,159c190.3,0,344.6-154.3,344.6-344.6C836,514.1,770.2,405.3,671.7,344.6z"/>
		</g>
	</g>
	<polygon class="st3" points="778.7,539.6 788,622.8 818.8,801.5 882.9,928.7 918.4,913.9 869.1,744.2 908.2,595 890.6,530.3 	"/>
	<g>
		<path class="st2" d="M417,179.9c0,0-15.2,38.4,2.9,123.2l22.5-4c0,0-20.6-73.3-12.9-118.2L417,179.9z"/>
		<g>
			<path class="st9" d="M505.9,32.5c0,0-73.4,27.5-95.7,67.7s10.4,86.2,10.4,86.2s56.3,3.4,78.6-36.8
				C521.4,109.4,505.9,32.5,505.9,32.5z"/>
			<path class="st3" d="M420.5,186.4c0,0,3.3,0.2,8.5-0.1l45.2-96.7l-58,89.5C418.7,183.7,420.5,186.4,420.5,186.4z"/>
		</g>
		<g>
			<path class="st9" d="M278,146.8c0,0,24.8,65.4,60.8,85.2c35.9,19.8,76.9-9.6,76.9-9.6s2.8-50.3-33.1-70S278,146.8,278,146.8z"/>
			<path class="st3" d="M415.6,222.4c0,0,0.2-2.9-0.1-7.5l-86.4-40l80.1,51.5C413.2,224.1,415.6,222.4,415.6,222.4z"/>
		</g>
		<path class="st11" d="M420.5,186.4c0,0,79.7-29.5,90.6-99.2C511.1,87.2,522,191.3,420.5,186.4z"/>
	</g>
	<path class="st1" d="M681.3,258.9c1.2-1,2.6-1.7,4.2-2.1c37.7-8.3,79.6,5.6,112.8,23.7c36.2,19.7,63.2,55.2,82.4,91
		c25.2,46.8,38.1,96.2,46.3,148.3c2.8,17.8,5,35.8,5.7,53.8c0,0.5,0,0.9,0,1.4c-59.1-21.5-148.5-23.7-210.5-12.6
		c-7.7-42-21-150.1-34.8-190.4c-6.8-19.8-16.6-38.3-38.1-43.5c-4.8-1.2,20.4-49.6,22.5-53.4C674.7,270,676.8,262.6,681.3,258.9z"/>
	<g>
		<g>
			<polygon class="st0" points="589.5,471.6 598.7,486.9 575.3,505 558.5,497 556.9,481 571,480.3 569.2,477.4 564.6,476.3
				565.8,471.7 			"/>
		</g>
		<g>
			<g>
				<path class="st1" d="M714.4,289.3c-9.3,17.2-15.1,43.2-19.8,55.5c-7.7,20-15.4,40-23.1,60l-90.2,63.8l13,23.9L713.9,435
					c10.9-24.2,21.9-48.4,32.8-72.6c9-19.9,28.4-42.2,23.6-65.4c-3.9-18.6-20.8-27.5-38.8-24.1C724.7,274.2,719.1,280.6,714.4,289.3
					z"/>
			</g>
		</g>
	</g>
	<g>
		<g>
			<g>
				<path class="st12" d="M700.6,264.8c-7.9-2.4-15.8-4.8-23.6-7.1c-0.6-1.8-1.2-3.5-2-5.1c-14.4-31.4-106.5-93.7-139.5-19.9
					c-29.9,67,66.7,76.9,108.7,68.8c8.8-1.7,18.7-4.8,25.8-11.7c8.6,4.2,16.8,8.9,24.7,14.2c3.2-10.7,6.3-21.4,9.5-32.1
					c0.5-1.7,1-3.6,0-5.1C703.4,265.7,702,265.2,700.6,264.8z"/>
			</g>
			<g>
				<g>
					<g>
						<path class="st2" d="M605.7,312.8c13.4-2.5,26.4-6.8,38.7-12.7c-23.7-2.9-47-9.1-69-18.3c-1.7-0.7-3.6-1.4-5.3-0.7
							c-1.6,0.7-2.3,2.4-2.9,4C556.6,313.6,582.3,317.1,605.7,312.8z"/>
					</g>
				</g>
				<g>
					<g>
						<g>
							<path class="st2" d="M652.1,240.5c7.3-3.8,7-14.4,4.3-22.2c-10.8-32-44.5-54.7-78.3-52.6c-28.2,1.7-53.6,33.4-20.6,45.2
								c11.7,4.2,29.4-0.8,42.6,2.7C618.9,218.7,635.9,230.2,652.1,240.5z"/>
						</g>
					</g>
					<g>
						<g>
							<path class="st2" d="M500.8,297.8c0.9,3.5,1.8,7.1,2.7,10.9c1.9,7.8,2.1,13.4-3.3,20.4c-1.5,2-17.5,14.8-19.9,10.8
								c15.8,26.1,46.4,10.7,67.4,4.7c14.1-4.1,33.1-2.6,43.7-14.7c11.6-13.3,0.9-25-2.6-39.1c-3.1-12.4-4-25.4-6.5-38
								c-4.3-20.8-12.6-52-39.8-49.1c-31.8,3.4-43.8,33.4-45.4,61.7C496.3,277.6,498.2,287.4,500.8,297.8z"/>
						</g>
					</g>
				</g>
			</g>
		</g>
		<path class="st13" d="M647.4,287c6.4,0.7,13-3.6,15.1-9.7c0.9-2.7,0.8-5.7,0-8.5c-0.7-2.3-2.4-6.2-4.8-7.3
			c-1.3-0.6-1.3,0.3-1.5,1.5c-0.2,1.6-0.1,3.2-0.3,4.8c-0.4,3.3-1.2,6.5-2.5,9.6C652,280.9,650,284.2,647.4,287z"/>
	</g>
</g>
</svg>
