<?xml version="1.0" encoding="utf-8"?>
<!-- Generator: Adobe Illustrator 23.0.1, SVG Export Plug-In . SVG Version: 6.00 Build 0)  -->
<svg version="1.1" id="Layer_1" xmlns="http://www.w3.org/2000/svg" xmlns:xlink="http://www.w3.org/1999/xlink" x="0px" y="0px"
	 viewBox="0 0 800 800" style="enable-background:new 0 0 800 800;" xml:space="preserve">
<style type="text/css">
	.st0{fill:#D6D6D8;}
	.st1{fill:#474EBB;}
	.st2{fill:#3742AA;}
	.st3{fill:#D67086;}
	.st4{fill:#EBCEB1;}
	.st5{fill:#292949;}
	.st6{fill:#5D66D3;}
	.st7{fill:#BC826C;}
	.st8{fill:#353A85;}
	.st9{fill:#FFFFFF;}
	.st10{fill:#132235;}
	.st11{fill:#AD7C66;}
	.st12{fill:#EED5D5;}
	.st13{fill:#9EA6AD;}
	.st14{fill:#8CABEF;}
	.st15{fill:#EACDB0;}
</style>
<g id="Object">
	<g>
		<path class="st0" d="M144,228.8c0,0-12.7,18.9-12.9,66.8l12.6,0.5c0,0-2.5-42,6.9-65.3L144,228.8z"/>
		<g>
			<path class="st1" d="M209.2,159.6c0,0-42.8,6.3-59.6,25.3c-16.7,19.1-4.5,47.7-4.5,47.7s30,8.4,46.7-10.7
				C208.6,202.9,209.2,159.6,209.2,159.6z"/>
			<path class="st0" d="M145.2,232.7c0,0,1.7,0.5,4.6,0.9l35.7-46.9l-41.8,41.5C144.5,231,145.2,232.7,145.2,232.7z"/>
		</g>
		<g>
			<path class="st1" d="M72.9,194.6c0,0,5.7,38.2,22.8,53.1c17.1,14.9,42.6,3.8,42.6,3.8s7.4-26.8-9.7-41.7
				C111.5,195,72.9,194.6,72.9,194.6z"/>
			<path class="st0" d="M138.3,251.5c0,0,0.4-1.5,0.8-4.1l-42-31.7l37.2,37.2C136.8,252.2,138.3,251.5,138.3,251.5z"/>
		</g>
		<path class="st2" d="M145.2,232.7c0,0,46.5-6.6,60.5-42.9C205.6,189.8,199.3,247.2,145.2,232.7z"/>
	</g>
	<g>
		<path class="st0" d="M304.7,211.8c0,0-13.4,19.9-13.6,70.3l13.2,0.5c0,0-2.7-44.2,7.2-68.7L304.7,211.8z"/>
		<g>
			<path class="st1" d="M373.3,139c0,0-45.1,6.6-62.7,26.7s-4.7,50.2-4.7,50.2s31.6,8.8,49.2-11.2C372.7,184.6,373.3,139,373.3,139z
				"/>
			<path class="st0" d="M305.9,215.9c0,0,1.8,0.5,4.8,1l37.6-49.3l-44,43.7C305.2,214.2,305.9,215.9,305.9,215.9z"/>
		</g>
		<g>
			<path class="st1" d="M229.9,175.9c0,0,6,40.2,24,55.9s44.8,4,44.8,4s7.8-28.2-10.2-43.8C270.5,176.3,229.9,175.9,229.9,175.9z"/>
			<path class="st0" d="M298.7,235.8c0,0,0.4-1.6,0.9-4.3l-44.2-33.4l39.1,39.1C297.2,236.4,298.7,235.8,298.7,235.8z"/>
		</g>
		<path class="st2" d="M305.9,215.9c0,0,48.9-6.9,63.7-45.2C369.6,170.7,363,231.2,305.9,215.9z"/>
	</g>
	<g>
		<path class="st0" d="M614.8,220.2c0,0-14.9,17.5-20.7,65.4l12.5,1.9c0,0,2.4-42.3,14.5-64.6L614.8,220.2z"/>
		<g>
			<path class="st1" d="M688.2,158.6c0,0-43.6,1.3-62.6,18.4s-10.1,47.2-10.1,47.2s29,11.9,48-5.2
				C682.5,201.8,688.2,158.6,688.2,158.6z"/>
			<path class="st0" d="M615.5,224.2c0,0,1.7,0.7,4.5,1.5l41.2-42.8l-46.7,36.7C615,222.5,615.5,224.2,615.5,224.2z"/>
		</g>
		<g>
			<path class="st1" d="M547.6,177.7c0,0,1.3,38.9,16.6,55.8c15.4,16.9,42.2,8.8,42.2,8.8s10.5-26-4.8-42.8
				C586.2,182.6,547.6,177.7,547.6,177.7z"/>
			<path class="st0" d="M606.4,242.3c0,0,0.6-1.5,1.3-4l-38.3-36.6l32.9,41.6C604.8,242.7,606.4,242.3,606.4,242.3z"/>
		</g>
		<path class="st2" d="M615.5,224.2c0,0,47.3-1.2,65.6-35.9C681.1,188.3,668,245.1,615.5,224.2z"/>
	</g>
	<g>
		<g>
			<g>
				<g>
					<polygon class="st3" points="345.8,380.4 379,417.5 385.3,461.7 396.3,461.5 397.7,407.8 358,350.5 					"/>
				</g>
			</g>
			<g>
				<polygon class="st4" points="388,459.5 395.2,459 397.4,470.8 391.4,475.4 385.3,473 387.7,467.8 386.3,467.9 385,469.4
					383.6,468.1 				"/>
			</g>
		</g>
		<g>
			<g>
				<g id="XMLID_114_">
					<polygon class="st5" points="320.2,655.4 319.1,661.3 306.9,665.2 302.4,658.4 309.1,653.5 321.4,649.6 					"/>
				</g>
				<g id="XMLID_113_">
					<polygon class="st5" points="354.4,648.9 354.9,654.9 366.8,660 372,653.4 365.8,647.9 					"/>
				</g>
				<polygon class="st6" points="302.4,476.9 297.3,495.8 299.9,504.4 299.7,504.4 302.9,554.1 309.7,654.1 321.2,653.7
					341.8,536.7 343.3,542.2 354.4,650.2 364.9,649.3 381.3,508.3 381.3,479.7 				"/>
			</g>
			<g>
				<g>
					<g>
						<polygon class="st3" points="319.7,357 292.8,315.1 293.6,270.4 282.7,269 272.8,321.7 302.9,384.6 						"/>
					</g>
				</g>
				<g>
					<polygon class="st4" points="290.6,272.2 283.4,271.5 283.1,259.6 289.8,256 295.4,259.3 292.2,264.1 293.6,264.2 295,262.9
						296.3,264.4 					"/>
				</g>
			</g>
			<g>
				<g>
					<g>
						<path class="st4" d="M343.6,306c-7.8,4.9-18.9,2.1-26,8c-4.6,3.8-6.4,10.7-5.3,16.8c0.5,2.9,1.6,5.7,3.6,7.7
							c1.3,1.3,2.9,2.3,4.5,3.1c2.2,1,4.6,1.5,7,1.6c-0.2,2.2-0.5,4.4-1.1,6.5c4.5-0.5,9-1,13.5-1.5c-0.3-2.6-0.6-5.2-0.9-7.9
							c1.1-0.7,2.1-1.4,3.1-2.3c5.8-5.2,8.3-14.1,6.2-21.8C347.3,312.6,345.4,309.3,343.6,306z"/>
					</g>
				</g>
				<g>
					<path class="st5" d="M323.1,312.5c0.3-0.1,0.6-0.2,1-0.3c4.7-1.5,9.7-2,14.7-1.4c1.8,0.2,3.6,0.6,5.2,1.5
						c2.3,1.3,3.9,3.8,4.7,6.3c0.8,2.6,0.9,5.3,0.9,8c1.1-0.3,1.9-1.2,2.6-2.1c2-2.6,4.1-5.9,4.8-9.2c0.7-3.4-0.5-7.3,0.9-10.4
						c0.7-1.5,2-2.5,3-3.7c2.2-2.7,2.9-6.5,1.9-9.8c-0.7-2.1-2.1-4.1-4.1-5c-3.3-1.6-7.3-0.2-10.9-1c-1.8-0.4-3.5-1.3-5.3-1.7
						c-3.9-0.7-7.6,1.6-10.6,4.2s-5.6,5.7-9.2,7.2c-2.9,1.3-6.1,1.4-9.1,2.4c-5,1.7-8.9,5.9-10.7,10.9c-1.9,5.6-1.5,12.6,2.7,16.9
						c2.1,2.2,3.8,4.6,5.5,7.1c0.6,0.9,4,4,3.8,0.7c-0.2-2.6-1.2-5-1.4-7.6C312.8,319.2,317.6,314.5,323.1,312.5z"/>
				</g>
			</g>
			<g>
				<path class="st3" d="M357.3,350l-38.1-3.2c0,0-12.6,16.4-26.4,63.5s-3.6,88.8-3.6,88.8s43-7.7,103.7-0.8l-17.7-116.9L357.3,350z
					"/>
			</g>
		</g>
	</g>
	<g>
		<g>
			<g id="XMLID_88_">
				<g id="XMLID_112_">
					<polygon class="st7" points="599.4,296.5 597.3,290.5 599.8,285.4 599,284.3 597.7,285.3 598.6,280.5 596.7,277 591.5,276.5
						587,279.4 586.9,284.6 590,290 592.5,298.4 					"/>
				</g>
				<g id="XMLID_111_">
					<polygon class="st6" points="602.5,293.5 621.1,353.9 643.4,356.2 622.6,399.4 598.7,372.3 593.1,362.9 587.7,294.9 					"/>
				</g>
			</g>
			<g>
				<g id="XMLID_87_">
					<polygon class="st5" points="647.1,652 647.1,657.4 633.4,664.2 626.5,657.4 633.4,650.5 634.2,650.5 634.5,652 					"/>
				</g>
				<g id="XMLID_86_">
					<polygon class="st5" points="680.9,650.5 681.9,650.5 688.7,657.4 681.9,664.2 668.1,657.4 668.1,652 680.8,652 					"/>
				</g>
				<g>
					<path class="st6" d="M630.8,426.2c0.7-11.2,19-76.2,19-76.2l6.5-0.1c-0.6-0.7-0.9-1.7-1-2.7c0-0.2-0.1-0.4-0.1-0.6
						c-1.9,0.3-3.8,0.8-5.5,1.4c-9.9,3.5-15.5,10.4-18.9,20.3c-2.7,8-5.4,15.9-8.1,23.9c-2.2,6.5-4.4,13.1-6.3,19.7
						c-5,17.4-8,35.3-10.2,53.2c-1.1,9-2,18-2.8,27c-0.5,5.5,1.2,4.5,5,1.8c2.6-1.8,5.2-4.2,8.3-5c0.5-0.1,1.1-0.3,1.7-0.5
						c7.7-2.3,16.1-5.8,24.2-5.7c0.9,0,1.7,0,2.6,0.1c-11.6-0.9-19.6-1.1-19.6-1.1s1.7-16.7,3.2-32.2
						C629.7,439.8,630.6,430.5,630.8,426.2z"/>
					<path class="st6" d="M713.4,481.9c-0.1-3.9-0.4-7.1-0.4-8.3c-0.3-10.5-1.3-21.1-2.7-31.7c-1.3-9.6-2.9-19.2-4.7-28.8
						c-2.8-15.1-5.3-28.4-10.9-42.8c-2-5.1-4-10.3-7.4-14.6c-4.6-5.7-14-9.9-21.3-9.6c-0.1,0.3-0.7,3.7-0.3,3.7c-0.1,0-0.2,0-0.3,0
						h1.5l8.4,17.4c0,0,1.7,45.5,2.1,59.3c0.1,4.6,1.5,13,3.4,22.2c3.5,17.8,8.5,38.2,8.5,38.2s-0.7,1-6.2,0.8
						c3.3,0.9,6.5,2,9.5,3.4c1.5,0.7,2.9,1.5,4.2,2.4c3.8,2.4,7.2,5.2,11.6,7.4c0.6,0.3,1.2,0.6,1.8,0.5
						C713.5,500.9,713.6,490,713.4,481.9z"/>
					<g>
						<path class="st8" d="M618.4,488.5c7.7-2.3,16.1-5.8,24.2-5.7c0.9,0,1.7,0,2.6,0.1c0.7,0.1,1.5,0.1,2.2,0.2
							c5.4,0.4,11.5,1,17.8,1.8c0.3,0,0.6,0.1,0.9,0.1c8.1,1.8,13.4,2.5,16.8,2.6c3.3,0.9,6.5,2,9.5,3.4c1.5,0.7,2.9,1.5,4.2,2.4
							v8.8l-15.5,149.9h-12.7v1.5h-0.1l-14-100.6l-0.1-0.6l-7.6,101.1h-0.1V652H634l-16.2-112.6L618.4,488.5z"/>
					</g>
					<g>
						<path class="st9" d="M625.6,481.8c0,0,8,0.2,19.6,1.1c0.7,0.1,1.5,0.1,2.2,0.2c5.4,0.4,11.5,1,17.8,1.8c0.3,0,0.6,0.1,0.9,0.1
							c8.1,1.8,13.4,2.5,16.8,2.6c5.5,0.3,6.2-0.8,6.2-0.8s-5-20.4-8.5-38.2c-1.8-9.1-3.2-17.6-3.4-22.2
							c-0.4-13.8-2.1-59.3-2.1-59.3l-8.4-17.4h-1.5c-2.1,0.3-4.3,0.5-6.4,0.8c-0.6,0.1-1.1,0.1-1.7,0c-0.3-0.1-0.5-0.2-0.7-0.4
							c-0.1-0.1-0.2-0.2-0.2-0.2l-6.5,0.1c0,0-18.3,65-19,76.2c-0.3,4.3-1.1,13.6-2,23.3C627.3,465.1,625.6,481.8,625.6,481.8z"/>
					</g>
				</g>
			</g>
			<g id="XMLID_83_">
				<g id="XMLID_85_">
					<polygon class="st7" points="650.3,438.6 645.2,442.4 639.8,441.4 639,442.5 640.2,443.5 635.5,444.1 632.8,446.9 633.7,452.1
						637.7,455.7 642.6,454.2 646.9,449.7 654,444.8 					"/>
				</g>
				<g id="XMLID_84_">
					<polygon class="st6" points="645.8,438.4 672.7,416.7 674.9,360.7 696.3,382.4 700.2,418.5 695,432 649.5,451 					"/>
				</g>
			</g>
			<g>
				<g>
					<path class="st10" d="M644.5,308.4c-1.6,3.3-2.3,7-2.3,10.7c0,1,0,2.1-0.7,2.7c-0.8,0.7,0,2-0.7,1.2s-3-3.5-3.1-4.6
						c-0.3-2.4-0.5-4.9-0.4-7.3c0.1-2.1,0.4-4.4,1.7-6c0.8-1,1.8-1.7,2.8-2.4c1.5-1,3-2.1,4.8-2.5c3-0.7,4.9,0.3,2.4,2.6
						C647.2,304.4,645.7,306.2,644.5,308.4z"/>
				</g>
				<g>
					<g>
						<path class="st7" d="M665.6,349.1c-4.2,0.6-8.4,1.2-12.5,1.9c-0.8-3.7-1.4-7.4-1.7-11.1c-3.7-0.4-8-1.4-9.5-5.2
							c-0.5-1.2-0.5-2.5-0.6-3.8c-0.3-5.4-0.6-10.8-0.9-16.2c-0.1-1.9-0.2-3.8,0.3-5.6c0.9-3.1,3.7-5.1,6.3-6.3
							c6.9-3.3,15-3.6,21.7,0.2c1.8,1,3.5,2.3,4.6,4.2c1.7,2.9,1.7,6.5,1.6,10c-0.1,3.2-0.1,6.3-0.2,9.5c-0.1,3.6-0.4,7.8-3.1,9.9
							c-1.4,1.1-3.3,1.4-4.5,2.8C665,341.7,666.3,345.7,665.6,349.1z"/>
					</g>
				</g>
				<g>
					<path class="st5" d="M640.5,333.9c0.8,3.3,2.6,6.4,5.4,8.2c3.2,2,7,1.9,10.6,1.8c2-0.1,4-0.1,5.9-0.2c5-0.1,10-1.1,12.3-6.5
						c1.1-2.5,1.3-5.4,1-8.2c-0.1-0.8-0.2-1.5-0.6-2.2c-0.4-0.6-1.1-1.1-1.8-1c-0.9,0.2-1.4,1.2-1.9,2c-1.2,1.7-3.3,2.7-5.1,2
						c-0.5-0.2-1-0.6-1.5-1c-0.2-0.2-0.4-0.3-0.6-0.5c-2-1.4-4.3-2-6.6-2.2c-2-0.2-5-0.8-6.4,1c-0.8,1-1.6,2.1-2.4,3.2
						c-0.3,0.4-0.7,0.9-1.1,1.2c-0.5,0.3-1,0.4-1.5,0.5c-1.3,0.1-2.9-0.5-3.4-1.8c-0.2-0.6-0.2-1.3-0.3-1.9s-0.2-1.3-0.6-1.8
						c-1.6-1.8-1.9,1.2-1.9,2.2C639.9,330.4,640.1,332.2,640.5,333.9z M654.2,334.1c1.6,1,3.3,0.9,5,0.3c0.9-0.3,1.4,1.2,0.5,1.5
						c-2.1,0.8-4.2,0.8-6.2-0.4C652.7,335,653.3,333.6,654.2,334.1z"/>
				</g>
				<g>
					<path class="st5" d="M637.7,299.4c-0.4-1.3-0.7-2.6-1-3.9c1.2,0.4,2.6,0.4,3.8,0.1c0-0.8-0.1-1.5-0.1-2.3
						c0-0.6,8.5-1.5,9.2-1.6c6.5-0.9,12.4-1.7,18.5,1.5c5.2,2.8,8.7,7.1,9.7,13c1,5.6-0.4,13.1-3.4,17.9c-0.1-1.5,0.6-5.1,0.2-6.5
						c-0.3-1.4-0.8-2.8-1.6-4c-1.5-2.5-3.7-4.5-6.1-5.9c-4-2.2-8.5-3.3-12.9-3.7c-4.1-0.4-9.1-0.6-13,0.7c-1.9,0.6-2.2,1.1-3.5-0.8
						c-0.2-0.3-2.1-4.3-1.9-4.3C636.3,299.5,637,299.5,637.7,299.4z"/>
				</g>
			</g>
		</g>
	</g>
	<g>
		<g>
			<g>
				<path class="st11" d="M130.9,297.1c0.9-3.1,1.8-6.3,2.7-9.4c1.4,0.4,2.7,0.8,4.1,1.2c-0.1,2.3-0.3,4.6-0.4,6.9
					c0.7-0.1,1.4-0.2,2.1-0.3c-1.2,2.6-2.4,5.1-3.6,7.7c-1.4-0.2-2.9-0.4-4.3-0.6C131.3,300.7,131.2,298.9,130.9,297.1z"/>
			</g>
			<g>
				<path class="st12" d="M168.9,380c0.2-0.5,0.5-1,0.6-1.5c2-5.6,2.9-11.8,0.9-17.4c-0.3-0.8-0.7-1.6-1.4-2.1
					c-0.6-0.4-1.3-0.5-2-0.5c-6-0.7-11.9-1.4-17.9-2.1c-0.6-0.1-1.2-0.1-1.6-0.5c-0.4-0.3-0.6-0.8-0.8-1.3c-1.9-5-12-53.4-8.8-53.7
					c-2.9-0.2-5.8-0.5-8.8-0.7c-2.9,15.5-6.2,59.5-2,64.8c9.6,12,13.5,12.8,27.7,19.6c1.7,0.8,3.6,1.6,5.5,1.6
					C164.1,386.1,167.3,383.2,168.9,380z"/>
			</g>
		</g>
		<g>
			<g>
				<g>
					<g>
						<g>
							<polygon class="st11" points="167.9,640.4 167.9,652.9 175.2,653 175.2,639.1 							"/>
						</g>
						<g>
							<polygon class="st11" points="202.5,636.4 200.6,649.9 208.4,651 210.5,636 							"/>
						</g>
					</g>
					<g>
						<path class="st5" d="M208.5,651l-7.2-1.1l-2.8,1.1l-2.1,4.9l15.9,9.9l0,0c2.4-1.4,2.9-4.7,1-6.7l-0.6-0.7L208.5,651z"/>
					</g>
					<g>
						<path class="st5" d="M175.2,653h-7.3l-2.5,3.4l0.5,5.3l18.7,1.2l0.5-1.2c1.1-2.4-0.5-5.1-3.1-5.5l-0.4-0.1L175.2,653z"/>
					</g>
				</g>
				<g id="XMLID_82_">
					<polygon class="st8" points="145.7,519.8 158.7,579 166.6,646.1 178.6,646.1 188.2,478.1 147.9,478.8 					"/>
				</g>
				<g id="XMLID_80_">
					<g id="XMLID_81_">
						<polygon class="st8" points="222.9,516.3 224.5,573.8 213.9,641.7 198.5,641.6 195.4,569.6 184.3,517.4 180.6,483.2
							214.2,479.3 						"/>
					</g>
				</g>
				<g id="XMLID_79_">
					<polygon class="st12" points="198.8,352.7 161.1,357 154.8,377.8 145.9,439.1 141.6,491.2 202.1,492.1 222.1,488.9 217,434.2
						209.4,372.2 					"/>
				</g>
			</g>
			<g>
				<g>
					<path class="st11" d="M194.5,312.4c-3-3-7.3-4.8-11.5-4.7c-14.8,0.2-16,14.6-13.2,25.8c1.2,4.9,3.7,9.8,7.8,12.8
						c1.1,0.8,2.4,1.4,3.7,1.9l0,0c-0.2,0.8-0.2,10.1-0.8,10c3.4,0.5,7,0,10.2-1.3c-0.1-2.8,0.3-6.2,0-9.2c0.4-0.2,0.8-0.5,1.2-0.7
						c4-2.9,5.3-8.1,6-13C198.8,327.6,199.3,317.3,194.5,312.4z"/>
				</g>
				<g>
					<path class="st5" d="M195.5,326.2c0.5,0.6,1.3,0.7,1.9,1.2c1.9,1.5,0.1,4.9,1.2,7c1.5,2.8,1.2,7.6-1.6,9.9
						c-1,0.8-2.3,1.3-2.7,2.5c-0.5,1.4,0.5,3.2-0.5,4.2c1.6,1.6,4.2,1.3,6.3,0.4s4.1-2.1,6.3-2.1c0.7,0,1.6,0.1,2-0.4
						c0.3-0.3,0.3-0.8,0.3-1.2c0.5-5.1,6.6-3.8,7.4-8c0.2-1.1-1.2-3.9-1.1-5.4c0-2.3,1.4-4.4,0.6-6.8c-0.3-1-1-1.8-1.3-2.8
						c-0.7-2,0-4.2,0.4-6.3c0.4-2.1,0.3-4.6-1.4-5.9c-1.3-1-3.3-0.9-4.6-1.9c-2.9-2.3-0.8-8.1-4-9.8c-1.7-0.9-3.7,0.1-5.6-0.2
						c-2-0.3-3.5-1.9-5.1-3s-4.1-1.7-5.5-0.2c-1.1,1.2-0.8,3.3-1.9,4.6c-0.9,1.1-2.5,1.4-3.8,2c-6.1,2.9,5.4,4.8,7,6.8
						c1.4,1.7,2.9,4.9,3.9,6.9C195,320,194.2,324.7,195.5,326.2z"/>
				</g>
				<g>
					<path class="st5" d="M177.7,311.7c-7.5,1.6-2.9,7.2-5.3,11.7c-0.9,1.8-3.5,2.5-4,4.4c-0.4,1.6,0.7,3.1,1.7,4.4
						c0.9,1.3,1.6,3.3,0.5,4.5c-0.3,0.4-0.8,0.6-1,1c-0.6,1.1,0.8,2.3,2,2.8s2.6,1.5,2.1,2.7c-1.4,3.5-2.3,2,0,5
						c0.5,0.7,1.5,0.6,2,1.3c-1,1-2.4,1.4-3.8,0.9c-3.5-1.3-2.5,0.3-5.2,0.8c-2.9,0.4-2.9-0.4-5.4-2c-2.3-1.5-7.2-2.5-8-5.5
						c-0.5-1.7,0.8-3.4,0.5-5.1c-0.4-1.6-2.1-2.8-2.9-4.3c-1.6-3,0.8-6.4,1.4-9.6c0.7-4.5-1.9-10.1,2.8-12.9c1-0.6,2.3-1,3.3-1.6
						c3.1-1.7,3.7-4.9,4.9-7.6s4.3-5.7,8.1-5c3.4,0.6,5.2,3.8,8.7,4.2c1.2,0.1,2.6-0.1,3.6,0.3c0.8,0.3,1.3,1,1.7,1.7
						c0.8,1.5,3.2,6.7,1.4,8.1C184,313.5,180.9,311,177.7,311.7z"/>
				</g>
				<g>
					<path class="st13" d="M206,329.3c0.4-0.5,0.7-1.1,0.8-1.8c0.1-1-0.4-1.8-1.3-2.3c-0.5-0.3-1.1-0.5-1.6-0.7
						c-1.2-0.5-2.1-1-1.5-2.7c0.1-0.3,0.3-0.5,0.4-0.8c0.4-1,0.5-2.1,0.2-3.1c-0.3-0.8-0.8-1.5-1.6-1.7c-0.7-0.2-1.3,0-1.9,0
						c-2.5-0.2-1.5-2.4-1.4-3.8c0.3-2.5-1.4-4.6-3.8-4.9c-0.4-0.1-0.4,0.5,0,0.6c1.2,0.2,2.3,0.9,2.9,2c0.6,1.1,0.4,2.2,0.2,3.3
						c-0.2,1-0.2,2.2,0.6,2.9c1.3,1.1,3.2-0.4,4.3,1.3c1,1.6-0.1,3-0.6,4.5c-1.2,3.8,6.5,2.6,4.2,6.6c-0.6,1-1.8,2.1-1.6,3.4
						c0.1,1,0.9,1.7,1.9,1.6c0.4,0,0.4-0.6,0-0.6c-1.6,0.2-1.3-1.9-0.9-2.6C205.4,330.1,205.8,329.7,206,329.3z"/>
				</g>
				<g>
					<path class="st13" d="M172.3,310.1c-2.1-0.3-5.3-0.2-5.6,2.5c-0.2,1.4,0.7,2.7,0.9,4.1c0.4,2.7-2.3,3.3-4.2,4.1
						c-2,0.9-3.8,3.2-1.6,5c0.3,0.2,0.5,0.4,0.8,0.6c-0.2,0.6-0.3,1.2-0.5,1.8c-0.2,0.2-0.7,0.4-1,0.6c-0.3,0.3-0.6,0.6-0.7,1.1
						c-0.1,0.8,0.4,1.4,1.1,1.4c0.4,0,0.4-0.6,0-0.6c0.1-0.5,0.1-1,0.2-1.6c0.2-0.1,0.3-0.2,0.5-0.3c0.2-0.1,0.3-0.2,0.5-0.3
						c0.2-0.2,0.5-0.4,0.6-0.7c0.3-0.7,0.1-1.3-0.4-1.8s-1-0.7-1.4-1.4c-0.6-1.2,0.2-2.3,1.3-2.9c1.1-0.7,2.5-0.9,3.6-1.5
						c1.8-1.1,2-2.7,1.4-4.6c-0.4-1.4-1.3-3.3,0.3-4.4c1.2-0.8,2.8-0.6,4.1-0.5C172.7,310.8,172.7,310.2,172.3,310.1z"/>
				</g>
				<g>
					<path class="st13" d="M158.4,320.9c0.4-0.1,0.2-0.7-0.2-0.6c-1.6,0.5-3.7,1.3-3.7,3.3c0,0.6,0.2,1.1,0.7,1.5
						c0.7,0.6,1.5,0.5,2.1,1.3c1.1,1.4-0.3,3.2-2,2.7c-0.4-0.1-0.5,0.5-0.2,0.6c1.6,0.5,3.5-0.6,3.2-2.5c-0.1-1-0.7-1.5-1.6-2
						c-1.2-0.7-2.2-1.7-1.1-3C156.3,321.4,157.5,321.1,158.4,320.9z"/>
				</g>
			</g>
		</g>
	</g>
	<g>
		<g>
			<g>
				<polygon class="st4" points="446,354 442.7,343.1 447.2,341.4 451.1,348.4 452.9,346.6 454.6,356.3 450.1,358.6 				"/>
			</g>
		</g>
		<g>
			<g>
				<polygon class="st14" points="487.6,358.6 467,379.1 455.1,352.8 446.5,357.9 460.7,413.7 498.5,385.8 				"/>
			</g>
		</g>
	</g>
	<g>
		<g>
			<g>
				<g>
					<g>
						<polygon class="st4" points="524,479.8 512.1,565.2 516.3,626.9 507.7,629.9 499.9,572.9 483.4,468.7 						"/>
					</g>
				</g>
			</g>
			<g>
				<g>
					<polygon class="st5" points="507.7,631.6 506.7,638 508.9,650.2 516.1,649.5 517.4,631.5 516.3,628.6 					"/>
				</g>
			</g>
		</g>
		<g>
			<g>
				<g>
					<polygon class="st4" points="454,477.2 457.8,549.7 474,650.9 482.7,650.8 478.8,556.9 490.2,470.4 					"/>
				</g>
			</g>
			<g>
				<g>
					<polygon class="st5" points="474.1,649.2 462.9,657.4 464.3,663.5 484.8,658.6 483.2,649.8 					"/>
				</g>
			</g>
		</g>
		<g>
			<g>
				<polygon class="st0" points="452.1,488.1 452.5,572.2 462.7,628.9 486.2,625.1 485.5,559.5 490.4,487.6 488,476.7 454.1,480.5
									"/>
			</g>
		</g>
		<g>
			<g>
				<polygon class="st0" points="493.7,560.8 500.9,620.4 521.3,617.2 516.7,560.5 524.2,487.9 519.8,468.2 485.5,474 				"/>
			</g>
		</g>
		<g>
			<g>
				<g>
					<path class="st15" d="M534.3,327.8c-1.6-14.8-20.4-23.9-28.4-8.8c-2.4,4.5-4.3,9.5-4.5,14.6c-0.1,5.1,1.9,10.5,5.9,13.5
						c0,0,0.1,0,0.1,0.1c-0.4,1.2-0.9,2.5-1.4,3.7c-0.1,0.3-0.2,0.6-0.1,0.8c0.1,0.3,0.4,0.4,0.7,0.6c1.5,0.5,2.9,1.1,4.4,1.7
						c0.7,0.3,1.5,0.5,2.2,0.5c1.7-0.2,2.7-2,3.2-3.6c0.1-0.4,0.2-0.8,0.3-1.2C526.4,348.4,535.4,337.5,534.3,327.8z"/>
				</g>
			</g>
			<g>
				<g>
					<g>
						<path class="st5" d="M505.5,323.4c-2.8,3.3-3.3,7.7-3.4,11.9c-0.1,4.1-1.1,7.9-0.8,12c-0.5,0.5-1.4,0-1.9-0.5
							c-3-3.2-6.1-6.4-9-9.7c-0.3-0.3-0.6-0.7-0.7-1.1c-0.2-0.5-0.1-1.1,0.1-1.7c2.5-10.9,8.1-18.3,15.6-26.1
							c3.7-3.8,12.4-7.2,16.2-1.5c0.9,1.3,1,3,1,4.6c0,0.9,0,1.9-0.3,2.8c-1.4,3.5-4.7,2.8-7.6,3.5
							C511.1,318.5,507.8,320.7,505.5,323.4z"/>
					</g>
				</g>
				<g>
					<g>
						<path class="st5" d="M529.6,334.6c-0.5,3.2-1.8,6.7-3.2,9.6c-0.5,1-2.9,3.1-3,3.8c-0.5,2,3,7.5,3.8,9.4
							c7.1-2.6,14.3-5.3,21.4-7.9c0.5-0.2,1.1-0.4,1.5-0.9c0.3-0.4,0.5-1,0.5-1.5c2-10.4,0.7-20.1-1.8-30.2c-2.5-10-10.2-19-20.8-20
							c-8.5-0.8-15.4,4.6-13.7,13.8c1.3,6.9,9.3,9.6,13.1,14.8C529.7,328.7,530.1,331.7,529.6,334.6z"/>
					</g>
				</g>
			</g>
		</g>
		<g>
			<g>
				<path class="st14" d="M525.1,355.6c0.2,0.1,0.3,0.2,0.5,0.3c7.7,4.1,12.3,18.5,15,27c6.8,21.8,8.3,43.8,6.2,66.7
					c-1.1,12.3-2.8,24.5-4.7,36.7c-0.5,3.4-7.3,33.3-5.8,34.2c-15-9.6-30.4-18.8-46.9-25.3s-34.3-0.8-51.9,0.8
					c10-37.8,22.5-85.4,38-121.1c1.9-4.3,3.3-8.9,5.8-12.8c2.8-4.6,6.3-5.5,10.9-7.8c1.6-0.8,3.1-1.6,4.8-2
					C505.7,349.6,516.9,351.4,525.1,355.6z"/>
			</g>
		</g>
	</g>
	<g>
		<g>
			<g>
				<path class="st4" d="M459.9,443c-3.5,0.2-7.1,0.4-10.6,0.7c-0.1-1.5-0.2-3.1-0.3-4.6c2.4-0.7,4.8-1.4,7.2-2.1
					c-0.4-0.7-0.8-1.4-1.1-2c3.1,0.2,6.1,0.5,9.2,0.8c0.3,1.6,0.7,3.1,1.1,4.7C463.5,441.3,461.7,442.1,459.9,443z"/>
			</g>
		</g>
		<g>
			<g>
				<path class="st14" d="M515.9,366c-0.9,0.2-1.7,0.7-2.5,1.3c-3.2,2.4-5.4,6-6.3,9.9c-1.5,6.2-1.1,12.3-2.4,18.4
					c-1.4,6.9-3.5,13.4-5.7,20.1c-12.2,7.5-24.5,13.8-37.9,18.7c0.8,3.1,1.6,6.2,2.4,9.2c18.2-3.1,35-9.1,52.2-15.7
					c2.7-9.6,5.4-19,7.5-28.9c1.9-8.8,4.5-17.9,2.3-26.8C524.4,367.2,520.7,365,515.9,366z"/>
			</g>
		</g>
	</g>
	<g>
		<path class="st0" d="M455.5,271.8c0,0-14.8,22-15,77.8l14.6,0.5c0,0-2.9-48.8,8-76L455.5,271.8z"/>
		<g>
			<path class="st1" d="M531.4,191.3c0,0-49.8,7.3-69.3,29.5s-5.2,55.5-5.2,55.5s34.9,9.8,54.4-12.4
				C530.7,241.7,531.4,191.3,531.4,191.3z"/>
			<path class="st0" d="M456.9,276.3c0,0,2,0.6,5.3,1.1l41.5-54.5l-48.6,48.3C456.1,274.4,456.9,276.3,456.9,276.3z"/>
		</g>
		<g>
			<path class="st1" d="M372.8,232.1c0,0,6.7,44.5,26.5,61.7c19.9,17.3,49.6,4.5,49.6,4.5s8.6-31.2-11.3-48.5
				C417.7,232.5,372.8,232.1,372.8,232.1z"/>
			<path class="st0" d="M448.9,298.3c0,0,0.5-1.8,1-4.8L401,256.6l43.3,43.2C447.2,299,448.9,298.3,448.9,298.3z"/>
		</g>
		<path class="st2" d="M456.9,276.3c0,0,54.1-7.7,70.4-50C527.3,226.4,520,293.2,456.9,276.3z"/>
	</g>
	<g>
		<g>
			<path class="st11" d="M231.1,461.7c-0.5,3.2-1,6.4-1.5,9.7c-1.4-0.2-2.8-0.4-4.2-0.6c-0.2-2.3-0.3-4.6-0.5-6.9
				c-0.7,0.2-1.4,0.4-2,0.6c0.8-2.7,1.7-5.4,2.6-8.1c1.5,0,2.9,0,4.4,0C230.3,458.2,230.6,460,231.1,461.7z"/>
		</g>
		<g>
			<path class="st12" d="M198.5,380.1c0.1,0.2,0.1,0.4,0.2,0.6c1.3,4.8,28.9,77.3,25,78.2c2.9-0.1,5.9-0.3,8.8-0.4
				c1.7-29.6-1-62.6-14.4-89.2c-2.2-4.4-4.5-8.8-8.1-12.1c-3.6-3.3-8.9-5.2-13.4-3.4C193.8,362.2,196.1,371.4,198.5,380.1z"/>
		</g>
	</g>
</g>
</svg>
